<svg xmlns="http://www.w3.org/2000/svg" xmlns:xlink="http://www.w3.org/1999/xlink" width="119" height="40" viewBox="0 0 119 40"><defs><path id="a" d="M1007.524 4237H907.482c-.365 0-.725 0-1.089.002-.304.002-.606.008-.914.013a13.07 13.07 0 0 0-1.993.177 6.404 6.404 0 0 0-4.672 3.427 6.627 6.627 0 0 0-.62 1.903c-.111.661-.171 1.33-.179 2.002-.01.306-.01.614-.015.92v23.115c.005.31.006.61.015.922.008.67.068 1.34.178 2.001.11.663.32 1.306.622 1.905a6.207 6.207 0 0 0 1.171 1.614c.47.477 1.014.875 1.61 1.179a6.638 6.638 0 0 0 1.89.63 13.31 13.31 0 0 0 1.993.177c.308.007.61.011.914.011.364.002.724.002 1.089.002h100.042c.357 0 .72 0 1.078-.002.303 0 .613-.004.916-.01a13.135 13.135 0 0 0 1.99-.177 6.74 6.74 0 0 0 1.897-.631 6.244 6.244 0 0 0 1.608-1.179 6.393 6.393 0 0 0 1.175-1.614c.3-.6.508-1.242.616-1.905.11-.661.172-1.33.184-2.001.004-.311.004-.612.004-.922.008-.364.008-.725.008-1.094v-20.929c0-.366 0-.73-.008-1.092 0-.306 0-.614-.004-.92a13.58 13.58 0 0 0-.184-2.002 6.644 6.644 0 0 0-.616-1.904 6.448 6.448 0 0 0-2.783-2.8 6.704 6.704 0 0 0-1.898-.627 12.863 12.863 0 0 0-1.989-.176c-.303-.005-.613-.011-.916-.013-.358-.002-.721-.002-1.078-.002z"/><path id="b" d="M906.661 4277.002c-.301 0-.595-.004-.894-.011a12.244 12.244 0 0 1-1.85-.166 5.72 5.72 0 0 1-1.639-.556 5.357 5.357 0 0 1-1.382-1.032 5.396 5.396 0 0 1-1.01-1.417 5.913 5.913 0 0 1-.537-1.682 12.915 12.915 0 0 1-.165-1.903 94.955 94.955 0 0 1-.014-.927v-23.446s.009-.701.015-.907c.007-.637.062-1.272.163-1.9a5.948 5.948 0 0 1 .538-1.687 5.45 5.45 0 0 1 1.004-1.42 5.515 5.515 0 0 1 1.388-1.037 5.66 5.66 0 0 1 1.636-.552 12.147 12.147 0 0 1 1.855-.167l.893-.012h101.678l.903.013c.616.007 1.231.063 1.839.165.575.1 1.132.287 1.653.556a5.608 5.608 0 0 1 2.39 2.456c.257.527.436 1.092.529 1.674.103.633.16 1.273.172 1.915.003.287.003.596.003.903.008.381.008.743.008 1.109v21.24c0 .37 0 .73-.008 1.092 0 .33 0 .633-.004.944-.012.63-.068 1.259-.17 1.881a5.932 5.932 0 0 1-.533 1.695c-.261.52-.6.995-1.005 1.406-.404.42-.872.77-1.385 1.038-.52.27-1.076.458-1.65.558a12.08 12.08 0 0 1-1.85.166c-.29.007-.593.01-.887.01l-1.073.003z"/><path id="c" d="M998.701 4249.453c-.004-.311.117-.61.335-.83.218-.22.514-.342.823-.338.304-.007.597.116.806.338.21.223.317.524.294.83zm2.262 1.474a1.07 1.07 0 0 1-1.066.551 1.177 1.177 0 0 1-.88-.383 1.212 1.212 0 0 1-.314-.919v-.05h3.165v-.313c0-1.427-.752-2.291-2-2.291a2.055 2.055 0 0 0-1.567.709 2.116 2.116 0 0 0-.499 1.665c-.082.6.101 1.207.5 1.66.399.45.973.702 1.57.686a1.82 1.82 0 0 0 1.943-1.315zm-8.15 1.217h.882v-2.65a1.07 1.07 0 0 1 .3-.84c.216-.222.519-.336.826-.31.623 0 .956.367.956 1.092v2.708h.883v-2.93a1.51 1.51 0 0 0-.378-1.212 1.462 1.462 0 0 0-1.162-.479 1.373 1.373 0 0 0-1.363.813h-.07v-2.5h-.874zm-3.058-5.666v1.152h-.71v.756h.71v2.566c0 .877.391 1.228 1.372 1.228.161-.002.322-.017.48-.046v-.747a2.9 2.9 0 0 1-.336.02c-.44 0-.632-.208-.632-.684v-2.337h.968v-.756h-.968v-1.152zm-7.899 5.666h.882v-2.653a1.05 1.05 0 0 1 .274-.823c.205-.22.495-.34.794-.326.652 0 .965.363.965 1.091v2.711h.882v-2.935a1.489 1.489 0 0 0-.374-1.221 1.443 1.443 0 0 0-1.174-.466 1.336 1.336 0 0 0-1.334.808h-.066v-.72h-.849zm-3.296-.71c-.764 0-1.193-.569-1.193-1.559 0-.982.43-1.556 1.193-1.556.761 0 1.195.574 1.195 1.556 0 .986-.434 1.56-1.195 1.56zm-1.117.484a2.08 2.08 0 0 0 2.231 0 2.167 2.167 0 0 0 .988-2.038 2.166 2.166 0 0 0-.99-2.034 2.08 2.08 0 0 0-2.227 0 2.166 2.166 0 0 0-.99 2.034 2.167 2.167 0 0 0 .988 2.038zm-7.902-2.038c0-.956.452-1.54 1.195-1.54.738 0 1.203.597 1.203 1.544 0 .952-.46 1.54-1.203 1.54-.748 0-1.195-.58-1.195-1.544zm.94 2.35a1.542 1.542 0 0 0 1.4-.794h.07v.718h.844v-6.318h-.88v2.496h-.066a1.465 1.465 0 0 0-1.368-.798c-1.127 0-1.851.91-1.851 2.346 0 1.44.716 2.35 1.85 2.35zm-4.261-1.003a1.042 1.042 0 0 1-.786.247c-.48 0-.83-.238-.83-.647 0-.4.28-.613.896-.655l1.091-.071v.38c-.019.29-.153.559-.371.746zm-2.054.668c.284.26.662.385 1.042.344a1.497 1.497 0 0 0 1.343-.715h.07v.64h.849v-3.112c0-.962-.632-1.53-1.753-1.53-1.014 0-1.737.502-1.827 1.284h.854c.098-.322.44-.506.932-.506.603 0 .915.271.915.752v.394l-1.21.07c-1.064.068-1.664.54-1.664 1.36.002.389.165.759.449 1.019zm-2.285-2.02c0 .986-.436 1.56-1.2 1.56-.767 0-1.198-.57-1.198-1.56 0-.982.431-1.556 1.198-1.556.764 0 1.2.574 1.2 1.556zm-2.32 2.043a2.09 2.09 0 0 0 2.237 0 2.165 2.165 0 0 0 .99-2.038 2.165 2.165 0 0 0-.991-2.034 2.089 2.089 0 0 0-2.234 0 2.165 2.165 0 0 0-.992 2.034 2.165 2.165 0 0 0 .99 2.038zm-3.099.226h.883v-6.308h-.883zm-5.203 0h.883v-2.653a1.05 1.05 0 0 1 .273-.823c.205-.22.495-.34.794-.326.653 0 .965.363.965 1.091v2.711h.882v-2.935a1.489 1.489 0 0 0-.374-1.221 1.443 1.443 0 0 0-1.173-.466 1.336 1.336 0 0 0-1.334.808h-.066v-.72h-.85zm-1.046-4.534h-.881l-.796 3.468h-.07l-.917-3.468h-.845l-.918 3.468h-.066l-.8-3.468h-.893l1.23 4.544h.906l.918-3.347h.07l.923 3.347h.913zm-7.73 2.265c0 .986-.436 1.56-1.2 1.56-.767 0-1.198-.57-1.198-1.56 0-.982.431-1.556 1.198-1.556.764 0 1.2.574 1.2 1.556zm-2.32 2.043a2.09 2.09 0 0 0 2.237 0 2.165 2.165 0 0 0 .99-2.038 2.165 2.165 0 0 0-.992-2.034 2.089 2.089 0 0 0-2.233 0 2.165 2.165 0 0 0-.992 2.034 2.165 2.165 0 0 0 .99 2.038zm-6.037-4.935h1.117a1.852 1.852 0 0 1 1.477.609c.378.417.553.983.477 1.545a1.914 1.914 0 0 1-.47 1.555c-.379.42-.924.645-1.484.61h-1.117zm-.92-.85v6.012h2.136c1.761 0 2.782-1.105 2.782-3.025a2.688 2.688 0 0 0-.696-2.164 2.592 2.592 0 0 0-2.086-.824zm67.618 14.91a2.25 2.25 0 0 1 1.617-.674c.6-.013 1.18.23 1.597.67.418.44.636 1.038.603 1.65h-4.485a2.336 2.336 0 0 1 .668-1.645zm3.818 4.373a2.03 2.03 0 0 1-2.076 1.285 2.322 2.322 0 0 1-1.784-.74 2.404 2.404 0 0 1-.634-1.848v-.114h6.349v-.642c0-2.771-1.564-4.508-4.051-4.508-2.53 0-4.161 1.86-4.161 4.725 0 2.858 1.623 4.639 4.238 4.639 2.033 0 3.623-1.139 3.87-2.797zm-11.352 2.693h1.845v-5.425a1.913 1.913 0 0 1 .485-1.503c.37-.404.895-.624 1.438-.602.28-.008.56.03.829.113v-1.756a2.799 2.799 0 0 0-.633-.07 2.15 2.15 0 0 0-2.162 1.653h-.043v-1.557h-1.76zm-3.402-4.573c0 1.983-.889 3.14-2.384 3.14-1.495 0-2.384-1.157-2.384-3.14 0-1.966.889-3.141 2.384-3.141 1.495 0 2.384 1.166 2.384 3.141zm-2.384 4.677c2.615 0 4.264-1.799 4.264-4.682 0-2.875-1.658-4.682-4.264-4.682-2.598 0-4.263 1.807-4.263 4.682 0 2.883 1.649 4.682 4.263 4.682zm-8.816-11.414v2.163h-1.307v1.485h1.307v5.238c0 1.772.71 2.467 2.53 2.467.344.006.687-.023 1.025-.087v-1.477c-.202.026-.404.04-.607.044-.752 0-1.094-.365-1.094-1.147v-5.038h1.71v-1.485h-1.71v-2.163zm-11.589 7.808c.12 2.267 1.966 3.701 4.7 3.701 2.923 0 4.759-1.468 4.759-3.813 0-1.833-1.05-2.866-3.58-3.474l-1.358-.34c-1.59-.399-2.239-.92-2.239-1.806 0-1.112 1.017-1.876 2.503-1.876 1.487 0 2.504.755 2.616 2.006h1.862c-.06-2.162-1.846-3.648-4.452-3.648-2.632 0-4.486 1.486-4.486 3.648 0 1.747 1.051 2.823 3.315 3.379l1.598.391c1.598.4 2.273.982 2.273 1.955 0 1.12-1.119 1.936-2.674 1.936-1.623 0-2.811-.816-2.948-2.059zm-8.921 2.008c-1.41 0-2.358-1.235-2.358-3.079 0-1.827.948-3.071 2.358-3.071 1.435 0 2.375 1.218 2.375 3.071 0 1.87-.94 3.08-2.375 3.08zm.486-7.749a3.178 3.178 0 0 0-2.862 1.616h-.034v-1.52h-1.786v12.16h1.845v-4.526h.043a3.037 3.037 0 0 0 2.828 1.599c2.257 0 3.752-1.824 3.752-4.664 0-2.832-1.504-4.665-3.786-4.665zm-8.005 4.67c0 1.87-.94 3.08-2.375 3.08-1.41 0-2.358-1.236-2.358-3.08 0-1.827.948-3.071 2.358-3.071 1.435 0 2.375 1.218 2.375 3.071zm-1.889-4.67a3.178 3.178 0 0 0-2.862 1.616h-.034v-1.52h-1.786v12.16h1.845v-4.526h.043a3.037 3.037 0 0 0 2.828 1.599c2.257 0 3.752-1.824 3.752-4.664 0-2.832-1.504-4.665-3.786-4.665zm-11.36-1.215h.05l1.832 5.498h-3.715zm3.508 10.448h2.024l-4.451-12.533h-2.068l-4.452 12.533h1.99l1.13-3.387h4.699zm-19.99-22.859a5.077 5.077 0 0 0-3.304 1.742 4.924 4.924 0 0 0-1.178 3.528 4.193 4.193 0 0 0 3.334-1.606 5.178 5.178 0 0 0 1.149-3.664zm4.113 7.796a5.208 5.208 0 0 0-4.12-2.264c-1.734-.185-3.415 1.054-4.299 1.054-.9 0-2.26-1.036-3.726-1.005a5.477 5.477 0 0 0-4.618 2.863c-1.997 3.514-.507 8.68 1.406 11.52.957 1.39 2.075 2.945 3.539 2.89 1.432-.06 1.967-.929 3.695-.929 1.713 0 2.215.929 3.708.894 1.537-.026 2.505-1.398 3.428-2.802a11.584 11.584 0 0 0 1.568-3.246c-1.825-.784-3.012-2.602-3.014-4.617a5.212 5.212 0 0 1 2.433-4.358z"/></defs><g opacity=".5" transform="translate(-898 -4237)"><use xlink:href="#a" opacity=".5"/><use xlink:href="#b" opacity=".5"/><use fill="#fff" xlink:href="#c" opacity=".5"/></g></svg>