<svg xmlns="http://www.w3.org/2000/svg" xmlns:xlink="http://www.w3.org/1999/xlink" width="32" height="32" viewBox="0 0 32 32"><defs><path id="7vk0a" d="M780.377 4042.661h1.312v-1.288h-1.312zm1.508 1.289h-1.77c-.59 0-1.115-.451-1.115-1.095v-1.74c0-.58.459-1.095 1.115-1.095h1.77c.59 0 1.115.451 1.115 1.095v1.74c0 .644-.525 1.095-1.115 1.095z"/><path id="7vk0b" d="M793.283 4049h-13.714c-1.92 0-3.429-1.441-3.429-3.275v-5.895h1.371v5.895c0 1.113.892 1.965 2.058 1.965h13.714c1.166 0 2.057-.852 2.057-1.965v-8.515h1.371v8.515c0 1.834-1.577 3.274-3.428 3.274z"/><path id="7vk0c" d="M795 4032.72v-1.12h1.14v1.12z"/><path id="7vk0d" d="M795 4035.52v-1.12h1.14v1.12z"/><path id="7vk0e" d="M783.166 4035.527h-1.306v-4.716c0-1.145.849-2.021 1.96-2.021h7.183v1.347h-7.184c-.392 0-.653.27-.653.674z"/><path id="7vk0f" d="M788.964 4038.337H772.71v-1.348h16.254c.406 0 .677-.269.677-.673v-4.716h1.355v4.716c0 1.145-.948 2.02-2.032 2.02z"/><path id="7vk0g" d="M791 4030.13v-1.34h10.86v1.34z"/><path id="7vk0h" d="M800.559 4032.154l-.989-1.062 1.516-1.745-1.516-1.745.989-1.062 2.44 2.807z"/><path id="7vk0i" d="M773.42 4040.021l-2.42-2.245 2.42-2.246 1.009.873-1.48 1.373 1.48 1.372z"/><path id="7vk0j" d="M787.11 4021.63v-1.32h2.74v1.32z"/><path id="7vk0k" d="M784.37 4021.63v-1.32h1.37v1.32z"/><path id="7vk0l" d="M777.511 4030.233h-1.371v-9.925c0-1.852 1.509-3.308 3.429-3.308h13.714c1.92 0 3.428 1.456 3.428 3.308v7.278h-1.371v-7.278c0-1.125-.891-1.985-2.057-1.985h-13.714c-1.166 0-2.058.86-2.058 1.985z"/><path id="7vk0m" d="M776.14 4032.88v-1.32h1.37v1.32z"/><path id="7vk0n" d="M776.14 4035.52v-1.32h1.37v1.32z"/><path id="7vk0o" d="M785.517 4042.661h1.312v-1.288h-1.312zm1.508 1.289h-1.77c-.59 0-1.115-.451-1.115-1.095v-1.74c0-.58.459-1.095 1.115-1.095h1.77c.59 0 1.115.451 1.115 1.095v1.74c0 .644-.525 1.095-1.115 1.095z"/><path id="7vk0p" d="M791.237 4042.661h1.312v-1.288h-1.312zm1.508 1.289h-1.77c-.59 0-1.115-.451-1.115-1.095v-1.74c0-.58.459-1.095 1.115-1.095h1.77c.59 0 1.115.451 1.115 1.095v1.74c0 .644-.525 1.095-1.115 1.095z"/><path id="7vk0q" d="M780.377 4026.381h1.312v-1.288h-1.312zm1.508 1.289h-1.77c-.59 0-1.115-.451-1.115-1.095v-1.74c0-.58.459-1.095 1.115-1.095h1.77c.59 0 1.115.451 1.115 1.095v1.74c0 .644-.525 1.095-1.115 1.095z"/><path id="7vk0r" d="M785.517 4026.381h1.312v-1.288h-1.312zm1.508 1.289h-1.77c-.59 0-1.115-.451-1.115-1.095v-1.74c0-.58.459-1.095 1.115-1.095h1.77c.59 0 1.115.451 1.115 1.095v1.74c0 .644-.525 1.095-1.115 1.095z"/><path id="7vk0s" d="M791.237 4026.381h1.312v-1.288h-1.312zm1.508 1.289h-1.77c-.59 0-1.115-.451-1.115-1.095v-1.74c0-.58.459-1.095 1.115-1.095h1.77c.59 0 1.115.451 1.115 1.095v1.74c0 .644-.525 1.095-1.115 1.095z"/><path id="7vk0t" d="M785.86 4046.19v-1.12H787v1.12z"/></defs><g><g transform="translate(-771 -4017)"><g><use fill="#6adadf" xlink:href="#7vk0a"/></g><g><use fill="#6adadf" xlink:href="#7vk0b"/></g><g><use fill="#6adadf" xlink:href="#7vk0c"/></g><g><use fill="#6adadf" xlink:href="#7vk0d"/></g><g><use fill="#6adadf" xlink:href="#7vk0e"/></g><g><use fill="#6adadf" xlink:href="#7vk0f"/></g><g><use fill="#6adadf" xlink:href="#7vk0g"/></g><g><use fill="#6adadf" xlink:href="#7vk0h"/></g><g><use fill="#6adadf" xlink:href="#7vk0i"/></g><g><g><use fill="#6adadf" xlink:href="#7vk0j"/></g><g><use fill="#6adadf" xlink:href="#7vk0k"/></g><g><use fill="#6adadf" xlink:href="#7vk0l"/></g><g><use fill="#6adadf" xlink:href="#7vk0m"/></g><g><use fill="#6adadf" xlink:href="#7vk0n"/></g></g><g><use fill="#6adadf" xlink:href="#7vk0o"/></g><g><use fill="#6adadf" xlink:href="#7vk0p"/></g><g><use fill="#6adadf" xlink:href="#7vk0q"/></g><g><use fill="#6adadf" xlink:href="#7vk0r"/></g><g><use fill="#6adadf" xlink:href="#7vk0s"/></g><g><use fill="#6adadf" xlink:href="#7vk0t"/></g></g></g></svg>