<svg xmlns="http://www.w3.org/2000/svg" xmlns:xlink="http://www.w3.org/1999/xlink" width="10" height="9" viewBox="0 0 10 9"><defs><path id="a" d="M145.438 117.65l.016.004h-6.692l2.104-2.284a.62.62 0 0 0 .159-.422.618.618 0 0 0-.16-.42l-.327-.355a.522.522 0 0 0-.386-.173.522.522 0 0 0-.387.173l-3.606 3.907a.613.613 0 0 0-.159.42c0 .159.056.308.16.42l3.605 3.907a.522.522 0 0 0 .773 0l.328-.355a.613.613 0 0 0 .159-.418c0-.159-.056-.3-.16-.411l-2.127-2.297h6.707c.302 0 .555-.282.555-.608v-.502a.578.578 0 0 0-.562-.586z"/></defs><use xlink:href="#a" transform="translate(-136 -114)"/></svg>