<svg xmlns="http://www.w3.org/2000/svg" xmlns:xlink="http://www.w3.org/1999/xlink" width="1450" height="1611" viewBox="0 0 1450 1611"><defs><path id="a" d="M82 3139c0-136.414 110.362-247 246.5-247S575 3002.586 575 3139s-110.362 247-246.5 247S82 3275.414 82 3139z"/><path id="c" d="M23 3136.5c0-168.723 136.553-305.5 305-305.5s305 136.777 305 305.5S496.447 3442 328 3442 23 3305.223 23 3136.5z"/><path id="e" d="M136 3138.5c0-106.867 86.409-193.5 193-193.5s193 86.633 193 193.5S435.591 3332 329 3332s-193-86.633-193-193.5z"/><path id="h" d="M237 4154.5c0-111.838 90.662-202.5 202.5-202.5S642 4042.662 642 4154.5 551.338 4357 439.5 4357 237 4266.338 237 4154.5z"/><path id="j" d="M188 4153.5c0-138.347 112.153-250.5 250.5-250.5 138.347 0 250.5 112.153 250.5 250.5 0 138.347-112.153 250.5-250.5 250.5-138.347 0-250.5-112.153-250.5-250.5z"/><path id="l" d="M281 4155.5c0-87.537 70.963-158.5 158.5-158.5S598 4067.963 598 4155.5 527.037 4314 439.5 4314 281 4243.037 281 4155.5z"/><path id="o" d="M828 3665.5c0-148.288 120.212-268.5 268.5-268.5s268.5 120.212 268.5 268.5-120.212 268.5-268.5 268.5S828 3813.788 828 3665.5z"/><path id="q" d="M764 3663c0-183.359 148.641-332 332-332s332 148.641 332 332-148.641 332-332 332-332-148.641-332-332z"/><path id="s" d="M887 3665c0-115.98 94.02-210 210-210s210 94.02 210 210-94.02 210-210 210-210-94.02-210-210z"/><filter id="b" width="140%" height="140%" filterUnits="objectBoundingBox"><feGaussianBlur in="SourceGraphic" result="FeGaussianBlur2408Out" stdDeviation="1.116071428571429 1.116071428571429"/></filter><filter id="d" width="144%" height="144%" x="-12%" y="-12%" filterUnits="objectBoundingBox"><feGaussianBlur in="SourceGraphic" result="FeGaussianBlur2415Out" stdDeviation="8.097098214285714 8.097098214285714"/></filter><filter id="f" width="144%" height="144%" x="-12%" y="-12%" filterUnits="objectBoundingBox"><feGaussianBlur in="SourceGraphic" result="FeGaussianBlur2422Out" stdDeviation="3.599330357142857 3.599330357142857"/></filter><filter id="g" width="140%" height="140%" filterUnits="objectBoundingBox"><feGaussianBlur in="SourceGraphic" result="FeGaussianBlur2429Out" stdDeviation="0.7393973214285714 0.7393973214285714"/></filter><filter id="i" width="140%" height="140%" filterUnits="objectBoundingBox"><feGaussianBlur in="SourceGraphic" result="FeGaussianBlur2438Out" stdDeviation="1.116071428571429 1.116071428571429"/></filter><filter id="k" width="148%" height="148%" x="-14%" y="-14%" filterUnits="objectBoundingBox"><feGaussianBlur in="SourceGraphic" result="FeGaussianBlur2445Out" stdDeviation="8.097098214285714 8.097098214285714"/></filter><filter id="m" width="144%" height="144%" x="-12%" y="-12%" filterUnits="objectBoundingBox"><feGaussianBlur in="SourceGraphic" result="FeGaussianBlur2452Out" stdDeviation="3.599330357142857 3.599330357142857"/></filter><filter id="n" width="140%" height="140%" filterUnits="objectBoundingBox"><feGaussianBlur in="SourceGraphic" result="FeGaussianBlur2459Out" stdDeviation="0.7393973214285714 0.7393973214285714"/></filter><filter id="p" width="140%" height="140%" filterUnits="objectBoundingBox"><feGaussianBlur in="SourceGraphic" result="FeGaussianBlur2468Out" stdDeviation="1.116071428571429 1.116071428571429"/></filter><filter id="r" width="144%" height="144%" x="-12%" y="-12%" filterUnits="objectBoundingBox"><feGaussianBlur in="SourceGraphic" result="FeGaussianBlur2475Out" stdDeviation="8.097098214285714 8.097098214285714"/></filter><filter id="t" width="144%" height="144%" x="-12%" y="-12%" filterUnits="objectBoundingBox"><feGaussianBlur in="SourceGraphic" result="FeGaussianBlur2482Out" stdDeviation="3.599330357142857 3.599330357142857"/></filter><filter id="u" width="140%" height="140%" filterUnits="objectBoundingBox"><feGaussianBlur in="SourceGraphic" result="FeGaussianBlur2489Out" stdDeviation="0.7393973214285714 0.7393973214285714"/></filter></defs><g opacity=".59" fill="#fff" fill-opacity="0" stroke-miterlimit="50" transform="translate(-1 -2810)"><use stroke="#000" xlink:href="#a" filter="url(#b)" opacity=".24"/><use stroke="#000" xlink:href="#c" filter="url(#d)" opacity=".59"/><use stroke="#000" stroke-width="5" xlink:href="#e" filter="url(#f)" opacity=".59"/><use stroke="#fff" stroke-width="2" xlink:href="#e" filter="url(#g)" opacity=".59"/></g><g opacity=".4" fill="#fff" fill-opacity="0" stroke-miterlimit="50" transform="translate(-1 -2810)"><use stroke="#000" xlink:href="#h" filter="url(#i)" opacity=".16"/><use stroke="#000" xlink:href="#j" filter="url(#k)" opacity=".4"/><use stroke="#000" stroke-width="5" xlink:href="#l" filter="url(#m)" opacity=".4"/><use stroke="#fff" stroke-width="2" xlink:href="#l" filter="url(#n)" opacity=".4"/></g><g opacity=".55" fill="#fff" fill-opacity="0" stroke-miterlimit="50" transform="translate(-1 -2810)"><use stroke="#000" xlink:href="#o" filter="url(#p)" opacity=".23"/><use stroke="#000" xlink:href="#q" filter="url(#r)" opacity=".55"/><use stroke="#000" stroke-width="5" xlink:href="#s" filter="url(#t)" opacity=".55"/><use stroke="#fff" stroke-width="2" xlink:href="#s" filter="url(#u)" opacity=".55"/></g></svg>