<svg xmlns="http://www.w3.org/2000/svg" xmlns:xlink="http://www.w3.org/1999/xlink" width="707" height="705" viewBox="0 0 707 705"><defs><path id="a" d="M828 3665.5c0-148.288 120.212-268.5 268.5-268.5s268.5 120.212 268.5 268.5-120.212 268.5-268.5 268.5S828 3813.788 828 3665.5z"/><path id="c" d="M764 3663c0-183.359 148.641-332 332-332s332 148.641 332 332-148.641 332-332 332-332-148.641-332-332z"/><path id="e" d="M887 3665c0-115.98 94.02-210 210-210s210 94.02 210 210-94.02 210-210 210-210-94.02-210-210z"/><filter id="b" width="140%" height="140%" filterUnits="objectBoundingBox"><feGaussianBlur in="SourceGraphic" result="FeGaussianBlur1932Out" stdDeviation="1.116071428571429 1.116071428571429"/></filter><filter id="d" width="144%" height="144%" x="-12%" y="-12%" filterUnits="objectBoundingBox"><feGaussianBlur in="SourceGraphic" result="FeGaussianBlur1939Out" stdDeviation="8.097098214285714 8.097098214285714"/></filter><filter id="f" width="144%" height="144%" x="-12%" y="-12%" filterUnits="objectBoundingBox"><feGaussianBlur in="SourceGraphic" result="FeGaussianBlur1946Out" stdDeviation="3.599330357142857 3.599330357142857"/></filter><filter id="g" width="140%" height="140%" filterUnits="objectBoundingBox"><feGaussianBlur in="SourceGraphic" result="FeGaussianBlur1953Out" stdDeviation="0.7393973214285714 0.7393973214285714"/></filter></defs><g opacity=".55" fill="#fff" fill-opacity="0" stroke-miterlimit="50" transform="translate(-744 -3310)"><use stroke="#000" xlink:href="#a" filter="url(#b)" opacity=".23"/><use stroke="#000" xlink:href="#c" filter="url(#d)" opacity=".55"/><use stroke="#000" stroke-width="5" xlink:href="#e" filter="url(#f)" opacity=".55"/><use stroke="#fff" stroke-width="2" xlink:href="#e" filter="url(#g)" opacity=".55"/></g></svg>