<svg xmlns="http://www.w3.org/2000/svg" xmlns:xlink="http://www.w3.org/1999/xlink" width="48" height="46" viewBox="0 0 48 46"><defs><path id="i9xma" d="M1167 2786a5 5 0 0 1-5 5"/><path id="i9xmb" d="M1178 2774a1 1 0 1 1 2 0 1 1 0 0 1-2 0z"/><path id="i9xmc" d="M1175 2774a1 1 0 1 1 2 0 1 1 0 0 1-2 0z"/><path id="i9xmd" d="M1172 2814h13v-44h-46v4h34"/><path id="i9xme" d="M1181 2774a1 1 0 1 1 2 0 1 1 0 0 1-2 0z"/><path id="i9xmf" d="M1150 2799c0-2.102 1.315-3.478 3.291-4.196l5.709-1.712v-3.114a4.976 4.976 0 0 1-2-3.977v-2.786a5.145 5.145 0 0 1 4.509-5.19A5.001 5.001 0 0 1 1167 2783v3a4.975 4.975 0 0 1-2 3.977v3.114l5.73 1.745a5 5 0 0 1 3.27 4.69v4.033l-2.704.962-.94 2.27 1.232 2.591-2.205 2.206-2.592-1.232-2.27.94-.961 2.704h-3.12l-.96-2.704-2.271-.94-2.592 1.232-2.205-2.206 1.232-2.591-.94-2.27-2.704-.962v-2.025h7.765a4.235 4.235 0 0 0 8.47 0v-1"/><path id="i9xmg" d="M1167 2784l1.121-1.121a3 3 0 0 1 2.122-.879h.757"/><path id="i9xmh" d="M1167 2784l1.121 1.121a3 3 0 0 0 2.122.879h.757"/><path id="i9xmi" d="M1157 2784h11"/><path id="i9xmj" d="M1139 2777v37h13"/><path id="i9xmk" d="M1142 2778h10"/><path id="i9xml" d="M1142 2782h10"/><path id="i9xmm" d="M1176 2810h6"/><path id="i9xmn" d="M1176 2806h6"/></defs><g><g transform="translate(-1138 -2769)"><g><use fill="#fff" fill-opacity="0" stroke="#49c7de" stroke-linecap="round" stroke-miterlimit="50" stroke-width="2" xlink:href="#i9xma"/></g><g><use fill="#49c7de" xlink:href="#i9xmb"/></g><g><use fill="#49c7de" xlink:href="#i9xmc"/></g><g><use fill="#fff" fill-opacity="0" stroke="#49c7de" stroke-miterlimit="50" stroke-width="2" xlink:href="#i9xmd"/></g><g><use fill="#49c7de" xlink:href="#i9xme"/></g><g><use fill="#fff" fill-opacity="0" stroke="#49c7de" stroke-miterlimit="50" stroke-width="2" xlink:href="#i9xmf"/></g><g><use fill="#fff" fill-opacity="0" stroke="#49c7de" stroke-miterlimit="50" stroke-width="2" xlink:href="#i9xmg"/></g><g><use fill="#fff" fill-opacity="0" stroke="#49c7de" stroke-miterlimit="50" stroke-width="2" xlink:href="#i9xmh"/></g><g><use fill="#fff" fill-opacity="0" stroke="#49c7de" stroke-miterlimit="50" stroke-width="2" xlink:href="#i9xmi"/></g><g><use fill="#fff" fill-opacity="0" stroke="#49c7de" stroke-miterlimit="50" stroke-width="2" xlink:href="#i9xmj"/></g><g><use fill="#fff" fill-opacity="0" stroke="#49c7de" stroke-miterlimit="50" stroke-width="2" xlink:href="#i9xmk"/></g><g><use fill="#fff" fill-opacity="0" stroke="#49c7de" stroke-miterlimit="50" stroke-width="2" xlink:href="#i9xml"/></g><g><use fill="#fff" fill-opacity="0" stroke="#49c7de" stroke-miterlimit="50" stroke-width="2" xlink:href="#i9xmm"/></g><g><use fill="#fff" fill-opacity="0" stroke="#49c7de" stroke-miterlimit="50" stroke-width="2" xlink:href="#i9xmn"/></g></g></g></svg>