<svg xmlns="http://www.w3.org/2000/svg" xmlns:xlink="http://www.w3.org/1999/xlink" width="23" height="23" viewBox="0 0 23 23"><defs><path id="a" d="M818.45 3009.46a1.306 1.306 0 0 1-.957.393c-.376 0-.695-.131-.958-.393a1.299 1.299 0 0 1-.394-.955c0-.374.131-.693.394-.955s.582-.393.958-.393c.375 0 .695.131.958.393a1.3 1.3 0 0 1 .394.955 1.3 1.3 0 0 1-.394.955zm3.409-5.326a.474.474 0 0 0-.339-.134c-2.45 0-4.474.333-6.07 1-1.596.668-3.277 1.88-5.042 3.637a47.338 47.338 0 0 0-2.479 2.748l-5.338.282a.516.516 0 0 0-.366.225l-3.155 5.412c-.113.188-.09.371.07.55l.902.902a.438.438 0 0 0 .324.127.425.425 0 0 0 .126-.014l3.888-1.199 3.958 3.96-1.198 3.89a.45.45 0 0 0 .113.451l.902.902a.507.507 0 0 0 .323.127c.085 0 .16-.019.226-.056l5.409-3.157a.514.514 0 0 0 .225-.367l.282-5.34a47.224 47.224 0 0 0 2.746-2.481c1.672-1.682 2.862-3.376 3.57-5.08.71-1.706 1.064-3.729 1.064-6.068a.423.423 0 0 0-.141-.317z"/></defs><use fill="#4cd4d7" xlink:href="#a" transform="translate(-799 -3004)"/></svg>