<svg xmlns="http://www.w3.org/2000/svg" xmlns:xlink="http://www.w3.org/1999/xlink" width="48" height="41" viewBox="0 0 48 41"><defs><path id="66kra" d="M546 3056v-32"/><path id="66krb" d="M588 3024v35"/><path id="66krc" d="M551 3030h6"/><path id="66krd" d="M551 3034h6"/><path id="66kre" d="M551 3053v-12h32v12z"/><path id="66krf" d="M562 3044v6"/><path id="66krg" d="M566 3044v6"/><path id="66krh" d="M570 3044v6"/><path id="66kri" d="M574 3044v6"/><path id="66krj" d="M578 3044v6"/><path id="66krk" d="M554 3045h4"/><path id="66krl" d="M554 3049h4"/><path id="66krm" d="M575 3038v-3h-2v-2l4-4h2l4 4v2h-2v3"/><path id="66krn" d="M546 3055v-35h42v35"/><path id="66kro" d="M588 3024h-16v4h-1l-2-2-2 2-2-2-2 2h-1v-4h-13"/><path id="66krp" d="M543 3059h48"/></defs><g><g transform="translate(-543 -3019)"><g><use fill="#fff" fill-opacity="0" stroke="#49c7de" stroke-miterlimit="50" stroke-width="2" xlink:href="#66kra"/></g><g><use fill="#fff" fill-opacity="0" stroke="#49c7de" stroke-miterlimit="50" stroke-width="2" xlink:href="#66krb"/></g><g><use fill="#fff" fill-opacity="0" stroke="#49c7de" stroke-miterlimit="50" stroke-width="2" xlink:href="#66krc"/></g><g><use fill="#fff" fill-opacity="0" stroke="#49c7de" stroke-miterlimit="50" stroke-width="2" xlink:href="#66krd"/></g><g><g><use fill="#fff" fill-opacity="0" stroke="#49c7de" stroke-miterlimit="50" stroke-width="2" xlink:href="#66kre"/></g><g><g><use fill="#fff" fill-opacity="0" stroke="#49c7de" stroke-miterlimit="50" stroke-width="2" xlink:href="#66krf"/></g><g><use fill="#fff" fill-opacity="0" stroke="#49c7de" stroke-miterlimit="50" stroke-width="2" xlink:href="#66krg"/></g><g><use fill="#fff" fill-opacity="0" stroke="#49c7de" stroke-miterlimit="50" stroke-width="2" xlink:href="#66krh"/></g><g><use fill="#fff" fill-opacity="0" stroke="#49c7de" stroke-miterlimit="50" stroke-width="2" xlink:href="#66kri"/></g><g><use fill="#fff" fill-opacity="0" stroke="#49c7de" stroke-miterlimit="50" stroke-width="2" xlink:href="#66krj"/></g></g><g><use fill="#fff" fill-opacity="0" stroke="#49c7de" stroke-miterlimit="50" stroke-width="2" xlink:href="#66krk"/></g><g><use fill="#fff" fill-opacity="0" stroke="#49c7de" stroke-miterlimit="50" stroke-width="2" xlink:href="#66krl"/></g></g><g><use fill="#fff" fill-opacity="0" stroke="#49c7de" stroke-miterlimit="50" stroke-width="2" xlink:href="#66krm"/></g><g><use fill="#fff" fill-opacity="0" stroke="#49c7de" stroke-miterlimit="50" stroke-width="2" xlink:href="#66krn"/></g><g><use fill="#fff" fill-opacity="0" stroke="#49c7de" stroke-miterlimit="50" stroke-width="2" xlink:href="#66kro"/></g><g><use fill="#fff" fill-opacity="0" stroke="#49c7de" stroke-miterlimit="50" stroke-width="2" xlink:href="#66krp"/></g></g></g></svg>