<svg xmlns="http://www.w3.org/2000/svg" xmlns:xlink="http://www.w3.org/1999/xlink" width="56" height="48" viewBox="0 0 56 48"><defs><path id="jlfwa" d="M861 2803.003h-22v-20.383"/><path id="jlfwb" d="M883 2782.62v8.383"/><path id="jlfwc" d="M855 2771a6 6 0 1 1 12 0"/><path id="jlfwd" d="M884 2782.094l-1.817.447a86.9 86.9 0 0 1-44.183-.697V2771h46z"/><path id="jlfwe" d="M878.5 2810.2c-5.756 0-10.749-5.458-12.195-7.2 1.446-1.742 6.44-7.2 12.195-7.2 5.756 0 10.749 5.458 12.195 7.2-1.446 1.742-6.44 7.2-12.195 7.2zm14.111-7.726c-.255-.347-6.348-8.474-14.111-8.474-7.763 0-13.856 8.127-14.111 8.473L864 2803l.389.526c.255.347 6.348 8.474 14.111 8.474 7.763 0 13.856-8.127 14.111-8.473L893 2803z"/><path id="jlfwf" d="M878.505 2807.177a3.672 3.672 0 1 1 0-7.344 3.672 3.672 0 0 1 0 7.344zM878.5 2798a5.5 5.5 0 1 0 0 11 5.5 5.5 0 0 0 0-11z"/><path id="jlfwg" d="M888 2812v-2h2v2z"/><path id="jlfwh" d="M867 2812v-2h2v2z"/><path id="jlfwi" d="M888 2796v-2h2v2z"/><path id="jlfwj" d="M867 2796v-2h2v2z"/><path id="jlfwk" d="M848 2784v4"/><path id="jlfwl" d="M874 2784v4"/></defs><g><g transform="translate(-837 -2764)"><g><use fill="#fff" fill-opacity="0" stroke="#49c7de" stroke-linecap="round" stroke-miterlimit="50" stroke-width="2" xlink:href="#jlfwa"/></g><g><use fill="#fff" fill-opacity="0" stroke="#49c7de" stroke-linecap="round" stroke-miterlimit="50" stroke-width="2" xlink:href="#jlfwb"/></g><g><use fill="#fff" fill-opacity="0" stroke="#49c7de" stroke-miterlimit="50" stroke-width="2" xlink:href="#jlfwc"/></g><g><use fill="#fff" fill-opacity="0" stroke="#49c7de" stroke-miterlimit="50" stroke-width="2" xlink:href="#jlfwd"/></g><g><use fill="#49c7de" xlink:href="#jlfwe"/></g><g><use fill="#49c7de" xlink:href="#jlfwf"/></g><g><use fill="#49c7de" xlink:href="#jlfwg"/></g><g><use fill="#49c7de" xlink:href="#jlfwh"/></g><g><use fill="#49c7de" xlink:href="#jlfwi"/></g><g><use fill="#49c7de" xlink:href="#jlfwj"/></g><g><use fill="#fff" fill-opacity="0" stroke="#49c7de" stroke-miterlimit="50" stroke-width="2" xlink:href="#jlfwk"/></g><g><use fill="#fff" fill-opacity="0" stroke="#49c7de" stroke-miterlimit="50" stroke-width="2" xlink:href="#jlfwl"/></g></g></g></svg>