<svg xmlns="http://www.w3.org/2000/svg" xmlns:xlink="http://www.w3.org/1999/xlink" width="48" height="48" viewBox="0 0 48 48"><defs><path id="lrl7a" d="M849 3059h-2"/><path id="lrl7b" d="M875 3059h-2"/><path id="lrl7c" d="M879 3059h-2"/><path id="lrl7d" d="M883 3059h-2"/><path id="lrl7e" d="M841 3059h-2"/><path id="lrl7f" d="M845 3059h-2"/><path id="lrl7g" d="M854 3059v-4h14.008l-.016 4"/><path id="lrl7h" d="M858 3055v-25"/><path id="lrl7i" d="M864 3055v-25"/><path id="lrl7j" d="M854.99 3030h12.016"/><path id="lrl7k" d="M851 3059h20.008"/><path id="lrl7l" d="M838 3044.15v1.942a10.136 10.136 0 0 0 16 0v-1.942z"/><path id="lrl7m" d="M854.001 3042v-1l-6.061-17.268V3023"/><path id="lrl7n" d="M838 3042v-1l7.273-21H858"/><path id="lrl7o" d="M845.166 3020h-6.186"/><path id="lrl7p" d="M868 3044.15v1.942a10.136 10.136 0 0 0 16 0v-1.942z"/><path id="lrl7q" d="M884.001 3042v-1l-6.061-17.268V3023"/><path id="lrl7r" d="M868 3042v-1l7.273-21H867"/><path id="lrl7s" d="M875.27 3020h7.727"/><path id="lrl7t" d="M861 3026.96a7 7 0 1 0 0-14 7 7 0 0 0 0 14"/><path id="lrl7u" d="M854.2 3019.96h13.5"/><path id="lrl7v" d="M861 3026.96c1.657 0 3-3.134 3-7s-1.343-7-3-7-3 3.134-3 7 1.343 7 3 7"/><path id="lrl7w" d="M854.99 3034h12.016"/></defs><g><g transform="translate(-837 -3012)"><g><use fill="#fff" fill-opacity="0" stroke="#49c7de" stroke-miterlimit="50" stroke-width="2" xlink:href="#lrl7a"/></g><g><use fill="#fff" fill-opacity="0" stroke="#49c7de" stroke-miterlimit="50" stroke-width="2" xlink:href="#lrl7b"/></g><g><use fill="#fff" fill-opacity="0" stroke="#49c7de" stroke-miterlimit="50" stroke-width="2" xlink:href="#lrl7c"/></g><g><use fill="#fff" fill-opacity="0" stroke="#49c7de" stroke-miterlimit="50" stroke-width="2" xlink:href="#lrl7d"/></g><g><use fill="#fff" fill-opacity="0" stroke="#49c7de" stroke-miterlimit="50" stroke-width="2" xlink:href="#lrl7e"/></g><g><use fill="#fff" fill-opacity="0" stroke="#49c7de" stroke-miterlimit="50" stroke-width="2" xlink:href="#lrl7f"/></g><g><g><use fill="#fff" fill-opacity="0" stroke="#49c7de" stroke-miterlimit="50" stroke-width="2" xlink:href="#lrl7g"/></g><g><use fill="#fff" fill-opacity="0" stroke="#49c7de" stroke-miterlimit="50" stroke-width="2" xlink:href="#lrl7h"/></g><g><use fill="#fff" fill-opacity="0" stroke="#49c7de" stroke-miterlimit="50" stroke-width="2" xlink:href="#lrl7i"/></g><g><use fill="#fff" fill-opacity="0" stroke="#49c7de" stroke-miterlimit="50" stroke-width="2" xlink:href="#lrl7j"/></g><g><use fill="#fff" fill-opacity="0" stroke="#49c7de" stroke-miterlimit="50" stroke-width="2" xlink:href="#lrl7k"/></g></g><g><g><use fill="#fff" fill-opacity="0" stroke="#49c7de" stroke-miterlimit="50" stroke-width="2" xlink:href="#lrl7l"/></g><g><use fill="#fff" fill-opacity="0" stroke="#49c7de" stroke-miterlimit="50" stroke-width="2" xlink:href="#lrl7m"/></g><g><use fill="#fff" fill-opacity="0" stroke="#49c7de" stroke-miterlimit="50" stroke-width="2" xlink:href="#lrl7n"/></g></g><g><use fill="#fff" fill-opacity="0" stroke="#49c7de" stroke-miterlimit="50" stroke-width="2" xlink:href="#lrl7o"/></g><g><g><use fill="#fff" fill-opacity="0" stroke="#49c7de" stroke-miterlimit="50" stroke-width="2" xlink:href="#lrl7p"/></g><g><use fill="#fff" fill-opacity="0" stroke="#49c7de" stroke-miterlimit="50" stroke-width="2" xlink:href="#lrl7q"/></g><g><use fill="#fff" fill-opacity="0" stroke="#49c7de" stroke-miterlimit="50" stroke-width="2" xlink:href="#lrl7r"/></g></g><g><use fill="#fff" fill-opacity="0" stroke="#49c7de" stroke-miterlimit="50" stroke-width="2" xlink:href="#lrl7s"/></g><g><use fill="#fff" fill-opacity="0" stroke="#49c7de" stroke-miterlimit="50" stroke-width="2" xlink:href="#lrl7t"/></g><g><use fill="#fff" fill-opacity="0" stroke="#49c7de" stroke-miterlimit="50" stroke-width="2" xlink:href="#lrl7u"/></g><g><use fill="#fff" fill-opacity="0" stroke="#49c7de" stroke-miterlimit="50" stroke-width="2" xlink:href="#lrl7v"/></g><g><use fill="#fff" fill-opacity="0" stroke="#49c7de" stroke-miterlimit="50" stroke-width="2" xlink:href="#lrl7w"/></g></g></g></svg>