<svg xmlns="http://www.w3.org/2000/svg" xmlns:xlink="http://www.w3.org/1999/xlink" width="48" height="48" viewBox="0 0 48 48"><defs><path id="a" d="M269 2796v-13"/><path id="b" d="M290 2813.905L271 2786h-4l-8 10.129"/><path id="c" d="M283 2768h8v10h-8"/><path id="d" d="M259 2776h-8v-6h8v-1h25v8h-25v-4"/><path id="e" d="M251 2775h-6v-4h5"/><path id="f" d="M272 2777v2.25a3 3 0 0 1-6 0V2777"/><path id="g" d="M274 2814h18"/><path id="h" d="M245 2810h2l2 2v2"/><path id="i" d="M245 2804h2l2-2v-2"/><path id="j" d="M255 2807a3 3 0 1 1 6 0 3 3 0 0 1-6 0z"/><path id="k" d="M271 2810h-2l-2 2v2"/><path id="l" d="M271 2804h-2l-2-2v-2"/><path id="m" d="M245 2814v-14h26v14z"/><path id="n" d="M281 2793a5 5 0 1 1 10 0 5 5 0 0 1-10 0z"/><path id="o" d="M286 2791v4"/><path id="p" d="M286 2788v-3"/><path id="q" d="M286 2783v-2"/></defs><use fill="#fff" fill-opacity="0" stroke="#49c7de" stroke-linecap="round" stroke-miterlimit="50" stroke-width="2" xlink:href="#a" transform="translate(-244 -2767)"/><use fill="#fff" fill-opacity="0" stroke="#49c7de" stroke-linecap="round" stroke-miterlimit="50" stroke-width="2" xlink:href="#b" transform="translate(-244 -2767)"/><use fill="#fff" fill-opacity="0" stroke="#49c7de" stroke-miterlimit="50" stroke-width="2" xlink:href="#c" transform="translate(-244 -2767)"/><use fill="#fff" fill-opacity="0" stroke="#49c7de" stroke-miterlimit="50" stroke-width="2" xlink:href="#d" transform="translate(-244 -2767)"/><use fill="#fff" fill-opacity="0" stroke="#49c7de" stroke-miterlimit="50" stroke-width="2" xlink:href="#e" transform="translate(-244 -2767)"/><use fill="#fff" fill-opacity="0" stroke="#49c7de" stroke-miterlimit="50" stroke-width="2" xlink:href="#f" transform="translate(-244 -2767)"/><use fill="#fff" fill-opacity="0" stroke="#49c7de" stroke-miterlimit="50" stroke-width="2" xlink:href="#g" transform="translate(-244 -2767)"/><use fill="#fff" fill-opacity="0" stroke="#49c7de" stroke-miterlimit="50" stroke-width="2" xlink:href="#h" transform="translate(-244 -2767)"/><use fill="#fff" fill-opacity="0" stroke="#49c7de" stroke-miterlimit="50" stroke-width="2" xlink:href="#i" transform="translate(-244 -2767)"/><use fill="#fff" fill-opacity="0" stroke="#49c7de" stroke-miterlimit="50" stroke-width="2" xlink:href="#j" transform="translate(-244 -2767)"/><use fill="#fff" fill-opacity="0" stroke="#49c7de" stroke-miterlimit="50" stroke-width="2" xlink:href="#j" transform="translate(-244 -2767)"/><use fill="#fff" fill-opacity="0" stroke="#49c7de" stroke-miterlimit="50" stroke-width="2" xlink:href="#k" transform="translate(-244 -2767)"/><use fill="#fff" fill-opacity="0" stroke="#49c7de" stroke-miterlimit="50" stroke-width="2" xlink:href="#l" transform="translate(-244 -2767)"/><use fill="#fff" fill-opacity="0" stroke="#49c7de" stroke-miterlimit="50" stroke-width="2" xlink:href="#j" transform="translate(-244 -2767)"/><use fill="#fff" fill-opacity="0" stroke="#49c7de" stroke-miterlimit="50" stroke-width="2" xlink:href="#m" transform="translate(-244 -2767)"/><g transform="translate(-244 -2767)" fill="#fff" fill-opacity="0" stroke="#49c7de" stroke-miterlimit="50" stroke-width="2"><use xlink:href="#n"/><use xlink:href="#o"/><use xlink:href="#p"/><use xlink:href="#q"/></g></svg>