<svg xmlns="http://www.w3.org/2000/svg" xmlns:xlink="http://www.w3.org/1999/xlink" width="48" height="48" viewBox="0 0 48 48"><defs><path id="a" d="M252.73 3040.198a18.88 18.88 0 0 0 1.713 4.103 2.273 2.273 0 0 0 3.58.453l3.581-3.582a2.28 2.28 0 0 0-1.61-3.892h-5.074a2.285 2.285 0 0 0-2.19 2.918z"/><path id="b" d="M280.398 3041.172l3.583 3.583a2.273 2.273 0 0 0 3.58-.453 18.878 18.878 0 0 0 1.714-4.105 2.285 2.285 0 0 0-2.19-2.917h-5.076a2.28 2.28 0 0 0-1.61 3.892z"/><path id="c" d="M280.745 3047.97l-3.954-3.954a2.568 2.568 0 0 0-2.843-.5 7.56 7.56 0 0 1-5.903 0 2.568 2.568 0 0 0-2.843.5l-3.954 3.953a2.28 2.28 0 0 0 .512 3.61s.758.41.815.439a38.36 38.36 0 0 0 1.137.52 18.914 18.914 0 0 0 14.57 0c.041-.018 1.95-.959 1.95-.959a2.28 2.28 0 0 0 .513-3.61z"/><path id="d" d="M289.289 3029.874a18.995 18.995 0 0 0-36.584 0 2.267 2.267 0 0 0 2.206 2.846h4.969a3.494 3.494 0 0 0 3.04-1.946 9.111 9.111 0 0 1 16.153 0 3.494 3.494 0 0 0 3.04 1.946h4.971a2.267 2.267 0 0 0 2.206-2.846z"/><path id="e" d="M284.68 3032.72v4.56"/><path id="f" d="M257.32 3032.72v4.56"/><path id="g" d="M279.94 3047.164l3.224-3.224"/><path id="h" d="M262.064 3047.164l-3.224-3.224"/><path id="i" d="M271 3058c-12.703 0-23-10.297-23-23s10.297-23 23-23 23 10.297 23 23c-.014 12.697-10.303 22.986-23 23z"/><path id="j" d="M269 3034h4"/><path id="k" d="M269 3038h4"/><path id="l" d="M266 3022h2"/><path id="m" d="M270 3022h2"/><path id="n" d="M274 3022h2"/></defs><use fill="#fff" fill-opacity="0" stroke="#49c7de" stroke-miterlimit="50" stroke-width="2" xlink:href="#a" transform="translate(-247 -3011)"/><use fill="#fff" fill-opacity="0" stroke="#49c7de" stroke-miterlimit="50" stroke-width="2" xlink:href="#b" transform="translate(-247 -3011)"/><use fill="#fff" fill-opacity="0" stroke="#49c7de" stroke-miterlimit="50" stroke-width="2" xlink:href="#c" transform="translate(-247 -3011)"/><use fill="#fff" fill-opacity="0" stroke="#49c7de" stroke-miterlimit="50" stroke-width="2" xlink:href="#d" transform="translate(-247 -3011)"/><use fill="#fff" fill-opacity="0" stroke="#49c7de" stroke-miterlimit="50" stroke-width="2" xlink:href="#e" transform="translate(-247 -3011)"/><use fill="#fff" fill-opacity="0" stroke="#49c7de" stroke-miterlimit="50" stroke-width="2" xlink:href="#f" transform="translate(-247 -3011)"/><use fill="#fff" fill-opacity="0" stroke="#49c7de" stroke-miterlimit="50" stroke-width="2" xlink:href="#g" transform="translate(-247 -3011)"/><use fill="#fff" fill-opacity="0" stroke="#49c7de" stroke-miterlimit="50" stroke-width="2" xlink:href="#h" transform="translate(-247 -3011)"/><use fill="#fff" fill-opacity="0" stroke="#49c7de" stroke-miterlimit="50" stroke-width="2" xlink:href="#i" transform="translate(-247 -3011)"/><use fill="#fff" fill-opacity="0" stroke="#49c7de" stroke-miterlimit="50" stroke-width="2" xlink:href="#j" transform="translate(-247 -3011)"/><use fill="#fff" fill-opacity="0" stroke="#49c7de" stroke-miterlimit="50" stroke-width="2" xlink:href="#k" transform="translate(-247 -3011)"/><g fill="#fff" fill-opacity="0" stroke="#49c7de" stroke-miterlimit="50" stroke-width="2" transform="translate(-247 -3011)"><use xlink:href="#l"/><use xlink:href="#m"/><use xlink:href="#n"/></g></svg>