<svg width="153" height="30" viewBox="0 0 153 30" xmlns="http://www.w3.org/2000/svg" xmlns:xlink="http://www.w3.org/1999/xlink"><title>F8C5777E-6B10-4A0C-A396-A4ABDC6327B3</title><defs><linearGradient x1="50%" y1="0%" x2="56.729%" y2="100%" id="c"><stop stop-color="#69F3DA" offset="0%"/><stop stop-color="#50C1F5" offset="100%"/></linearGradient><path d="M9.863.075C9.2.075 8.586.389 8.24.903L.39 12.555c-.478.711-.339 1.632.335 2.196.885.74 2.245.592 2.896-.295l4.791-6.535c.758-1.034 2.423-1.028 3.174.009l4.677 6.464c.658.909 2.055 1.05 2.913.295.644-.566.77-1.467.303-2.164L11.672.905c-.346-.515-.962-.83-1.624-.83h-.185z" id="b"/><filter x="-66.1%" y="-72.6%" width="232.3%" height="271.6%" filterUnits="objectBoundingBox" id="a"><feOffset dy="2" in="SourceAlpha" result="shadowOffsetOuter1"/><feGaussianBlur stdDeviation="4" in="shadowOffsetOuter1" result="shadowBlurOuter1"/><feColorMatrix values="0 0 0 0 0 0 0 0 0 0.552941176 0 0 0 0 1 0 0 0 0.466853487 0" in="shadowBlurOuter1"/></filter><path id="d" d="M.007.281h17.06v15.1H.006z"/></defs><g fill="none" fill-rule="evenodd"><path d="M8.916 13.523c-.875 0-1.583.647-1.583 1.446v4.673c0 .982.215 1.627.646 1.992.46.338 1.383.507 2.797.507.612 0 1.187-.03 1.72-.084.838-.089 1.602.436 1.74 1.196.148.804-.432 1.562-1.295 1.682a24.39 24.39 0 0 1-3.395.236c-2.213 0-3.811-.365-4.764-1.066-.954-.73-1.445-2.106-1.445-4.127v-5.01c0-.798-.709-1.445-1.584-1.445h-.152c-.874 0-1.583-.647-1.583-1.446v-.14c0-.798.709-1.445 1.583-1.445h.152c.875 0 1.584-.648 1.584-1.446 0-.627.443-1.183 1.097-1.376l.83-.244c1.173-.194 2.069.394 2.069 1.375v.245c0 .798.708 1.446 1.583 1.446h3.442c.874 0 1.583.647 1.583 1.445v.14c0 .8-.709 1.446-1.583 1.446H8.916zm19.979-2.974v2.418c0 .26-.241.465-.526.44-.469-.038-1-.053-1.595-.053-2.401 0-4.481.43-4.92 1.181a.477.477 0 0 0-.045.112 4.577 4.577 0 0 0-.137 1.178v8.508c0 .246-.218.445-.488.445h-3.02c-.27 0-.488-.199-.488-.445V10.937c0-.246.218-.446.487-.446h3.021c.27 0 .488.2.488.446 0 .374.467.571.793.344 1.145-.803 2.755-1.21 4.831-1.21.359 0 .733.014 1.134.034.26.011.465.206.465.444m39.408 11.569c1.005-.115 1.754-.902 1.754-1.827V14.45c0-.814-1.844-1.377-4.303-1.377-1.998 0-3.32.31-3.965.927s-.983 1.825-.983 3.621c0 1.936.306 3.172.952 3.761.646.59 1.998.87 4.058.87.868 0 1.697-.045 2.487-.134m1.754-13.58V6.353c0-1.015.901-1.839 2.014-1.839 1.111 0 2.013.824 2.013 1.839v16.45c0 .86-.65 1.61-1.569 1.795-1.925.387-4.164.574-6.699.574-3.228 0-5.564-.533-7.008-1.628-1.414-1.095-2.12-3.087-2.12-5.922 0-2.779.676-4.715 2.027-5.838 1.353-1.151 3.413-1.713 6.178-1.713.947 0 1.854.086 2.722.262 1.255.253 2.442-.62 2.442-1.793m13.58 4.927c-.466.304-.789.815-.978 1.52-.123.455.267.894.78.894h6.874c.495 0 .873-.408.791-.853-.14-.765-.421-1.295-.859-1.589-.584-.42-1.629-.617-3.196-.617-1.63 0-2.767.224-3.412.645m9.682-1.88c1.444 1.122 1.967 3.087 1.967 6.23 0 .404-.358.73-.8.73h-11.19c-.483 0-.855.391-.794.829.144 1.03.527 1.736 1.166 2.118.83.478 2.276.73 4.335.73 1.604 0 3.162-.164 4.676-.493.425-.092.85.16.948.55l.372 1.47c.1.397-.17.796-.606.879-1.94.367-3.946.541-5.975.541-2.98 0-5.256-.561-6.823-1.712-1.568-1.15-2.367-3.116-2.367-5.894 0-5.473 2.982-7.494 8.79-7.494 3.075 0 4.918.364 6.302 1.516" fill="#000"/><path d="M102.069 4.513c.608 0 1.102.45 1.102 1.006v15.245c0 .856.254 1.647.76 2.383.377.544.077 1.265-.589 1.47l-1.697.522c-.42.127-.895.024-1.177-.287-.856-.945-1.293-2.266-1.293-3.947V5.52c0-.555.493-1.006 1.101-1.006h1.793z" fill="#000" fill-rule="nonzero"/><path d="M112.32 11.983v11.303c0 .825-.73 1.492-1.632 1.492h-.73c-.902 0-1.633-.667-1.633-1.492V11.983c0-.823.731-1.491 1.633-1.491h.73c.901 0 1.633.668 1.633 1.491m.4-5.73c0 1.6-.523 1.937-2.367 1.937-1.876 0-2.429-.336-2.429-1.936 0-1.432.553-1.713 2.429-1.713 1.844 0 2.367.281 2.367 1.713m2.834 17.947c0-.151.064-.295.181-.403a164.462 164.462 0 0 0 5.596-5.419 113.455 113.455 0 0 0 3.724-3.915c.338-.377.043-.94-.49-.94h-7.734c-.35 0-.632-.259-.632-.578v-1.878c0-.318.283-.576.632-.576h15.057c.348 0 .632.258.632.576v.008a.54.54 0 0 1-.135.357c-1.358 1.563-3.005 3.337-4.998 5.374a132.686 132.686 0 0 1-3.963 3.963c-.386.367-.104.977.455.977h7.733c.349 0 .63.258.63.577V24.2c0 .32-.281.577-.63.577h-15.428c-.347 0-.63-.258-.63-.577" fill="#000"/><g transform="translate(32.263 5.391)"><use fill="#000" filter="url(#a)" xlink:href="#b"/><use fill="url(#c)" xlink:href="#b"/></g><g transform="translate(135.003 9.79)"><mask id="e" fill="#fff"><use xlink:href="#d"/></mask><path d="M5.417 3.677c-.466.304-.789.815-.977 1.52-.123.455.267.894.78.894h6.875c.493 0 .871-.408.79-.853-.14-.765-.422-1.295-.86-1.589-.584-.42-1.628-.617-3.195-.617-1.63 0-2.768.224-3.413.645m9.682-1.88c1.445 1.122 1.968 3.088 1.968 6.23 0 .404-.358.73-.8.73H5.077c-.485 0-.856.392-.796.829.144 1.03.527 1.736 1.167 2.119.83.477 2.275.73 4.335.73 1.603 0 3.162-.164 4.676-.494.424-.092.85.16.947.55l.373 1.47c.099.397-.171.796-.607.879-1.94.367-3.945.541-5.974.541-2.981 0-5.255-.561-6.824-1.712C.808 12.519.007 10.553.007 7.775.007 2.302 2.99.281 8.797.281c3.075 0 4.92.365 6.302 1.516" fill="#000" mask="url(#e)"/></g></g></svg>