<svg width="320" height="68" viewBox="0 0 320 68" xmlns="http://www.w3.org/2000/svg" xmlns:xlink="http://www.w3.org/1999/xlink"><title>Logo</title><defs><path id="a" d="M.024.612h10.27v44H.024z"/><linearGradient x1="50%" y1="0%" x2="56.729%" y2="100%" id="c"><stop stop-color="#69F3DA" offset="0%"/><stop stop-color="#50C1F5" offset="100%"/></linearGradient><path d="M105.297 16.222c-1.38 0-2.664.667-3.387 1.762L85.528 42.776c-.997 1.513-.706 3.472.7 4.672 1.846 1.574 4.686 1.26 6.043-.627l9.999-13.904c1.58-2.2 5.057-2.188 6.623.018l9.761 13.755c1.372 1.932 4.288 2.232 6.079.626 1.343-1.204 1.607-3.12.631-4.603l-16.29-24.725c-.724-1.097-2.009-1.766-3.39-1.766h-.387z" id="d"/><path id="e" d="M299.133 26.02h35.6v32.13h-35.6z"/></defs><g fill="none" fill-rule="evenodd"><g transform="translate(-17 -14)"><path d="M35.993 33.365c-1.825 0-3.304 1.377-3.304 3.076v9.942c0 2.091.449 3.464 1.348 4.24.96.718 2.886 1.077 5.837 1.077 1.278 0 2.478-.06 3.591-.178 1.747-.189 3.341.928 3.63 2.545.308 1.711-.9 3.323-2.702 3.579a49.938 49.938 0 0 1-7.085.503c-4.619 0-7.953-.777-9.942-2.27-1.99-1.553-3.016-4.479-3.016-8.78V36.441c0-1.7-1.48-3.076-3.304-3.076h-.318c-1.825 0-3.304-1.377-3.304-3.076v-.298c0-1.7 1.479-3.076 3.304-3.076h.318c1.825 0 3.304-1.377 3.304-3.076 0-1.335.925-2.517 2.289-2.929l1.731-.519c2.45-.411 4.319.84 4.319 2.926v.522c0 1.699 1.479 3.076 3.304 3.076h7.183c1.825 0 3.304 1.377 3.304 3.076v.298c0 1.7-1.48 3.076-3.304 3.076h-7.183zm41.693-6.329v5.145c0 .555-.503.99-1.098.938-.978-.083-2.086-.113-3.328-.113-5.011 0-9.352.912-10.269 2.512a.998.998 0 0 0-.093.238c-.172.642-.286 1.496-.286 2.506v18.104c0 .523-.455.947-1.017.947H55.29c-.562 0-1.017-.424-1.017-.947V27.86c0-.523.455-.947 1.017-.947h6.305c.562 0 1.017.424 1.017.947 0 .797.976 1.217 1.656.732 2.389-1.707 5.75-2.573 10.081-2.573.75 0 1.53.03 2.368.071.542.025.969.44.969.945m82.238 24.617c2.098-.244 3.662-1.919 3.662-3.887V35.336c0-1.731-3.849-2.928-8.98-2.928-4.17 0-6.928.657-8.276 1.971-1.346 1.314-2.052 3.883-2.052 7.706 0 4.118.64 6.748 1.989 8.001 1.348 1.256 4.168 1.852 8.467 1.852 1.813 0 3.542-.096 5.19-.286m3.662-28.892v-4.654c0-2.16 1.88-3.911 4.2-3.911 2.32 0 4.202 1.752 4.202 3.911v35.002c0 1.829-1.355 3.425-3.273 3.818-4.019.823-8.69 1.223-13.98 1.223-6.737 0-11.611-1.136-14.625-3.464-2.951-2.33-4.426-6.57-4.426-12.6 0-5.913 1.412-10.034 4.232-12.422 2.823-2.45 7.122-3.644 12.893-3.644 1.976 0 3.868.182 5.68.555 2.618.54 5.097-1.318 5.097-3.814m28.338 10.485c-.973.647-1.646 1.734-2.04 3.235-.257.967.557 1.902 1.629 1.902h14.343c1.033 0 1.821-.868 1.651-1.815-.292-1.628-.88-2.756-1.792-3.38-1.22-.897-3.4-1.314-6.671-1.314-3.4 0-5.774.476-7.12 1.372m20.205-4c3.014 2.388 4.105 6.57 4.105 13.257 0 .858-.747 1.553-1.668 1.553H191.21c-1.008 0-1.784.832-1.657 1.763.3 2.192 1.1 3.694 2.434 4.507 1.732 1.016 4.748 1.554 9.045 1.554 3.348 0 6.6-.35 9.76-1.05.886-.195 1.775.34 1.977 1.17l.778 3.128c.207.844-.358 1.693-1.266 1.87-4.048.78-8.234 1.152-12.468 1.152-6.22 0-10.968-1.195-14.24-3.644-3.27-2.448-4.939-6.63-4.939-12.54 0-11.646 6.222-15.945 18.345-15.945 6.416 0 10.262.775 13.15 3.225" fill="#000"/><g transform="translate(224.325 13.582)"><mask id="b" fill="#fff"><use xlink:href="#a"/></mask><path d="M6.064.612c1.27 0 2.3.96 2.3 2.14V35.19c0 1.82.529 3.504 1.587 5.07.784 1.157.16 2.692-1.23 3.128l-3.542 1.11c-.877.271-1.868.052-2.456-.611C.937 41.877.024 39.065.024 35.49V2.751c0-1.18 1.028-2.139 2.298-2.139h3.742z" fill="#000" mask="url(#b)"/></g><path d="M251.783 30.089v24.05c0 1.753-1.527 3.173-3.409 3.173h-1.522c-1.882 0-3.408-1.42-3.408-3.174v-24.05c0-1.751 1.526-3.173 3.408-3.173h1.522c1.882 0 3.409 1.422 3.409 3.174m.834-12.191c0 3.404-1.091 4.12-4.94 4.12-3.913 0-5.068-.716-5.068-4.12 0-3.046 1.155-3.644 5.068-3.644 3.849 0 4.94.598 4.94 3.644m5.914 38.186c0-.322.136-.628.38-.857 3.674-3.437 7.585-7.316 11.677-11.53 3.235-3.328 5.818-6.114 7.771-8.33.706-.801.09-2.002-1.021-2.002h-16.14c-.73 0-1.32-.55-1.32-1.229v-3.994c0-.678.59-1.227 1.32-1.227h31.42c.727 0 1.32.55 1.32 1.227v.016c0 .278-.098.543-.283.76-2.834 3.326-6.27 7.1-10.43 11.435-3.182 3.366-5.93 6.16-8.27 8.431-.806.781-.215 2.079.95 2.079h16.138c.727 0 1.315.55 1.315 1.227v3.994c0 .68-.588 1.227-1.315 1.227h-32.196c-.725 0-1.316-.547-1.316-1.227" fill="#000"/><use fill="url(#c)" xlink:href="#d"/><mask id="f" fill="#fff"><use xlink:href="#e"/></mask><path d="M310.423 33.245c-.974.647-1.647 1.734-2.04 3.235-.256.967.557 1.902 1.628 1.902h14.346c1.03 0 1.819-.868 1.649-1.815-.292-1.628-.88-2.756-1.793-3.38-1.22-.897-3.4-1.314-6.668-1.314-3.402 0-5.776.476-7.122 1.372m20.204-4c3.015 2.388 4.106 6.57 4.106 13.257 0 .858-.747 1.553-1.669 1.553h-23.353c-1.01 0-1.784.832-1.66 1.763.3 2.192 1.1 3.694 2.435 4.507 1.731 1.016 4.748 1.554 9.047 1.554 3.345 0 6.6-.35 9.757-1.05.887-.195 1.775.34 1.978 1.17l.777 3.128c.207.844-.357 1.693-1.265 1.87-4.049.78-8.233 1.152-12.469 1.152-6.22 0-10.966-1.195-14.239-3.644-3.269-2.448-4.94-6.63-4.94-12.54 0-11.646 6.225-15.945 18.345-15.945 6.416 0 10.265.775 13.15 3.225" fill="#000" mask="url(#f)"/></g><path d="M10.929 58.019v1.872H8.18v7.86H5.719v-7.86H3v-1.872h7.929zm7.546 3.496c.306-.468.7-.84 1.181-1.115a3.105 3.105 0 0 1 1.567-.413v2.52h-.7c-.65 0-1.153.132-1.51.399-.359.266-.538.715-.538 1.349v3.496h-2.447V60.07h2.447v1.445zm10.882-1.542c.61 0 1.135.134 1.574.4.439.266.763.628.973 1.087v-1.39h2.433v7.681h-2.433v-1.39a2.43 2.43 0 0 1-.973 1.087c-.439.267-.964.4-1.574.4a3.33 3.33 0 0 1-1.768-.475c-.52-.317-.93-.773-1.23-1.37-.301-.597-.452-1.294-.452-2.092 0-.808.15-1.508.451-2.1.3-.592.711-1.046 1.231-1.363a3.33 3.33 0 0 1 1.768-.475zm.787 2.065c-.525 0-.947.166-1.267.496-.32.33-.48.79-.48 1.377s.16 1.046.48 1.376c.32.33.742.496 1.267.496.515 0 .937-.17 1.266-.51.33-.34.494-.793.494-1.362 0-.579-.164-1.035-.494-1.37-.329-.335-.75-.503-1.266-.503zm12.985-2.065c.61 0 1.135.134 1.574.4.44.266.759.628.96 1.087v-3.896h2.447v10.187h-2.448v-1.39c-.2.459-.52.821-.959 1.087-.439.267-.963.4-1.574.4a3.33 3.33 0 0 1-1.768-.475c-.52-.317-.93-.773-1.23-1.37-.301-.597-.451-1.294-.451-2.092 0-.808.15-1.508.45-2.1.301-.592.711-1.046 1.231-1.363a3.33 3.33 0 0 1 1.768-.475zm.787 2.065c-.525 0-.947.166-1.266.496-.32.33-.48.79-.48 1.377s.16 1.046.48 1.376c.32.33.741.496 1.266.496.515 0 .938-.17 1.267-.51.329-.34.494-.793.494-1.362 0-.579-.165-1.035-.494-1.37-.33-.335-.752-.503-1.267-.503zm17.536 1.666c0 .193-.023.404-.071.633h-5.539c.029.578.181.994.458 1.246.277.253.63.379 1.06.379.362 0 .662-.087.9-.262.24-.174.397-.4.473-.674h2.59a3.2 3.2 0 0 1-.686 1.452 3.645 3.645 0 0 1-1.346 1.005 4.404 4.404 0 0 1-1.817.365c-.783 0-1.477-.159-2.083-.475a3.464 3.464 0 0 1-1.424-1.37c-.343-.597-.515-1.294-.515-2.092 0-.808.17-1.508.508-2.1a3.42 3.42 0 0 1 1.424-1.363c.61-.316 1.307-.475 2.09-.475.792 0 1.488.156 2.09.469.6.312 1.066.75 1.395 1.314.329.565.493 1.214.493 1.948zm-2.475-.358c.01-.505-.132-.883-.423-1.136-.29-.252-.65-.378-1.08-.378-.449 0-.82.128-1.117.385-.295.257-.462.634-.5 1.13h3.12zm18.67-4.322c-.4 0-.691.082-.872.247-.182.166-.282.432-.301.799h1.446v1.982h-1.446v5.7h-2.447v-5.7h-.96V60.07h.96v-.083c0-.954.288-1.69.866-2.21.577-.518 1.414-.777 2.511-.777.23 0 .401.005.516.014v2.023l-.272-.013zm8.449.95c.61 0 1.135.133 1.574.399.44.266.763.628.973 1.087v-1.39h2.433v7.681h-2.433v-1.39a2.43 2.43 0 0 1-.973 1.087c-.439.267-.964.4-1.574.4a3.33 3.33 0 0 1-1.768-.475c-.52-.317-.93-.773-1.23-1.37-.301-.597-.451-1.294-.451-2.092 0-.808.15-1.508.45-2.1.301-.592.711-1.046 1.231-1.363a3.33 3.33 0 0 1 1.768-.475zm.787 2.064c-.525 0-.947.166-1.267.496-.32.33-.48.79-.48 1.377s.16 1.046.48 1.376c.32.33.742.496 1.267.496.515 0 .937-.17 1.267-.51.329-.34.493-.793.493-1.362 0-.579-.164-1.035-.493-1.37-.33-.335-.752-.503-1.267-.503zm12.856-2.065c1.012 0 1.82.244 2.426.73.606.486.985 1.129 1.138 1.927h-2.29a1.212 1.212 0 0 0-.45-.736c-.235-.18-.528-.269-.88-.269-.278 0-.488.058-.63.172-.144.115-.215.278-.215.49 0 .238.13.417.393.536.263.12.675.239 1.238.358.61.138 1.112.278 1.503.42.391.142.73.374 1.016.695.286.321.43.753.43 1.294 0 .44-.125.83-.373 1.17-.248.34-.605.606-1.073.799-.468.192-1.02.289-1.66.289-1.078 0-1.942-.23-2.59-.689-.65-.459-1.045-1.115-1.189-1.968h2.362c.038.33.184.583.436.757.253.174.58.261.98.261.277 0 .487-.061.63-.185a.615.615 0 0 0 .215-.489c0-.266-.131-.457-.393-.571-.263-.115-.69-.237-1.281-.365a10.563 10.563 0 0 1-1.46-.386 2.412 2.412 0 0 1-.988-.667c-.276-.308-.415-.728-.415-1.26 0-.688.272-1.246.816-1.672.544-.427 1.312-.64 2.304-.64zm13.63 5.755v2.023h-1.103c-.935 0-1.662-.222-2.182-.667-.52-.445-.78-1.182-.78-2.21v-2.822h-1.074V60.07h1.074v-1.886h2.447v1.886h1.603v1.982h-1.603v2.863c0 .303.065.514.193.634.13.119.346.179.652.179h.772zm13.028-2.024c0 .193-.024.404-.072.633h-5.539c.029.578.181.994.458 1.246.277.253.63.379 1.06.379.362 0 .662-.087.901-.262.238-.174.396-.4.472-.674h2.59a3.2 3.2 0 0 1-.686 1.452 3.645 3.645 0 0 1-1.346 1.005 4.404 4.404 0 0 1-1.817.365c-.783 0-1.477-.159-2.083-.475a3.464 3.464 0 0 1-1.424-1.37c-.343-.597-.515-1.294-.515-2.092 0-.808.17-1.508.508-2.1a3.42 3.42 0 0 1 1.424-1.363c.61-.316 1.307-.475 2.09-.475.792 0 1.488.156 2.09.469.6.312 1.066.75 1.395 1.314.329.565.494 1.214.494 1.948zm-2.476-.358c.01-.505-.132-.883-.423-1.136-.29-.252-.65-.378-1.08-.378-.449 0-.82.128-1.117.385-.295.257-.462.634-.5 1.13h3.12zm10.265-1.83c.306-.469.7-.84 1.181-1.116a3.105 3.105 0 0 1 1.567-.413v2.52h-.701c-.649 0-1.152.132-1.51.399-.358.266-.537.715-.537 1.349v3.496h-2.447V60.07h2.447v1.445zm9.951 3.881v2.354h-2.533v-2.354h2.533zm14.721-7.378v9.732h-2.447V58.02h2.447zm10.824 1.968c.916 0 1.644.294 2.183.881.539.588.809 1.395.809 2.423v4.46h-2.448v-4.185c0-.514-.14-.915-.422-1.204-.281-.29-.656-.434-1.123-.434-.497 0-.89.152-1.181.455-.291.302-.437.734-.437 1.294v4.074h-2.447V60.07h2.447v1.404a2.58 2.58 0 0 1 1.024-1.088c.453-.266.985-.399 1.595-.399zm12.37 5.465l1.732-5.382h2.605l-2.834 7.681h-3.034l-2.834-7.681h2.605l1.76 5.382zm17.007-1.748c0 .193-.024.404-.072.633h-5.538c.028.578.18.994.458 1.246.276.253.63.379 1.059.379.362 0 .663-.087.901-.262.239-.174.396-.4.473-.674h2.59a3.2 3.2 0 0 1-.687 1.452 3.645 3.645 0 0 1-1.345 1.005 4.404 4.404 0 0 1-1.818.365c-.782 0-1.476-.159-2.082-.475a3.464 3.464 0 0 1-1.424-1.37c-.344-.597-.516-1.294-.516-2.092 0-.808.17-1.508.509-2.1a3.42 3.42 0 0 1 1.424-1.363c.61-.316 1.307-.475 2.09-.475.791 0 1.488.156 2.089.469.6.312 1.066.75 1.395 1.314.33.565.494 1.214.494 1.948zm-2.476-.358c.01-.505-.131-.883-.422-1.136-.291-.252-.652-.378-1.08-.378-.45 0-.821.128-1.117.385-.296.257-.463.634-.501 1.13h3.12zm10.724-3.373c1.011 0 1.82.244 2.426.73.605.486.985 1.129 1.137 1.927h-2.29a1.212 1.212 0 0 0-.45-.736c-.234-.18-.528-.269-.88-.269-.277 0-.487.058-.63.172-.143.115-.215.278-.215.49 0 .238.131.417.394.536.262.12.675.239 1.238.358.61.138 1.111.278 1.502.42.392.142.73.374 1.017.695.286.321.429.753.429 1.294 0 .44-.124.83-.372 1.17-.248.34-.606.606-1.074.799-.467.192-1.02.289-1.66.289-1.078 0-1.941-.23-2.59-.689-.65-.459-1.045-1.115-1.188-1.968h2.361c.038.33.184.583.437.757.253.174.58.261.98.261.277 0 .487-.061.63-.185a.615.615 0 0 0 .215-.489c0-.266-.132-.457-.394-.571-.262-.115-.69-.237-1.28-.365a10.563 10.563 0 0 1-1.46-.386 2.412 2.412 0 0 1-.988-.667c-.277-.308-.415-.728-.415-1.26 0-.688.272-1.246.815-1.672.544-.427 1.312-.64 2.305-.64zm13.629 5.755v2.023h-1.102c-.935 0-1.663-.222-2.183-.667-.52-.445-.78-1.182-.78-2.21v-2.822h-1.073V60.07h1.073v-1.886h2.448v1.886h1.603v1.982h-1.603v2.863c0 .303.064.514.193.634.129.119.346.179.651.179h.773zm12.242 1.936v-1.707c1.114.448 2.066.672 2.858.672.555 0 .991-.119 1.31-.356.32-.238.48-.56.48-.968 0-.323-.1-.595-.301-.817-.2-.222-.58-.485-1.14-.79l-.691-.37c-.927-.501-1.582-.982-1.964-1.441a2.44 2.44 0 0 1-.573-1.61c0-.82.313-1.479.94-1.976.627-.498 1.455-.747 2.484-.747.825 0 1.754.115 2.789.343v1.593c-1.058-.38-1.894-.571-2.51-.571-.474 0-.855.102-1.142.306-.286.204-.43.471-.43.803a1 1 0 0 0 .301.72c.2.205.578.459 1.132.759l.74.396c.998.538 1.685 1.033 2.062 1.486.378.453.567 1.004.567 1.653 0 .924-.357 1.647-1.07 2.172-.713.524-1.696.786-2.949.786-.829 0-1.793-.112-2.893-.336zm22.724-7.677c.983 0 1.756.292 2.319.874.563.583.844 1.393.844 2.43v4.46h-2.433v-4.185c0-.486-.136-.865-.408-1.135-.272-.271-.641-.406-1.109-.406-.486 0-.87.144-1.152.433-.281.29-.422.695-.422 1.219v4.074h-2.448v-4.185c0-.486-.133-.865-.4-1.135-.267-.271-.635-.406-1.102-.406-.487 0-.873.142-1.16.426-.286.285-.429.693-.429 1.226v4.074h-2.447V60.07h2.447v1.308c.21-.432.532-.771.966-1.02.434-.247.942-.37 1.524-.37.611 0 1.15.135 1.618.405.467.271.82.659 1.059 1.164a3.133 3.133 0 0 1 1.138-1.143 3.08 3.08 0 0 1 1.595-.427zm11.898-.014c.61 0 1.135.134 1.574.4.439.266.763.628.973 1.087v-1.39h2.433v7.681h-2.433v-1.39a2.43 2.43 0 0 1-.973 1.087c-.439.267-.964.4-1.574.4a3.33 3.33 0 0 1-1.768-.475c-.52-.317-.93-.773-1.23-1.37-.301-.597-.451-1.294-.451-2.092 0-.808.15-1.508.45-2.1.3-.592.711-1.046 1.231-1.363a3.33 3.33 0 0 1 1.768-.475zm.787 2.065c-.525 0-.947.166-1.267.496-.32.33-.48.79-.48 1.377s.16 1.046.48 1.376c.32.33.742.496 1.267.496.515 0 .937-.17 1.267-.51.329-.34.493-.793.493-1.362 0-.579-.164-1.035-.493-1.37-.33-.335-.752-.503-1.267-.503zm12.398-.523c.306-.468.7-.84 1.181-1.115a3.105 3.105 0 0 1 1.567-.413v2.52h-.701c-.649 0-1.152.132-1.51.399-.358.266-.537.715-.537 1.349v3.496h-2.447V60.07h2.447v1.445zm12.37 4.213v2.023h-1.102c-.935 0-1.663-.222-2.183-.667-.52-.445-.78-1.182-.78-2.21v-2.822h-1.073V60.07h1.073v-1.886h2.448v1.886h1.603v1.982h-1.603v2.863c0 .303.064.514.193.634.129.119.346.179.651.179h.773zm13.028-2.024c0 .193-.024.404-.072.633h-5.538c.028.578.181.994.458 1.246.276.253.63.379 1.059.379.362 0 .663-.087.901-.262.239-.174.396-.4.473-.674h2.59a3.2 3.2 0 0 1-.687 1.452 3.645 3.645 0 0 1-1.345 1.005 4.404 4.404 0 0 1-1.818.365c-.782 0-1.476-.159-2.082-.475a3.464 3.464 0 0 1-1.424-1.37c-.344-.597-.515-1.294-.515-2.092 0-.808.169-1.508.508-2.1a3.42 3.42 0 0 1 1.424-1.363c.61-.316 1.307-.475 2.09-.475.791 0 1.488.156 2.089.469.6.312 1.066.75 1.395 1.314.33.565.494 1.214.494 1.948zm-2.476-.358c.01-.505-.131-.883-.422-1.136-.291-.252-.651-.378-1.08-.378-.45 0-.821.128-1.117.385-.296.257-.463.634-.501 1.13h3.12zm10.266-1.83c.305-.469.699-.84 1.18-1.116a3.105 3.105 0 0 1 1.568-.413v2.52h-.702c-.648 0-1.152.132-1.51.399-.357.266-.536.715-.536 1.349v3.496h-2.447V60.07h2.447v1.445zm3.584 6.235v-2.157H320v2.157h-2.243z" fill="#000"/></g></svg>