<svg xmlns="http://www.w3.org/2000/svg" xmlns:xlink="http://www.w3.org/1999/xlink" width="153" height="39" viewBox="0 0 153 39"><defs><path id="xy3wa" d="M165.126 29.47c-.662 0-1.277.314-1.623.828l-7.85 11.652c-.479.711-.339 1.632.334 2.196.885.74 2.246.592 2.897-.295l4.79-6.535c.759-1.034 2.424-1.028 3.175.009l4.677 6.464c.658.909 2.055 1.05 2.913.295.644-.566.77-1.467.303-2.164l-7.807-11.62c-.346-.516-.962-.83-1.624-.83z"/><path id="xy3wc" d="M131.918 37.524c-.875 0-1.583.647-1.583 1.446v4.673c0 .982.215 1.627.646 1.993.46.337 1.383.506 2.797.506.612 0 1.188-.029 1.72-.084.838-.089 1.602.436 1.74 1.196.148.804-.432 1.562-1.295 1.682a24.39 24.39 0 0 1-3.395.236c-2.213 0-3.81-.365-4.764-1.066-.954-.73-1.445-2.105-1.445-4.127V38.97c0-.799-.709-1.446-1.583-1.446h-.153c-.874 0-1.583-.647-1.583-1.446v-.14c0-.798.709-1.445 1.583-1.445h.153c.874 0 1.583-.648 1.583-1.446 0-.627.443-1.183 1.097-1.376l.83-.244c1.173-.194 2.069.394 2.069 1.375v.245c0 .798.708 1.446 1.583 1.446h3.442c.875 0 1.583.647 1.583 1.445v.14c0 .8-.708 1.446-1.583 1.446z"/><path id="xy3wd" d="M151.9 34.547v2.418c0 .261-.242.465-.527.442-.468-.04-1-.054-1.595-.054-2.401 0-4.481.43-4.92 1.181a.477.477 0 0 0-.045.112 4.577 4.577 0 0 0-.137 1.177v8.51c0 .245-.218.444-.487.444h-3.022c-.269 0-.487-.199-.487-.445V34.935c0-.246.218-.445.487-.445h3.022c.269 0 .487.2.487.445 0 .375.468.572.793.344 1.145-.802 2.755-1.209 4.831-1.209.36 0 .733.014 1.135.033.26.012.464.207.464.444"/><path id="xy3we" d="M193.06 32.536v-2.188c0-1.015.9-1.838 2.013-1.838 1.112 0 2.013.823 2.013 1.838v16.45c0 .86-.649 1.61-1.568 1.795-1.926.387-4.164.575-6.7.575-3.227 0-5.563-.534-7.007-1.628-1.414-1.095-2.121-3.088-2.121-5.922 0-2.779.676-4.716 2.028-5.838 1.352-1.152 3.412-1.713 6.178-1.713.947 0 1.854.086 2.722.261 1.254.254 2.442-.62 2.442-1.792m-1.753 13.578c1.006-.114 1.755-.901 1.755-1.826v-5.842c0-.814-1.845-1.376-4.305-1.376-2 0-3.321.309-3.968.927-.645.617-.983 1.825-.983 3.621 0 1.936.307 3.172.953 3.76.646.59 1.999.87 4.06.87a22.1 22.1 0 0 0 2.488-.134"/><path id="xy3wf" d="M216.322 35.585c1.444 1.123 1.967 3.088 1.967 6.231 0 .403-.358.73-.8.73h-11.191c-.483 0-.855.391-.794.828.144 1.03.527 1.737 1.166 2.12.83.477 2.276.73 4.335.73 1.604 0 3.162-.165 4.676-.495.425-.091.85.16.948.55l.372 1.47c.1.397-.17.797-.606.88-1.94.367-3.946.54-5.975.54-2.98 0-5.255-.56-6.823-1.712-1.568-1.15-2.367-3.115-2.367-5.893 0-5.474 2.982-7.494 8.79-7.494 3.075 0 4.918.364 6.302 1.515m-9.682 1.88c-.466.305-.789.816-.978 1.52-.123.455.268.895.781.895h6.873c.495 0 .873-.408.791-.853-.14-.766-.421-1.295-.858-1.589-.585-.421-1.63-.618-3.197-.618-1.63 0-2.767.224-3.412.646"/><path id="xy3wg" d="M225.064 28.51c.608 0 1.102.45 1.102 1.005v15.246c0 .856.254 1.647.76 2.383.377.544.077 1.265-.589 1.47l-1.697.522c-.42.127-.895.024-1.177-.287-.856-.945-1.293-2.267-1.293-3.947V29.515c0-.554.493-1.005 1.101-1.005z"/><path id="xy3wh" d="M235.716 30.253c0 1.6-.523 1.936-2.367 1.936-1.876 0-2.429-.336-2.429-1.936 0-1.432.553-1.713 2.429-1.713 1.844 0 2.367.281 2.367 1.713m-.4 5.73v11.302c0 .825-.732 1.492-1.633 1.492h-.73c-.902 0-1.633-.667-1.633-1.492V35.982c0-.823.731-1.491 1.633-1.491h.73c.901 0 1.633.668 1.633 1.491"/><path id="xy3wi" d="M238.55 48.2c0-.152.065-.296.182-.404a164.476 164.476 0 0 0 5.596-5.419 113.46 113.46 0 0 0 3.723-3.915c.338-.376.043-.94-.49-.94h-7.734c-.35 0-.632-.259-.632-.578v-1.877c0-.319.283-.577.632-.577h15.057c.349 0 .632.258.632.577v.007a.54.54 0 0 1-.135.358c-1.358 1.563-3.005 3.336-4.998 5.374a132.688 132.688 0 0 1-3.963 3.962c-.386.367-.103.977.455.977h7.733c.35 0 .63.259.63.577v1.877c0 .32-.28.577-.63.577H239.18c-.347 0-.63-.257-.63-.577"/><path id="xy3wb" d="M258.01 34.07h17.06v15.1h-17.06z"/><path id="xy3wn" d="M273.102 35.585c1.444 1.123 1.967 3.088 1.967 6.231 0 .403-.358.73-.8.73h-11.19c-.484 0-.855.391-.795.828.144 1.03.527 1.737 1.166 2.12.83.477 2.276.73 4.336.73 1.603 0 3.162-.165 4.675-.495.425-.091.85.16.948.55l.372 1.47c.1.397-.17.797-.606.88-1.94.367-3.945.54-5.975.54-2.98 0-5.254-.56-6.823-1.712-1.567-1.15-2.367-3.115-2.367-5.893 0-5.474 2.983-7.494 8.79-7.494 3.075 0 4.92.364 6.302 1.515m-9.682 1.88c-.466.305-.789.816-.978 1.52-.122.455.268.895.781.895h6.874c.494 0 .872-.408.79-.853-.14-.766-.421-1.295-.858-1.589-.585-.421-1.63-.618-3.196-.618-1.63 0-2.768.224-3.413.646"/><path id="xy3wo" d="M276 62.932v1.002h-1.084v-1.002zm-3.98-3.104c.178-.356.438-.631.78-.828.341-.196.749-.295 1.222-.295v.926h-.276c-.506 0-.92.124-1.242.37-.322.246-.483.653-.483 1.22v2.703h-.898V58.79h.898zm-3.397 1.305c.02-.382-.046-.7-.198-.956a1.414 1.414 0 0 0-.623-.572 1.983 1.983 0 0 0-.86-.187c-.494 0-.91.145-1.246.435-.336.29-.517.717-.543 1.28zm.897-.057c0 .181-.013.338-.04.469h-4.327c.02.587.195 1.028.527 1.321.332.294.738.44 1.218.44.433 0 .797-.104 1.089-.313a1.29 1.29 0 0 0 .537-.84h.957a2.109 2.109 0 0 1-.44.957c-.226.28-.52.5-.881.656a3.053 3.053 0 0 1-1.223.234c-.52 0-.98-.106-1.38-.319a2.31 2.31 0 0 1-.942-.913c-.226-.397-.34-.864-.34-1.401s.114-1.006.34-1.406c.227-.4.54-.706.942-.918.4-.213.86-.319 1.38-.319.526 0 .984.106 1.375.319.391.212.69.496.898.853.207.356.31.75.31 1.18zm-6.503 2.1v.748h-.67c-.553 0-.965-.124-1.238-.374s-.409-.667-.409-1.254v-2.769h-.808v-.74h.808v-1.281h.907v1.282h1.4v.739h-1.4v2.788c0 .33.064.557.192.678.128.122.35.183.666.183zm-5.902-3.348c.177-.356.437-.631.779-.828.342-.196.75-.295 1.222-.295v.926h-.276c-.506 0-.92.124-1.242.37-.322.246-.483.653-.483 1.22v2.703h-.897V58.79h.897zm-5.498-.345c-.552 0-.994.167-1.326.502-.332.334-.498.795-.498 1.382 0 .587.166 1.048.498 1.382.332.334.774.501 1.326.501.355 0 .672-.078.952-.234.28-.156.498-.376.655-.66.158-.285.237-.614.237-.99a2.03 2.03 0 0 0-.237-.993 1.63 1.63 0 0 0-.655-.66 1.947 1.947 0 0 0-.952-.23zm-.256-.759c.526 0 .971.125 1.336.375.365.25.62.584.764 1.003V58.79h.897v5.144h-.897v-1.312c-.145.42-.4.753-.764 1.003-.365.25-.81.375-1.336.375-.48 0-.907-.106-1.282-.319a2.25 2.25 0 0 1-.882-.913c-.214-.397-.32-.864-.32-1.401s.106-1.006.32-1.406c.214-.4.508-.706.882-.918a2.553 2.553 0 0 1 1.282-.319zm-6.138-.018c.63 0 1.138.191 1.523.575.384.383.577.937.577 1.66v2.983h-.898v-2.908c0-.505-.13-.892-.39-1.16-.259-.268-.615-.402-1.069-.402-.473 0-.853.148-1.138.444-.286.296-.43.731-.43 1.305v2.721h-.896v-2.908c0-.505-.132-.892-.395-1.16-.263-.268-.618-.402-1.065-.402-.48 0-.862.148-1.148.444-.286.296-.429.731-.429 1.305v2.721h-.897V58.79h.897v1.169c.131-.406.366-.716.705-.93a2.13 2.13 0 0 1 1.168-.324c.46 0 .86.111 1.198.333.339.22.58.547.725.977.15-.418.404-.74.759-.968a2.18 2.18 0 0 1 1.203-.342zm-8.288 3.514c0 .312-.079.602-.237.871a1.744 1.744 0 0 1-.72.656c-.321.169-.72.253-1.192.253-.46 0-.87-.08-1.228-.239a2.166 2.166 0 0 1-.857-.656 1.801 1.801 0 0 1-.37-.951h.956c.02.187.087.37.202.548.115.178.28.325.493.44.214.116.472.174.774.174.394 0 .697-.1.907-.3.21-.2.316-.456.316-.768 0-.269-.074-.488-.222-.656a1.565 1.565 0 0 0-.547-.399 7.684 7.684 0 0 0-.888-.313 9.261 9.261 0 0 1-1.06-.39 1.79 1.79 0 0 1-.68-.548c-.187-.243-.28-.565-.28-.965 0-.343.086-.646.26-.909.175-.262.424-.465.75-.609.325-.144.708-.215 1.148-.215.684 0 1.226.157 1.627.473.401.315.634.717.7 1.204h-.966a1.23 1.23 0 0 0-.424-.693c-.23-.2-.542-.3-.937-.3-.361 0-.65.089-.867.267-.217.178-.326.43-.326.754 0 .256.071.464.212.623.142.16.318.285.528.375.21.09.5.192.867.305.447.137.807.268 1.08.393s.504.314.695.567c.19.253.286.589.286 1.008zm-8.787.956v.748h-.67c-.552 0-.965-.124-1.238-.374-.272-.25-.409-.667-.409-1.254v-2.769h-.808v-.74h.808v-1.281h.907v1.282h1.4v.739h-1.4v2.788c0 .33.064.557.192.678.129.122.35.183.666.183zm-6.414-4.452c.61 0 1.102.152 1.473.455.372.303.597.71.676 1.223h-.858a1.161 1.161 0 0 0-.4-.755c-.226-.197-.53-.295-.911-.295-.322 0-.574.073-.754.22a.726.726 0 0 0-.272.595c0 .188.061.34.183.455.121.115.273.203.453.262.181.06.43.124.745.192.4.088.724.177.97.267.247.091.458.236.632.436s.261.469.261.806c0 .419-.166.759-.498 1.021-.332.263-.774.394-1.326.394-.644 0-1.17-.147-1.577-.44-.408-.294-.648-.703-.72-1.228h.868c.032.312.175.565.428.759.254.194.587.29 1.001.29.31 0 .55-.074.725-.224a.741.741 0 0 0 .261-.59c0-.2-.062-.36-.187-.479a1.24 1.24 0 0 0-.464-.271 7.057 7.057 0 0 0-.759-.197 7.706 7.706 0 0 1-.961-.263 1.473 1.473 0 0 1-.611-.417c-.168-.19-.252-.448-.252-.773 0-.43.168-.779.503-1.045.335-.265.792-.398 1.37-.398zm-4.207 2.409c.02-.382-.046-.7-.197-.956a1.412 1.412 0 0 0-.62-.572 1.972 1.972 0 0 0-.859-.187c-.493 0-.907.145-1.242.435-.335.29-.516.717-.542 1.28zm.907-.057c0 .181-.013.338-.039.469h-4.328c.02.587.195 1.028.527 1.321.332.294.738.44 1.218.44.434 0 .797-.104 1.09-.313a1.29 1.29 0 0 0 .537-.84h.956a2.109 2.109 0 0 1-.439.957c-.227.28-.52.5-.882.656a3.053 3.053 0 0 1-1.223.234c-.519 0-.979-.106-1.38-.319a2.31 2.31 0 0 1-.941-.913c-.227-.397-.34-.864-.34-1.401s.113-1.006.34-1.406c.226-.4.54-.706.941-.918.401-.213.861-.319 1.38-.319.526 0 .985.106 1.376.319.39.212.69.496.897.853.207.356.31.75.31 1.18zm-8.923 1.95l1.68-4.236h.967l-2.124 5.144h-1.066l-2.124-5.144h.968zm-6.025-4.32c.63 0 1.14.191 1.528.575.388.383.582.937.582 1.66v2.983h-.898v-2.908c0-.512-.138-.904-.414-1.179-.276-.274-.65-.411-1.124-.411-.493 0-.887.15-1.183.453-.295.303-.443.744-.443 1.324v2.721h-.897V58.79h.897v1.216c.138-.418.383-.74.734-.964a2.213 2.213 0 0 1 1.218-.336zm-4.719-1.378v6.596h-.897v-6.596zm-5.208 5.604v1.002h-1.094v-1.002zm-3.99-3.104c.178-.356.438-.631.78-.828.341-.196.749-.295 1.222-.295v.926h-.276c-.506 0-.92.124-1.242.37-.322.246-.483.653-.483 1.22v2.703h-.898V58.79h.898zm-3.397 1.305c.02-.382-.046-.7-.198-.956a1.414 1.414 0 0 0-.623-.572 1.983 1.983 0 0 0-.86-.187c-.494 0-.91.145-1.246.435-.336.29-.517.717-.543 1.28zm.907-.057c0 .181-.013.338-.04.469h-4.336c.02.587.196 1.028.529 1.321.332.294.739.44 1.22.44.434 0 .798-.104 1.091-.313a1.29 1.29 0 0 0 .538-.84h.959a2.107 2.107 0 0 1-.44.957c-.227.28-.522.5-.884.656-.362.156-.77.234-1.225.234-.52 0-.981-.106-1.383-.319a2.313 2.313 0 0 1-.943-.913c-.227-.397-.34-.864-.34-1.401s.113-1.006.34-1.406c.227-.4.542-.706.943-.918.402-.213.863-.319 1.383-.319.527 0 .986.106 1.378.319.392.212.691.496.899.853.207.356.311.75.311 1.18zm-6.513 2.1v.748h-.67c-.553 0-.965-.124-1.238-.374s-.409-.667-.409-1.254v-2.769h-.808v-.74h.808v-1.281h.907v1.282h1.4v.739h-1.4v2.788c0 .33.064.557.192.678.128.122.35.183.666.183zm-6.415-4.452c.612 0 1.103.152 1.474.455.372.303.597.71.676 1.223h-.858a1.161 1.161 0 0 0-.4-.755c-.226-.197-.53-.295-.911-.295-.322 0-.574.073-.755.22a.726.726 0 0 0-.27.595c0 .188.06.34.182.455.121.115.272.203.453.262.18.06.429.124.745.192.4.088.724.177.97.267.247.091.457.236.632.436.174.2.26.469.26.806 0 .419-.165.759-.497 1.021-.332.263-.774.394-1.326.394-.644 0-1.17-.147-1.577-.44-.408-.294-.648-.703-.72-1.228h.867c.033.312.176.565.43.759.252.194.586.29 1 .29.309 0 .55-.074.725-.224a.741.741 0 0 0 .26-.59c0-.2-.062-.36-.186-.479a1.24 1.24 0 0 0-.464-.271 7.057 7.057 0 0 0-.759-.197 7.706 7.706 0 0 1-.961-.263 1.473 1.473 0 0 1-.611-.417c-.168-.19-.252-.448-.252-.773 0-.43.168-.779.503-1.045.335-.265.792-.398 1.37-.398zm-6.296.76c-.552 0-.994.166-1.326.5-.332.335-.498.796-.498 1.383s.166 1.048.498 1.382c.332.334.774.501 1.326.501.355 0 .672-.078.952-.234.279-.156.497-.376.655-.66.158-.285.237-.614.237-.99a2.03 2.03 0 0 0-.237-.993 1.63 1.63 0 0 0-.655-.66 1.947 1.947 0 0 0-.952-.23zm-.252-.76c.527 0 .973.125 1.339.375.365.25.62.584.765 1.003V58.79h.899v5.144h-.899v-1.312c-.145.42-.4.753-.765 1.003-.366.25-.812.375-1.339.375-.48 0-.908-.106-1.284-.319a2.253 2.253 0 0 1-.884-.913c-.214-.397-.32-.864-.32-1.401s.106-1.006.32-1.406c.214-.4.509-.706.884-.918a2.561 2.561 0 0 1 1.284-.319zm-3.707-1.396v.692h-3.045v2.283h2.58v.665h-2.58v2.956h-.899v-6.596zm-9.32 3.805c.02-.382-.046-.7-.197-.956a1.412 1.412 0 0 0-.621-.572 1.972 1.972 0 0 0-.858-.187c-.493 0-.907.145-1.242.435-.335.29-.516.717-.542 1.28zm.907-.057c0 .181-.013.338-.04.469h-4.327c.02.587.195 1.028.527 1.321.332.294.738.44 1.218.44.434 0 .797-.104 1.09-.313a1.29 1.29 0 0 0 .536-.84h.957a2.109 2.109 0 0 1-.439.957c-.227.28-.52.5-.882.656A3.053 3.053 0 0 1 152.9 64c-.519 0-.98-.106-1.38-.319a2.31 2.31 0 0 1-.942-.913c-.226-.397-.34-.864-.34-1.401s.114-1.006.34-1.406c.227-.4.541-.706.942-.918.4-.213.861-.319 1.38-.319.526 0 .984.106 1.376.319.39.212.69.496.897.853.207.356.31.75.31 1.18zm-9.579-1.593c-.552 0-.994.167-1.326.502-.332.334-.498.795-.498 1.382 0 .587.166 1.048.498 1.382.332.334.774.501 1.326.501.355 0 .672-.078.951-.234.28-.156.498-.376.656-.66.158-.285.237-.614.237-.99a2.03 2.03 0 0 0-.237-.993 1.63 1.63 0 0 0-.656-.66 1.947 1.947 0 0 0-.951-.23zm-.256-.759c.526 0 .97.125 1.336.375.364.25.619.584.764 1.003V57h.897v6.934h-.897v-1.312c-.145.42-.4.753-.764 1.003-.365.25-.81.375-1.336.375-.48 0-.907-.106-1.282-.319a2.25 2.25 0 0 1-.882-.913c-.214-.397-.32-.864-.32-1.401s.106-1.006.32-1.406c.213-.4.507-.706.882-.918a2.553 2.553 0 0 1 1.282-.319zm-6.824.76c-.55 0-.991.166-1.322.5-.331.335-.497.796-.497 1.383s.166 1.048.497 1.382c.33.334.771.501 1.322.501.354 0 .67-.078.949-.234.278-.156.496-.376.654-.66.157-.285.236-.614.236-.99 0-.374-.079-.705-.236-.993a1.628 1.628 0 0 0-.654-.66 1.937 1.937 0 0 0-.949-.23zm-.251-.76c.525 0 .97.125 1.336.375.364.25.619.584.764 1.003V58.79h.897v5.144h-.897v-1.312c-.145.42-.4.753-.764 1.003-.365.25-.81.375-1.336.375-.48 0-.907-.106-1.282-.319a2.25 2.25 0 0 1-.882-.913c-.214-.397-.32-.864-.32-1.401s.106-1.006.32-1.406c.213-.4.507-.706.882-.918a2.553 2.553 0 0 1 1.282-.319zm-5.537 1.104c.177-.356.437-.631.778-.828.342-.196.75-.295 1.223-.295v.926h-.276c-.506 0-.92.124-1.242.37-.322.246-.483.653-.483 1.22v2.703h-.898V58.79h.898zm-2.215-2.5v.692h-1.962v5.904h-.897V58.02H126v-.692z"/><mask id="xy3wk" width="2" height="2" x="-1" y="-1"><path fill="#fff" d="M155 29h20v16h-20z"/><use xlink:href="#xy3wa"/></mask><filter id="xy3wj" width="56" height="54" x="137" y="11" filterUnits="userSpaceOnUse"><feOffset dy="2" in="SourceGraphic" result="FeOffset1068Out"/><feGaussianBlur in="FeOffset1068Out" result="FeGaussianBlur1069Out" stdDeviation="3.2 3.2"/></filter><linearGradient id="xy3wl" x1="165.19" x2="166.52" y1="29.47" y2="44.62" gradientUnits="userSpaceOnUse"><stop offset="0" stop-color="#69f3da"/><stop offset="1" stop-color="#50c1f5"/></linearGradient><clipPath id="xy3wm"><use xlink:href="#xy3wb"/></clipPath></defs><g><g transform="translate(-123 -25)"><g><g><use fill="#fff" xlink:href="#xy3wc"/></g><g><use fill="#fff" xlink:href="#xy3wd"/></g><g><use fill="#fff" xlink:href="#xy3we"/></g><g><use fill="#fff" xlink:href="#xy3wf"/></g><g><g><g><use fill="#fff" xlink:href="#xy3wg"/></g></g></g><g><use fill="#fff" xlink:href="#xy3wh"/></g><g><use fill="#fff" xlink:href="#xy3wi"/></g><g><g><g filter="url(#xy3wj)"><use fill="none" stroke-opacity=".47" stroke-width="0" mask="url(&quot;#xy3wk&quot;)" xlink:href="#xy3wa"/><use fill="#008dff" fill-opacity=".47" xlink:href="#xy3wa"/></g><use fill="url(#xy3wl)" xlink:href="#xy3wa"/></g></g><g><g/><g clip-path="url(#xy3wm)"><use fill="#fff" xlink:href="#xy3wn"/></g></g></g><g><use fill="#fff" xlink:href="#xy3wo"/></g></g></g></svg>