<svg xmlns="http://www.w3.org/2000/svg" xmlns:xlink="http://www.w3.org/1999/xlink" width="56" height="52" viewBox="0 0 56 52"><defs><path id="b" d="M729.5 1670c-7.444 0-13.5-6.056-13.5-13.5s6.056-13.5 13.5-13.5c2.21 0 4.405.549 6.346 1.587a1.087 1.087 0 0 1-1.025 1.918 11.323 11.323 0 0 0-5.321-1.33c-6.245 0-11.325 5.08-11.325 11.325 0 6.245 5.08 11.325 11.325 11.325 6.245 0 11.325-5.08 11.325-11.325a11.3 11.3 0 0 0-.436-3.118 1.087 1.087 0 0 1 2.09-.6c.346 1.204.521 2.455.521 3.718 0 7.444-6.056 13.5-13.5 13.5z"/><path id="d" d="M740 1650a1.003 1.003 0 0 1-.707-1.708.931.931 0 0 1 .152-.123.946.946 0 0 1 .36-.15.998.998 0 0 1 1.118 1.363.991.991 0 0 1-.728.598.994.994 0 0 1-.195.02z"/><path id="f" d="M730.427 1661.941h-3.431v-4.31h3.431c1.23 0 2.231.967 2.231 2.155 0 1.189-1 2.155-2.23 2.155zm-3.431-6.573v-4.31h3.431c1.23 0 2.232.967 2.232 2.155 0 1.189-1.001 2.155-2.232 2.155zm8.004-2.155c0-.889-.274-1.747-.791-2.48-.78-1.106-2.1-1.815-3.526-1.898l-.367-.027v-.65c0-.62-.49-1.128-1.115-1.157a1.186 1.186 0 0 0-.864.312 1.102 1.102 0 0 0-.363.818v.665h-2.772c-.644 0-1.17.473-1.2 1.076-.023.456.235.872.652 1.07v11.117a1.121 1.121 0 0 0-.653 1.069c.03.603.557 1.076 1.2 1.076h2.773v.638a1.16 1.16 0 0 0 1.172 1.158c.302 0 .587-.11.807-.312.234-.216.363-.507.363-.819v-.677l.364-.027c1.43-.083 2.748-.792 3.529-1.898a4.283 4.283 0 0 0 .791-2.48c0-1.26-.551-2.448-1.52-3.287a4.337 4.337 0 0 0 1.52-3.287z"/><path id="h" d="M729.728 1672.82c-8.87 0-16.085-7.191-16.085-16.03 0-8.84 7.216-16.032 16.085-16.032s16.085 7.192 16.085 16.031c0 8.84-7.216 16.03-16.085 16.03zm-35.54 0v-3.61h22.18a18.368 18.368 0 0 0 4.687 3.61zm0-27.728h4.447v4.575h-4.447zm6.635-3.194h4.4v7.759h-4.4zm3.9-7.63l5.278-8.164 5.277 8.163h-1.595c-.605 0-1.095.488-1.095 1.09v14.31h-5.174v-14.31c0-.602-.49-1.09-1.095-1.09zm4.999 29.15h2.993a18.156 18.156 0 0 0 1.92 3.611h-4.913zm-7.923 0h5.735v3.611H701.8zm-7.611 0h5.424v3.611h-5.425zm5.424-11.58v3.61h-5.425v-3.61zm11.893 3.61h-1.783v-3.61h2.42a18.016 18.016 0 0 0-.637 3.61zm-17.317 5.79v-3.61h17.287c.057 1.24.238 2.447.533 3.61zm13.346-9.4v3.61H701.8v-3.61zm7.234-5.495v-9.9h2.505a1.087 1.087 0 1 0 .92-1.68l-7.278-11.263a1.094 1.094 0 0 0-1.839 0l-7.277 11.264a1.086 1.086 0 0 0-.04 1.112c.191.35.56.568.96.568h2.505v3.274h-5.495c-.604 0-1.094.488-1.094 1.09v2.104h-5.541c-.604 0-1.094.489-1.094 1.09v29.908c0 .602.49 1.09 1.094 1.09h36.634c10.075 0 18.272-8.17 18.272-18.21 0-10.042-8.197-18.212-18.272-18.212-6.179 0-11.651 3.073-14.96 7.765z"/><linearGradient id="a" x1="716" x2="743.54" y1="1643" y2="1670.27" gradientUnits="userSpaceOnUse"><stop offset="0" stop-color="#51e4d0"/><stop offset="1" stop-color="#47c0e0"/></linearGradient><linearGradient id="c" x1="739" x2="741.04" y1="1648" y2="1650.02" gradientUnits="userSpaceOnUse"><stop offset="0" stop-color="#51e4d0"/><stop offset="1" stop-color="#47c0e0"/></linearGradient><linearGradient id="e" x1="724" x2="735.22" y1="1647" y2="1666.19" gradientUnits="userSpaceOnUse"><stop offset="0" stop-color="#51e4d0"/><stop offset="1" stop-color="#47c0e0"/></linearGradient><linearGradient id="g" x1="692" x2="749.12" y1="1623" y2="1675.52" gradientUnits="userSpaceOnUse"><stop offset="0" stop-color="#51e4d0"/><stop offset="1" stop-color="#47c0e0"/></linearGradient></defs><use fill="url(#a)" xlink:href="#b" transform="translate(-692 -1623)"/><use fill="url(#c)" xlink:href="#d" transform="translate(-692 -1623)"/><use fill="url(#e)" xlink:href="#f" transform="translate(-692 -1623)"/><use fill="url(#g)" xlink:href="#h" transform="translate(-692 -1623)"/></svg>