<svg xmlns="http://www.w3.org/2000/svg" xmlns:xlink="http://www.w3.org/1999/xlink" width="55" height="55" viewBox="0 0 55 55"><defs><path id="3m2za" d="M721.654 973.32a.929.929 0 0 0-.242.804l.38 2.125-1.786-.947a.925.925 0 0 0-.894.015l-1.757 1 .319-2.131a.93.93 0 0 0-.266-.797l-1.538-1.522 2.054-.345a.928.928 0 0 0 .69-.533l.856-1.884.908 1.854a.93.93 0 0 0 .71.513l2.059.28zm4.293-2.552a.928.928 0 0 0-.75-.613l-3.368-.457-1.557-3.178a.95.95 0 0 0-.847-.52.928.928 0 0 0-.832.545l-1.464 3.227-3.355.564a.929.929 0 0 0-.498 1.576l2.491 2.466-.53 3.557a.928.928 0 0 0 1.378.943l2.973-1.696 3.02 1.6a.928.928 0 0 0 1.349-.983l-.634-3.539 2.421-2.544a.927.927 0 0 0 .203-.948z"/><path id="3m2zc" d="M745.167 1015.167h-15.584v-10.407a4.55 4.55 0 0 0-.328-1.687c1.162-1.592 4.022-2.573 7.662-2.573 3.973 0 8.25 1.333 8.25 4.26zm-12.834-21.084a4.583 4.583 0 1 1 9.167 0 4.583 4.583 0 0 1-9.167 0zm-4.583 21.084h-16.5v-10.407c0-2.927 4.276-4.26 8.25-4.26s8.25 1.333 8.25 4.26zm-12.833-21.084a4.58 4.58 0 0 1 4.578-4.583 4.58 4.58 0 0 1 4.578 4.583 4.58 4.58 0 0 1-4.578 4.584 4.586 4.586 0 0 1-4.578-4.584zm-5.5 10.677v10.407h-15.584v-10.407c0-2.927 4.277-4.26 8.25-4.26 3.64 0 6.5.981 7.662 2.573a4.55 4.55 0 0 0-.328 1.687zM697.5 994.083a4.583 4.583 0 1 1 9.167 0 4.583 4.583 0 0 1-9.167 0zm43.427 5.001a6.405 6.405 0 0 0-3.094-11.344v-7.407H736v7.407a6.405 6.405 0 0 0-3.099 11.34 9.198 9.198 0 0 0-4.7 2.38 9.238 9.238 0 0 0-4.691-2.375 6.417 6.417 0 1 0-8.02 0 9.24 9.24 0 0 0-4.69 2.374 9.2 9.2 0 0 0-4.702-2.378A6.405 6.405 0 0 0 703 987.74V973h-1.833v14.74a6.405 6.405 0 0 0-3.094 11.344c-3.746.845-6.073 2.917-6.073 5.676v11.323c0 .506.41.917.916.917h53.167c.506 0 .917-.41.917-.916v-11.324c0-2.76-2.327-4.831-6.073-5.676z"/><path id="3m2ze" d="M737.076 962H701.925a.926.926 0 0 0-.925.928v4.643h1.85v-3.714h33.3V975H738v-12.071a.926.926 0 0 0-.924-.929z"/><path id="3m2zg" d="M727 968v-2h2v2z"/><path id="3m2zi" d="M727 971v-2h2v2z"/><path id="3m2zk" d="M727 975v-2h2v2z"/><path id="3m2zm" d="M727 979v-2h2v2z"/><path id="3m2zo" d="M710 968v-2h2v2z"/><path id="3m2zq" d="M710 971v-2h2v2z"/><path id="3m2zs" d="M710 975v-2h2v2z"/><path id="3m2zu" d="M710 979v-2h2v2z"/><path id="3m2zw" d="M727 982v-2h2v2z"/><path id="3m2zy" d="M732 968v-2h2v2z"/><path id="3m2zA" d="M732 971v-2h2v2z"/><path id="3m2zC" d="M732 975v-2h2v2z"/><path id="3m2zE" d="M732 979v-2h2v2z"/><path id="3m2zG" d="M732 982v-2h2v2z"/><path id="3m2zI" d="M724 982v-2h2v2z"/><path id="3m2zK" d="M720 982v-2h2v2z"/><path id="3m2zM" d="M717 982v-2h2v2z"/><path id="3m2zO" d="M713 982v-2h2v2z"/><path id="3m2zQ" d="M710 982v-2h2v2z"/><path id="3m2zS" d="M705 968v-2h2v2z"/><path id="3m2zU" d="M705 971v-2h2v2z"/><path id="3m2zW" d="M705 975v-2h2v2z"/><path id="3m2zY" d="M705 979v-2h2v2z"/><path id="3m2zaa" d="M705 982v-2h2v2z"/><path id="3m2zac" d="M727 986v-2h2v2z"/><path id="3m2zae" d="M732 986v-2h2v2z"/><path id="3m2zag" d="M724 986v-2h2v2z"/><path id="3m2zai" d="M720 986v-2h2v2z"/><path id="3m2zak" d="M717 986v-2h2v2z"/><path id="3m2zam" d="M713 986v-2h2v2z"/><path id="3m2zao" d="M710 986v-2h2v2z"/><path id="3m2zaq" d="M705 986v-2h2v2z"/><path id="3m2zas" d="M698.495 971.393a4.504 4.504 0 0 0-.898-.898c.34-.255.643-.558.898-.898.255.34.558.643.898.898-.34.255-.643.558-.898.898zm3.605-1.793a2.703 2.703 0 0 1-2.7-2.7.9.9 0 0 0-1.8 0 2.703 2.703 0 0 1-2.7 2.7.9.9 0 0 0 0 1.8 2.703 2.703 0 0 1 2.7 2.7.9.9 0 0 0 1.8 0 2.703 2.703 0 0 1 2.7-2.7.9.9 0 0 0 0-1.8z"/><path id="3m2zau" d="M741.495 978.393a4.501 4.501 0 0 0-.898-.898c.34-.255.643-.558.898-.898.255.34.558.643.898.898-.34.255-.643.558-.898.898zm3.605-1.793a2.703 2.703 0 0 1-2.7-2.7.9.9 0 0 0-1.8 0 2.703 2.703 0 0 1-2.7 2.7.9.9 0 0 0 0 1.8 2.703 2.703 0 0 1 2.7 2.7.9.9 0 0 0 1.8 0 2.703 2.703 0 0 1 2.7-2.7.9.9 0 0 0 0-1.8z"/><linearGradient id="3m2zb" x1="713" x2="726.26" y1="966" y2="979.13" gradientUnits="userSpaceOnUse"><stop offset="0" stop-color="#50e3d1"/><stop offset="1" stop-color="#29bde2"/></linearGradient><linearGradient id="3m2zd" x1="692" x2="748.1" y1="973" y2="1017.44" gradientUnits="userSpaceOnUse"><stop offset="0" stop-color="#50e3d1"/><stop offset="1" stop-color="#29bde2"/></linearGradient><linearGradient id="3m2zf" x1="701" x2="738.74" y1="962" y2="975.13" gradientUnits="userSpaceOnUse"><stop offset="0" stop-color="#50e3d1"/><stop offset="1" stop-color="#29bde2"/></linearGradient><linearGradient id="3m2zh" x1="727" x2="729.04" y1="966" y2="968.02" gradientUnits="userSpaceOnUse"><stop offset="0" stop-color="#50e3d1"/><stop offset="1" stop-color="#29bde2"/></linearGradient><linearGradient id="3m2zj" x1="727" x2="729.04" y1="969" y2="971.02" gradientUnits="userSpaceOnUse"><stop offset="0" stop-color="#50e3d1"/><stop offset="1" stop-color="#29bde2"/></linearGradient><linearGradient id="3m2zl" x1="727" x2="729.04" y1="973" y2="975.02" gradientUnits="userSpaceOnUse"><stop offset="0" stop-color="#50e3d1"/><stop offset="1" stop-color="#29bde2"/></linearGradient><linearGradient id="3m2zn" x1="727" x2="729.04" y1="977" y2="979.02" gradientUnits="userSpaceOnUse"><stop offset="0" stop-color="#50e3d1"/><stop offset="1" stop-color="#29bde2"/></linearGradient><linearGradient id="3m2zp" x1="710" x2="712.04" y1="966" y2="968.02" gradientUnits="userSpaceOnUse"><stop offset="0" stop-color="#50e3d1"/><stop offset="1" stop-color="#29bde2"/></linearGradient><linearGradient id="3m2zr" x1="710" x2="712.04" y1="969" y2="971.02" gradientUnits="userSpaceOnUse"><stop offset="0" stop-color="#50e3d1"/><stop offset="1" stop-color="#29bde2"/></linearGradient><linearGradient id="3m2zt" x1="710" x2="712.04" y1="973" y2="975.02" gradientUnits="userSpaceOnUse"><stop offset="0" stop-color="#50e3d1"/><stop offset="1" stop-color="#29bde2"/></linearGradient><linearGradient id="3m2zv" x1="710" x2="712.04" y1="977" y2="979.02" gradientUnits="userSpaceOnUse"><stop offset="0" stop-color="#50e3d1"/><stop offset="1" stop-color="#29bde2"/></linearGradient><linearGradient id="3m2zx" x1="727" x2="729.04" y1="980" y2="982.02" gradientUnits="userSpaceOnUse"><stop offset="0" stop-color="#50e3d1"/><stop offset="1" stop-color="#29bde2"/></linearGradient><linearGradient id="3m2zz" x1="732" x2="734.04" y1="966" y2="968.02" gradientUnits="userSpaceOnUse"><stop offset="0" stop-color="#50e3d1"/><stop offset="1" stop-color="#29bde2"/></linearGradient><linearGradient id="3m2zB" x1="732" x2="734.04" y1="969" y2="971.02" gradientUnits="userSpaceOnUse"><stop offset="0" stop-color="#50e3d1"/><stop offset="1" stop-color="#29bde2"/></linearGradient><linearGradient id="3m2zD" x1="732" x2="734.04" y1="973" y2="975.02" gradientUnits="userSpaceOnUse"><stop offset="0" stop-color="#50e3d1"/><stop offset="1" stop-color="#29bde2"/></linearGradient><linearGradient id="3m2zF" x1="732" x2="734.04" y1="977" y2="979.02" gradientUnits="userSpaceOnUse"><stop offset="0" stop-color="#50e3d1"/><stop offset="1" stop-color="#29bde2"/></linearGradient><linearGradient id="3m2zH" x1="732" x2="734.04" y1="980" y2="982.02" gradientUnits="userSpaceOnUse"><stop offset="0" stop-color="#50e3d1"/><stop offset="1" stop-color="#29bde2"/></linearGradient><linearGradient id="3m2zJ" x1="724" x2="726.04" y1="980" y2="982.02" gradientUnits="userSpaceOnUse"><stop offset="0" stop-color="#50e3d1"/><stop offset="1" stop-color="#29bde2"/></linearGradient><linearGradient id="3m2zL" x1="720" x2="722.04" y1="980" y2="982.02" gradientUnits="userSpaceOnUse"><stop offset="0" stop-color="#50e3d1"/><stop offset="1" stop-color="#29bde2"/></linearGradient><linearGradient id="3m2zN" x1="717" x2="719.04" y1="980" y2="982.02" gradientUnits="userSpaceOnUse"><stop offset="0" stop-color="#50e3d1"/><stop offset="1" stop-color="#29bde2"/></linearGradient><linearGradient id="3m2zP" x1="713" x2="715.04" y1="980" y2="982.02" gradientUnits="userSpaceOnUse"><stop offset="0" stop-color="#50e3d1"/><stop offset="1" stop-color="#29bde2"/></linearGradient><linearGradient id="3m2zR" x1="710" x2="712.04" y1="980" y2="982.02" gradientUnits="userSpaceOnUse"><stop offset="0" stop-color="#50e3d1"/><stop offset="1" stop-color="#29bde2"/></linearGradient><linearGradient id="3m2zT" x1="705" x2="707.04" y1="966" y2="968.02" gradientUnits="userSpaceOnUse"><stop offset="0" stop-color="#50e3d1"/><stop offset="1" stop-color="#29bde2"/></linearGradient><linearGradient id="3m2zV" x1="705" x2="707.04" y1="969" y2="971.02" gradientUnits="userSpaceOnUse"><stop offset="0" stop-color="#50e3d1"/><stop offset="1" stop-color="#29bde2"/></linearGradient><linearGradient id="3m2zX" x1="705" x2="707.04" y1="973" y2="975.02" gradientUnits="userSpaceOnUse"><stop offset="0" stop-color="#50e3d1"/><stop offset="1" stop-color="#29bde2"/></linearGradient><linearGradient id="3m2zZ" x1="705" x2="707.04" y1="977" y2="979.02" gradientUnits="userSpaceOnUse"><stop offset="0" stop-color="#50e3d1"/><stop offset="1" stop-color="#29bde2"/></linearGradient><linearGradient id="3m2zab" x1="705" x2="707.04" y1="980" y2="982.02" gradientUnits="userSpaceOnUse"><stop offset="0" stop-color="#50e3d1"/><stop offset="1" stop-color="#29bde2"/></linearGradient><linearGradient id="3m2zad" x1="727" x2="729.04" y1="984" y2="986.02" gradientUnits="userSpaceOnUse"><stop offset="0" stop-color="#50e3d1"/><stop offset="1" stop-color="#29bde2"/></linearGradient><linearGradient id="3m2zaf" x1="732" x2="734.04" y1="984" y2="986.02" gradientUnits="userSpaceOnUse"><stop offset="0" stop-color="#50e3d1"/><stop offset="1" stop-color="#29bde2"/></linearGradient><linearGradient id="3m2zah" x1="724" x2="726.04" y1="984" y2="986.02" gradientUnits="userSpaceOnUse"><stop offset="0" stop-color="#50e3d1"/><stop offset="1" stop-color="#29bde2"/></linearGradient><linearGradient id="3m2zaj" x1="720" x2="722.04" y1="984" y2="986.02" gradientUnits="userSpaceOnUse"><stop offset="0" stop-color="#50e3d1"/><stop offset="1" stop-color="#29bde2"/></linearGradient><linearGradient id="3m2zal" x1="717" x2="719.04" y1="984" y2="986.02" gradientUnits="userSpaceOnUse"><stop offset="0" stop-color="#50e3d1"/><stop offset="1" stop-color="#29bde2"/></linearGradient><linearGradient id="3m2zan" x1="713" x2="715.04" y1="984" y2="986.02" gradientUnits="userSpaceOnUse"><stop offset="0" stop-color="#50e3d1"/><stop offset="1" stop-color="#29bde2"/></linearGradient><linearGradient id="3m2zap" x1="710" x2="712.04" y1="984" y2="986.02" gradientUnits="userSpaceOnUse"><stop offset="0" stop-color="#50e3d1"/><stop offset="1" stop-color="#29bde2"/></linearGradient><linearGradient id="3m2zar" x1="705" x2="707.04" y1="984" y2="986.02" gradientUnits="userSpaceOnUse"><stop offset="0" stop-color="#50e3d1"/><stop offset="1" stop-color="#29bde2"/></linearGradient><linearGradient id="3m2zat" x1="694" x2="703.18" y1="966" y2="975.09" gradientUnits="userSpaceOnUse"><stop offset="0" stop-color="#50e3d1"/><stop offset="1" stop-color="#29bde2"/></linearGradient><linearGradient id="3m2zav" x1="737" x2="746.18" y1="973" y2="982.09" gradientUnits="userSpaceOnUse"><stop offset="0" stop-color="#50e3d1"/><stop offset="1" stop-color="#29bde2"/></linearGradient></defs><g><g transform="translate(-692 -962)"><g><use fill="url(#3m2zb)" xlink:href="#3m2za"/></g><g><use fill="url(#3m2zd)" xlink:href="#3m2zc"/></g><g><use fill="url(#3m2zf)" xlink:href="#3m2ze"/></g><g><use fill="url(#3m2zh)" xlink:href="#3m2zg"/></g><g><use fill="url(#3m2zj)" xlink:href="#3m2zi"/></g><g><use fill="url(#3m2zl)" xlink:href="#3m2zk"/></g><g><use fill="url(#3m2zn)" xlink:href="#3m2zm"/></g><g><use fill="url(#3m2zp)" xlink:href="#3m2zo"/></g><g><use fill="url(#3m2zr)" xlink:href="#3m2zq"/></g><g><use fill="url(#3m2zt)" xlink:href="#3m2zs"/></g><g><use fill="url(#3m2zv)" xlink:href="#3m2zu"/></g><g><use fill="url(#3m2zx)" xlink:href="#3m2zw"/></g><g><use fill="url(#3m2zz)" xlink:href="#3m2zy"/></g><g><use fill="url(#3m2zB)" xlink:href="#3m2zA"/></g><g><use fill="url(#3m2zD)" xlink:href="#3m2zC"/></g><g><use fill="url(#3m2zF)" xlink:href="#3m2zE"/></g><g><use fill="url(#3m2zH)" xlink:href="#3m2zG"/></g><g><use fill="url(#3m2zJ)" xlink:href="#3m2zI"/></g><g><use fill="url(#3m2zL)" xlink:href="#3m2zK"/></g><g><use fill="url(#3m2zN)" xlink:href="#3m2zM"/></g><g><use fill="url(#3m2zP)" xlink:href="#3m2zO"/></g><g><use fill="url(#3m2zR)" xlink:href="#3m2zQ"/></g><g><use fill="url(#3m2zT)" xlink:href="#3m2zS"/></g><g><use fill="url(#3m2zV)" xlink:href="#3m2zU"/></g><g><use fill="url(#3m2zX)" xlink:href="#3m2zW"/></g><g><use fill="url(#3m2zZ)" xlink:href="#3m2zY"/></g><g><use fill="url(#3m2zab)" xlink:href="#3m2zaa"/></g><g><use fill="url(#3m2zad)" xlink:href="#3m2zac"/></g><g><use fill="url(#3m2zaf)" xlink:href="#3m2zae"/></g><g><use fill="url(#3m2zah)" xlink:href="#3m2zag"/></g><g><use fill="url(#3m2zaj)" xlink:href="#3m2zai"/></g><g><use fill="url(#3m2zal)" xlink:href="#3m2zak"/></g><g><use fill="url(#3m2zan)" xlink:href="#3m2zam"/></g><g><use fill="url(#3m2zap)" xlink:href="#3m2zao"/></g><g><use fill="url(#3m2zar)" xlink:href="#3m2zaq"/></g><g><use fill="url(#3m2zat)" xlink:href="#3m2zas"/></g><g><use fill="url(#3m2zav)" xlink:href="#3m2zau"/></g></g></g></svg>