<svg xmlns="http://www.w3.org/2000/svg" xmlns:xlink="http://www.w3.org/1999/xlink" width="55" height="55" viewBox="0 0 55 55"><defs><path id="wkrha" d="M292.019 980.99v1.919c-.98.364-1.689 1.33-1.689 2.475 0 1.453 1.137 2.636 2.533 2.636.466 0 .844.394.844.879s-.378.879-.844.879c-.466 0-.844-.394-.844-.88h-1.689c0 1.145.708 2.111 1.689 2.475v1.92h1.688v-1.92c.98-.364 1.689-1.33 1.689-2.474 0-1.454-1.137-2.636-2.533-2.636-.466 0-.844-.394-.844-.88 0-.484.378-.878.844-.878.466 0 .844.394.844.879h1.689c0-1.145-.708-2.111-1.689-2.475v-1.919z"/><path id="wkrhc" d="M300.843 987.135c0 4.405-3.583 7.988-7.988 7.988s-7.989-3.583-7.989-7.988c0-4.406 3.584-7.989 7.989-7.989 4.405 0 7.988 3.583 7.988 7.989zm-17.753.005c0 5.386 4.383 9.77 9.77 9.77 5.386 0 9.77-4.384 9.77-9.77 0-5.387-4.384-9.77-9.77-9.77-5.387 0-9.77 4.383-9.77 9.77z"/><path id="wkrhe" d="M287.137 964.097c0-.489.4-.885.893-.885h8.934a.89.89 0 0 1 .894.885v2.658h-10.721zm7.144 8.035a15.444 15.444 0 0 0-1.784-.113c-.604 0-1.197.045-1.783.113v-3.636h3.567zm11.625 14.866c0 7.288-6.015 13.217-13.409 13.217-7.393 0-13.408-5.93-13.408-13.217 0-7.288 6.015-13.217 13.408-13.217 7.394 0 13.41 5.93 13.41 13.217zm-16.984-14.54c-6.658 1.591-11.622 7.498-11.622 14.541 0 8.259 6.817 14.977 15.197 14.977 8.38 0 15.198-6.718 15.198-14.977 0-7.043-4.965-12.95-11.622-14.541v-3.96h3.576v-4.405c0-1.457-1.203-2.643-2.682-2.643h-8.94c-1.478 0-2.681 1.186-2.681 2.643v4.405h3.576z"/><path id="wkrhg" d="M304.95 1005.272l6.01-5.954-1.794-2.985a18.282 18.282 0 0 0 1.642-3.929l3.4-.853v-8.42l-3.4-.854a18.238 18.238 0 0 0-1.642-3.929l1.794-2.985-6.01-5.953-3.014 1.777a18.663 18.663 0 0 0-3.425-1.466l-.538 1.68c1.229.385 2.412.912 3.514 1.563l.456.27 2.727-1.61 4.053 4.016-1.624 2.701.272.452a16.48 16.48 0 0 1 1.85 4.427l.13.51 3.077.772v5.677l-3.077.772-.13.51a16.479 16.479 0 0 1-1.85 4.426l-.272.453 1.624 2.7-4.053 4.015-2.727-1.608-.456.27a16.812 16.812 0 0 1-4.47 1.832l-.513.128-.78 3.05h-5.73l-.78-3.048-.514-.129a16.828 16.828 0 0 1-4.469-1.833l-.456-.27-2.726 1.609-4.053-4.016 1.623-2.7-.272-.452a16.478 16.478 0 0 1-1.85-4.427l-.13-.509-3.078-.772v-5.677l3.077-.772.13-.51a16.478 16.478 0 0 1 1.85-4.426l.272-.452-1.624-2.7 4.054-4.016 2.726 1.609.455-.269a16.868 16.868 0 0 1 3.56-1.579l-.532-1.681a18.694 18.694 0 0 0-3.476 1.482l-3.013-1.777-6.01 5.953 1.794 2.985a18.282 18.282 0 0 0-1.642 3.93l-3.4.851v8.421l3.4.853a18.239 18.239 0 0 0 1.642 3.929l-1.795 2.985 6.01 5.954 3.014-1.777a18.669 18.669 0 0 0 3.966 1.626l.862 3.367h8.5l.862-3.368a18.594 18.594 0 0 0 3.966-1.627z"/><path id="wkrhi" d="M281.65 964.17l-.607 3.636 1.757.291 1.016-6.08L277.75 960l-.564 1.685 3.254 1.082c-9.448 4.61-15.44 14.088-15.44 24.733h1.781c0-10.115 5.787-19.098 14.869-23.33z"/><path id="wkrhk" d="M265 989.67h1.447v1.447H265z"/><path id="wkrhm" d="M265 993.29h1.447v1.447H265z"/><path id="wkrho" d="M303.346 1010.83l.607-3.636-1.757-.291-1.016 6.08 6.066 2.017.564-1.685-3.255-1.082c9.449-4.61 15.44-14.088 15.44-24.733h-1.78c0 10.114-5.788 19.098-14.869 23.33z"/><path id="wkrhq" d="M318.55 983.88h1.447v1.447h-1.447z"/><path id="wkrhs" d="M318.55 980.26h1.447v1.447h-1.447z"/><linearGradient id="wkrhb" x1="290.33" x2="295.49" y1="980.99" y2="993.41" gradientUnits="userSpaceOnUse"><stop offset="0" stop-color="#51e9cf"/><stop offset="1" stop-color="#46bbe3"/></linearGradient><linearGradient id="wkrhd" x1="283.09" x2="303.02" y1="977.37" y2="997.11" gradientUnits="userSpaceOnUse"><stop offset="0" stop-color="#51e9cf"/><stop offset="1" stop-color="#46bbe3"/></linearGradient><linearGradient id="wkrhf" x1="277.3" x2="308.31" y1="961.45" y2="1002.38" gradientUnits="userSpaceOnUse"><stop offset="0" stop-color="#51e9cf"/><stop offset="1" stop-color="#46bbe3"/></linearGradient><linearGradient id="wkrhh" x1="271.51" x2="315.06" y1="969.41" y2="1008.88" gradientUnits="userSpaceOnUse"><stop offset="0" stop-color="#51e9cf"/><stop offset="1" stop-color="#46bbe3"/></linearGradient><linearGradient id="wkrhj" x1="265" x2="284.2" y1="960" y2="987.77" gradientUnits="userSpaceOnUse"><stop offset="0" stop-color="#51e9cf"/><stop offset="1" stop-color="#46bbe3"/></linearGradient><linearGradient id="wkrhl" x1="265" x2="266.48" y1="989.67" y2="991.13" gradientUnits="userSpaceOnUse"><stop offset="0" stop-color="#51e9cf"/><stop offset="1" stop-color="#46bbe3"/></linearGradient><linearGradient id="wkrhn" x1="265" x2="266.48" y1="993.29" y2="994.75" gradientUnits="userSpaceOnUse"><stop offset="0" stop-color="#51e9cf"/><stop offset="1" stop-color="#46bbe3"/></linearGradient><linearGradient id="wkrhp" x1="301.18" x2="320.38" y1="987.5" y2="1015.27" gradientUnits="userSpaceOnUse"><stop offset="0" stop-color="#51e9cf"/><stop offset="1" stop-color="#46bbe3"/></linearGradient><linearGradient id="wkrhr" x1="318.55" x2="320.03" y1="983.88" y2="985.34" gradientUnits="userSpaceOnUse"><stop offset="0" stop-color="#51e9cf"/><stop offset="1" stop-color="#46bbe3"/></linearGradient><linearGradient id="wkrht" x1="318.55" x2="320.03" y1="980.26" y2="981.72" gradientUnits="userSpaceOnUse"><stop offset="0" stop-color="#51e9cf"/><stop offset="1" stop-color="#46bbe3"/></linearGradient></defs><g><g transform="translate(-265 -960)"><g><use fill="url(#wkrhb)" xlink:href="#wkrha"/></g><g><use fill="url(#wkrhd)" xlink:href="#wkrhc"/></g><g><use fill="url(#wkrhf)" xlink:href="#wkrhe"/></g><g><use fill="url(#wkrhh)" xlink:href="#wkrhg"/></g><g><use fill="url(#wkrhj)" xlink:href="#wkrhi"/></g><g><use fill="url(#wkrhl)" xlink:href="#wkrhk"/></g><g><use fill="url(#wkrhn)" xlink:href="#wkrhm"/></g><g><use fill="url(#wkrhp)" xlink:href="#wkrho"/></g><g><use fill="url(#wkrhr)" xlink:href="#wkrhq"/></g><g><use fill="url(#wkrht)" xlink:href="#wkrhs"/></g></g></g></svg>