<svg xmlns="http://www.w3.org/2000/svg" xmlns:xlink="http://www.w3.org/1999/xlink" width="56" height="55" viewBox="0 0 56 55"><defs><path id="b" d="M1152.68 1624.31v-1.86h1.86v1.86z"/><path id="d" d="M1150.05 1626.9v-1.86h1.86v1.86z"/><path id="f" d="M1152.68 1626.9v-1.86h1.86v1.86z"/><path id="h" d="M1150.05 1624.3v-1.86h1.86v1.86z"/><path id="j" d="M1105.18 1648.25v-1.86h1.86v1.86z"/><path id="l" d="M1102.55 1650.84v-1.86h1.86v1.86z"/><path id="n" d="M1105.18 1650.84v-1.86h1.86v1.86z"/><path id="p" d="M1102.55 1648.25v-1.86h1.86v1.86z"/><path id="r" d="M1107.98 1624.3v-1.86h1.86v1.86z"/><path id="t" d="M1105.34 1626.9v-1.86h1.86v1.86z"/><path id="v" d="M1107.97 1626.9v-1.86h1.86v1.86z"/><path id="x" d="M1105.34 1624.3v-1.86h1.86v1.86z"/><path id="z" d="M1155.59 1648.25v-1.86h1.86v1.86z"/><path id="B" d="M1152.95 1650.84v-1.86h1.86v1.86z"/><path id="D" d="M1155.59 1650.83v-1.86h1.86v1.86z"/><path id="F" d="M1152.95 1648.25v-1.86h1.86v1.86z"/><path id="H" d="M1136 1655v-1h1v1z"/><path id="J" d="M1136 1665v-7h1v7z"/><path id="L" d="M1142 1634v-1h4v1z"/><path id="N" d="M1138.88 1625.99v-1.88h3.71v1.88z"/><path id="P" d="M1114 1634v-1h4v1z"/><path id="R" d="M1118.29 1627.11v-3.94h1.88v3.94z"/><path id="T" d="M1151.573 1666.772H1141.2v-10.011l2.923 4.255a4.5 4.5 0 0 0 1.23 1.379zm-43.772-.01l8.241-5.095c.426-.318.799-.7 1.106-1.132l2.586-3.769v9.996zm45.056 8.378h-16.353c.617-.8.953-1.78.957-2.789-.003-2.566-2.09-4.646-4.666-4.649h-8.398a.931.931 0 0 0-.933.93v6.508h-16.33a3.26 3.26 0 0 1-3.266-3.254 3.26 3.26 0 0 1 3.266-3.254h13.53a.931.931 0 0 0 .933-.93v-13.947a.934.934 0 1 0-1.704-.524l-4.277 6.244a3.318 3.318 0 0 1-.628.663l-8.761 5.421a1.488 1.488 0 0 1-1.914-.457 1.454 1.454 0 0 1-.224-1.196 1.52 1.52 0 0 1 .82-.997l6.923-4.372a.946.946 0 0 0 .248-.228l4.402-5.856a.92.92 0 0 0 .153-.313c.647-2.363 2.748-4.893 4.845-4.893h3.944c.515 2.516 2.98 4.139 5.505 3.625a4.658 4.658 0 0 0 3.638-3.625h3.61c2.456 0 5.772 2.573 6.225 4.831.016.08.042.158.079.23l2.775 5.58c.068.137.17.255.295.344l7.915 5.61c.655.408.854 1.269.444 1.922-.395.63-1.217.84-1.868.478l-7.598-5.35a2.767 2.767 0 0 1-.748-.862l-4.665-6.8a.935.935 0 0 0-1.704.525v13.947c0 .514.418.93.933.93h12.598a3.26 3.26 0 0 1 3.266 3.254 3.26 3.26 0 0 1-3.267 3.254zm-20.057 0h-7.466v-5.578h7.466c1.547 0 2.8 1.249 2.8 2.789s-1.253 2.79-2.8 2.79zm-.172-27.893a2.786 2.786 0 0 1-5.255 0zm-8.87-7.427a8.342 8.342 0 0 1 .625-11.813 8.42 8.42 0 0 1 11.218-.014 8.334 8.334 0 0 1 .554 11.922 9.173 9.173 0 0 0-2.379 5.472h-2.842v-8.989l2.613-3.47-1.493-1.116-2.054 2.727-2.053-2.727-1.493 1.115 2.613 3.471v8.989h-2.846a9.656 9.656 0 0 0-2.462-5.567zm32.393 28.14a3.263 3.263 0 0 0 1.793-3.533 3.22 3.22 0 0 0-1.433-2.131l-7.679-5.444-2.62-5.265c-.711-3.093-4.712-6.2-8.028-6.2h-2.527a7.292 7.292 0 0 1 1.865-4.206 10.189 10.189 0 0 0-.675-14.573c-4.224-3.768-10.715-3.41-14.496.797a10.208 10.208 0 0 0-2.566 5.8c-.3 2.868.641 5.727 2.588 7.86a7.804 7.804 0 0 1 1.965 4.322h-2.855c-3.029 0-5.7 3.066-6.596 6.09l-4.197 5.58-6.712 4.242a3.33 3.33 0 0 0 .602 6.153 5.103 5.103 0 0 0-1.9 6.978 5.136 5.136 0 0 0 4.454 2.57h45.733c2.834.001 5.132-2.287 5.133-5.11 0-1.519-.677-2.96-1.849-3.93z"/><linearGradient id="a" x1="1152.68" x2="1154.58" y1="1622.45" y2="1624.33" gradientUnits="userSpaceOnUse"><stop offset="0" stop-color="#51e6d1"/><stop offset="1" stop-color="#49c8de"/></linearGradient><linearGradient id="c" x1="1150.05" x2="1151.95" y1="1625.04" y2="1626.92" gradientUnits="userSpaceOnUse"><stop offset="0" stop-color="#51e6d1"/><stop offset="1" stop-color="#49c8de"/></linearGradient><linearGradient id="e" x1="1152.68" x2="1154.58" y1="1625.04" y2="1626.92" gradientUnits="userSpaceOnUse"><stop offset="0" stop-color="#51e6d1"/><stop offset="1" stop-color="#49c8de"/></linearGradient><linearGradient id="g" x1="1150.05" x2="1151.95" y1="1622.44" y2="1624.33" gradientUnits="userSpaceOnUse"><stop offset="0" stop-color="#51e6d1"/><stop offset="1" stop-color="#49c8de"/></linearGradient><linearGradient id="i" x1="1105.18" x2="1107.08" y1="1646.39" y2="1648.27" gradientUnits="userSpaceOnUse"><stop offset="0" stop-color="#51e6d1"/><stop offset="1" stop-color="#49c8de"/></linearGradient><linearGradient id="k" x1="1102.55" x2="1104.45" y1="1648.98" y2="1650.86" gradientUnits="userSpaceOnUse"><stop offset="0" stop-color="#51e6d1"/><stop offset="1" stop-color="#49c8de"/></linearGradient><linearGradient id="m" x1="1105.18" x2="1107.08" y1="1648.98" y2="1650.86" gradientUnits="userSpaceOnUse"><stop offset="0" stop-color="#51e6d1"/><stop offset="1" stop-color="#49c8de"/></linearGradient><linearGradient id="o" x1="1102.55" x2="1104.45" y1="1646.39" y2="1648.27" gradientUnits="userSpaceOnUse"><stop offset="0" stop-color="#51e6d1"/><stop offset="1" stop-color="#49c8de"/></linearGradient><linearGradient id="q" x1="1107.98" x2="1109.88" y1="1622.44" y2="1624.33" gradientUnits="userSpaceOnUse"><stop offset="0" stop-color="#51e6d1"/><stop offset="1" stop-color="#49c8de"/></linearGradient><linearGradient id="s" x1="1105.34" x2="1107.24" y1="1625.04" y2="1626.92" gradientUnits="userSpaceOnUse"><stop offset="0" stop-color="#51e6d1"/><stop offset="1" stop-color="#49c8de"/></linearGradient><linearGradient id="u" x1="1107.97" x2="1109.88" y1="1625.04" y2="1626.92" gradientUnits="userSpaceOnUse"><stop offset="0" stop-color="#51e6d1"/><stop offset="1" stop-color="#49c8de"/></linearGradient><linearGradient id="w" x1="1105.34" x2="1107.24" y1="1622.44" y2="1624.33" gradientUnits="userSpaceOnUse"><stop offset="0" stop-color="#51e6d1"/><stop offset="1" stop-color="#49c8de"/></linearGradient><linearGradient id="y" x1="1155.59" x2="1157.49" y1="1646.39" y2="1648.27" gradientUnits="userSpaceOnUse"><stop offset="0" stop-color="#51e6d1"/><stop offset="1" stop-color="#49c8de"/></linearGradient><linearGradient id="A" x1="1152.95" x2="1154.86" y1="1648.98" y2="1650.86" gradientUnits="userSpaceOnUse"><stop offset="0" stop-color="#51e6d1"/><stop offset="1" stop-color="#49c8de"/></linearGradient><linearGradient id="C" x1="1155.59" x2="1157.49" y1="1648.97" y2="1650.86" gradientUnits="userSpaceOnUse"><stop offset="0" stop-color="#51e6d1"/><stop offset="1" stop-color="#49c8de"/></linearGradient><linearGradient id="E" x1="1152.95" x2="1154.86" y1="1646.39" y2="1648.28" gradientUnits="userSpaceOnUse"><stop offset="0" stop-color="#51e6d1"/><stop offset="1" stop-color="#49c8de"/></linearGradient><linearGradient id="G" x1="1136" x2="1137.02" y1="1654" y2="1655.01" gradientUnits="userSpaceOnUse"><stop offset="0" stop-color="#51e6d1"/><stop offset="1" stop-color="#49c8de"/></linearGradient><linearGradient id="I" x1="1136" x2="1137.02" y1="1658" y2="1665.07" gradientUnits="userSpaceOnUse"><stop offset="0" stop-color="#51e6d1"/><stop offset="1" stop-color="#49c8de"/></linearGradient><linearGradient id="K" x1="1142" x2="1146.08" y1="1633" y2="1634.01" gradientUnits="userSpaceOnUse"><stop offset="0" stop-color="#51e6d1"/><stop offset="1" stop-color="#49c8de"/></linearGradient><linearGradient id="M" x1="1138.88" x2="1142.66" y1="1624.11" y2="1626.01" gradientUnits="userSpaceOnUse"><stop offset="0" stop-color="#51e6d1"/><stop offset="1" stop-color="#49c8de"/></linearGradient><linearGradient id="O" x1="1114" x2="1118.08" y1="1633" y2="1634.01" gradientUnits="userSpaceOnUse"><stop offset="0" stop-color="#51e6d1"/><stop offset="1" stop-color="#49c8de"/></linearGradient><linearGradient id="Q" x1="1118.29" x2="1120.21" y1="1623.17" y2="1627.14" gradientUnits="userSpaceOnUse"><stop offset="0" stop-color="#51e6d1"/><stop offset="1" stop-color="#49c8de"/></linearGradient><linearGradient id="S" x1="1102" x2="1159.12" y1="1624" y2="1677.53" gradientUnits="userSpaceOnUse"><stop offset="0" stop-color="#51e6d1"/><stop offset="1" stop-color="#49c8de"/></linearGradient></defs><use fill="url(#a)" xlink:href="#b" transform="rotate(-45 -1355.427 2142.732)"/><use fill="url(#c)" xlink:href="#d" transform="rotate(-45 -1357.927 2145.232)"/><use fill="url(#e)" xlink:href="#f" transform="rotate(-45 -1355.427 2145.232)"/><use fill="url(#g)" xlink:href="#h" transform="rotate(-45 -1357.927 2142.732)"/><use fill="url(#i)" xlink:href="#j" transform="rotate(-45 -1402.927 2166.732)"/><use fill="url(#k)" xlink:href="#l" transform="rotate(-45 -1405.427 2169.232)"/><use fill="url(#m)" xlink:href="#n" transform="rotate(-45 -1402.927 2169.232)"/><use fill="url(#o)" xlink:href="#p" transform="rotate(-45 -1405.427 2166.732)"/><use fill="url(#q)" xlink:href="#r" transform="rotate(-45 -1399.927 2142.732)"/><use fill="url(#s)" xlink:href="#t" transform="rotate(-45 -1402.427 2145.232)"/><use fill="url(#u)" xlink:href="#v" transform="rotate(-45 -1399.927 2145.232)"/><use fill="url(#w)" xlink:href="#x" transform="rotate(-45 -1402.927 2142.732)"/><use fill="url(#y)" xlink:href="#z" transform="rotate(-45 -1352.427 2166.732)"/><use fill="url(#A)" xlink:href="#B" transform="rotate(-45 -1355.427 2168.732)"/><use fill="url(#C)" xlink:href="#D" transform="rotate(-45 -1352.427 2169.232)"/><use fill="url(#E)" xlink:href="#F" transform="rotate(-45 -1355.427 2166.232)"/><use fill="url(#G)" xlink:href="#H" transform="translate(-1102 -1622)"/><use fill="url(#I)" xlink:href="#J" transform="translate(-1102 -1622)"/><use fill="url(#K)" xlink:href="#L" transform="translate(-1102 -1622)"/><use fill="url(#M)" xlink:href="#N" transform="rotate(-45 -1368.427 2143.732)"/><use fill="url(#O)" xlink:href="#P" transform="translate(-1102 -1622)"/><use fill="url(#Q)" xlink:href="#R" transform="rotate(-45 -1389.427 2144.732)"/><use fill="url(#S)" xlink:href="#T" transform="translate(-1102 -1622)"/></svg>