<svg xmlns="http://www.w3.org/2000/svg" xmlns:xlink="http://www.w3.org/1999/xlink" width="19" height="12" viewBox="0 0 19 12"><defs><path id="a" d="M209.42 5418.408l-3.81 1.87a.616.616 0 0 1-.574-.018.544.544 0 0 1-.282-.47v-3.728c0-.192.106-.37.281-.47a.619.619 0 0 1 .574-.018l3.809 1.858a.547.547 0 0 1 .316.487.548.548 0 0 1-.315.489zm5.802-5.378c-.656-.732-1.868-1.03-4.182-1.03h-8.4c-2.367 0-3.599.318-4.253 1.097-.637.76-.637 1.878-.637 3.427v2.952c0 3 .756 4.524 4.89 4.524h8.4c2.007 0 3.12-.263 3.839-.909.737-.662 1.052-1.743 1.052-3.615v-2.952c0-1.633-.05-2.759-.709-3.494z"/></defs><use fill="#fff" xlink:href="#a" transform="translate(-197 -5412)"/></svg>