<svg xmlns="http://www.w3.org/2000/svg" xmlns:xlink="http://www.w3.org/1999/xlink" width="652" height="652" viewBox="0 0 652 652"><defs><path id="injrb" d="M82 3139c0-136.414 110.362-247 246.5-247S575 3002.586 575 3139s-110.362 247-246.5 247S82 3275.414 82 3139z"/><path id="injrd" d="M23 3136.5c0-168.723 136.553-305.5 305-305.5s305 136.777 305 305.5S496.447 3442 328 3442 23 3305.223 23 3136.5z"/><path id="injrf" d="M136 3138.5c0-106.867 86.409-193.5 193-193.5s193 86.633 193 193.5S435.591 3332 329 3332s-193-86.633-193-193.5z"/><filter id="injra" width="140%" height="140%" x="-10%" y="-10%" filterUnits="objectBoundingBox"><feGaussianBlur in="SourceGraphic" result="FeGaussianBlur2502Out" stdDeviation="1.116071428571429 1.116071428571429"/></filter><filter id="injrc" width="144%" height="144%" x="-12%" y="-12%" filterUnits="objectBoundingBox"><feGaussianBlur in="SourceGraphic" result="FeGaussianBlur2509Out" stdDeviation="8.097098214285714 8.097098214285714"/></filter><filter id="injre" width="144%" height="144%" x="-12%" y="-12%" filterUnits="objectBoundingBox"><feGaussianBlur in="SourceGraphic" result="FeGaussianBlur2516Out" stdDeviation="3.599330357142857 3.599330357142857"/></filter><filter id="injrg" width="140%" height="140%" x="-10%" y="-10%" filterUnits="objectBoundingBox"><feGaussianBlur in="SourceGraphic" result="FeGaussianBlur2523Out" stdDeviation="0.7393973214285714 0.7393973214285714"/></filter></defs><g><g opacity=".59" transform="translate(-1 -2810)"><g filter="url(#injra)" opacity=".24"><use fill="#fff" fill-opacity="0" stroke="#000" stroke-miterlimit="50" xlink:href="#injrb"/></g><g filter="url(#injrc)" opacity=".59"><use fill="#fff" fill-opacity="0" stroke="#000" stroke-miterlimit="50" xlink:href="#injrd"/></g><g filter="url(#injre)" opacity=".59"><use fill="#fff" fill-opacity="0" stroke="#000" stroke-miterlimit="50" stroke-width="5" xlink:href="#injrf"/></g><g filter="url(#injrg)" opacity=".59"><use fill="#fff" fill-opacity="0" stroke="#fff" stroke-miterlimit="50" stroke-width="2" xlink:href="#injrf"/></g></g></g></svg>