<svg xmlns="http://www.w3.org/2000/svg" xmlns:xlink="http://www.w3.org/1999/xlink" width="707" height="705" viewBox="0 0 707 705"><defs><path id="wdwtb" d="M828 3665.5c0-148.288 120.212-268.5 268.5-268.5s268.5 120.212 268.5 268.5-120.212 268.5-268.5 268.5S828 3813.788 828 3665.5z"/><path id="wdwtd" d="M764 3663c0-183.359 148.641-332 332-332s332 148.641 332 332-148.641 332-332 332-332-148.641-332-332z"/><path id="wdwtf" d="M887 3665c0-115.98 94.02-210 210-210s210 94.02 210 210-94.02 210-210 210-210-94.02-210-210z"/><filter id="wdwta" width="140%" height="140%" x="-10%" y="-10%" filterUnits="objectBoundingBox"><feGaussianBlur in="SourceGraphic" result="FeGaussianBlur1932Out" stdDeviation="1.116071428571429 1.116071428571429"/></filter><filter id="wdwtc" width="144%" height="144%" x="-12%" y="-12%" filterUnits="objectBoundingBox"><feGaussianBlur in="SourceGraphic" result="FeGaussianBlur1939Out" stdDeviation="8.097098214285714 8.097098214285714"/></filter><filter id="wdwte" width="144%" height="144%" x="-12%" y="-12%" filterUnits="objectBoundingBox"><feGaussianBlur in="SourceGraphic" result="FeGaussianBlur1946Out" stdDeviation="3.599330357142857 3.599330357142857"/></filter><filter id="wdwtg" width="140%" height="140%" x="-10%" y="-10%" filterUnits="objectBoundingBox"><feGaussianBlur in="SourceGraphic" result="FeGaussianBlur1953Out" stdDeviation="0.7393973214285714 0.7393973214285714"/></filter></defs><g><g opacity=".55" transform="translate(-744 -3310)"><g filter="url(#wdwta)" opacity=".23"><use fill="#fff" fill-opacity="0" stroke="#000" stroke-miterlimit="50" xlink:href="#wdwtb"/></g><g filter="url(#wdwtc)" opacity=".55"><use fill="#fff" fill-opacity="0" stroke="#000" stroke-miterlimit="50" xlink:href="#wdwtd"/></g><g filter="url(#wdwte)" opacity=".55"><use fill="#fff" fill-opacity="0" stroke="#000" stroke-miterlimit="50" stroke-width="5" xlink:href="#wdwtf"/></g><g filter="url(#wdwtg)" opacity=".55"><use fill="#fff" fill-opacity="0" stroke="#fff" stroke-miterlimit="50" stroke-width="2" xlink:href="#wdwtf"/></g></g></g></svg>