<svg xmlns="http://www.w3.org/2000/svg" xmlns:xlink="http://www.w3.org/1999/xlink" width="52" height="52" viewBox="0 0 52 52"><defs><path id="x9rya" d="M293.96 1661.05c.72 0 1.303.58 1.303 1.295s-.583 1.295-1.302 1.295h-5.645v1.727h5.645c.719 0 1.302.58 1.302 1.295s-.583 1.295-1.302 1.295h-5.645v1.726h5.645c.719 0 1.302.58 1.302 1.295s-.583 1.295-1.302 1.295h-21.277v-15.54h3.576a4.334 4.334 0 0 0 4.118-2.95l3.214-9.57c.243-.727.422-1.472.535-2.23l.336-2.244a11.427 11.427 0 0 1 1.545 7.414l-1.154 8.605a.864.864 0 0 0 .857.975h8.25c.719 0 1.302.58 1.302 1.295s-.583 1.295-1.302 1.295h-5.645v1.727zm-23.013 11.223h-5.21v-15.54h5.21zm25.134-3.453a2.995 2.995 0 0 0 0-4.317 2.995 2.995 0 0 0 0-4.316 3.005 3.005 0 0 0 .06-4.267 3.044 3.044 0 0 0-2.18-.914h-7.259l1.023-7.627c.4-3.007-.252-6.06-1.847-8.645-.019-.03-.04-.058-.061-.086a1.744 1.744 0 0 0-2.442-.27c-.33.264-.553.638-.626 1.053l-.347 2.299a11.517 11.517 0 0 1-.466 1.937l-3.205 9.569a2.604 2.604 0 0 1-2.471 1.77h-11.392a.866.866 0 0 0-.868.864v17.267c0 .476.389.863.868.863h29.093a3.026 3.026 0 0 0 3.039-3.013 3.008 3.008 0 0 0-.919-2.167z"/><path id="x9ryc" d="M272.995 1634.323a3.328 3.328 0 1 1 0-6.656 3.328 3.328 0 0 1 0 6.656zM273 1626a5 5 0 1 0 0 10 5 5 0 0 0 0-10z"/><path id="x9rye" d="M273 1638.2a7.2 7.2 0 0 1-7.2-7.2 7.208 7.208 0 0 1 7.2-7.2 7.2 7.2 0 0 1 0 14.4zm0-16.2a9 9 0 0 0-9 9 9.01 9.01 0 0 0 9 9 9 9 0 1 0 0-18z"/><path id="x9ryg" d="M302.995 1638.323a3.328 3.328 0 1 1 0-6.656 3.328 3.328 0 0 1 0 6.656zM303 1630a5 5 0 1 0 0 10 5 5 0 0 0 0-10z"/><path id="x9ryi" d="M303 1642.2a7.208 7.208 0 0 1-7.2-7.2 7.2 7.2 0 1 1 7.2 7.2zm0-16.2a9 9 0 1 0 0 18 9.01 9.01 0 0 0 9-9 9 9 0 0 0-9-9z"/><path id="x9ryk" d="M306.995 1664.323a3.328 3.328 0 1 1 0-6.656 3.328 3.328 0 0 1 0 6.656zM307 1656a5 5 0 1 0 0 10 5 5 0 0 0 0-10z"/><path id="x9rym" d="M307 1668.2a7.2 7.2 0 1 1 7.2-7.2 7.208 7.208 0 0 1-7.2 7.2zm0-16.2a9 9 0 1 0 9 9 9.01 9.01 0 0 0-9-9z"/><path id="x9ryo" d="M268 1641v-2h-2v2h-2v2h2v2h2v-2h2v-2z"/><path id="x9ryq" d="M314 1646v-2h-2v2h-2v2h2v2h2v-2h2v-2z"/><path id="x9rys" d="M300 1674v-2h2v2z"/><path id="x9ryu" d="M283 1624v-2h2v2z"/><path id="x9ryw" d="M295 1624v-2h-2v2h-2v2h2v2h2v-2h2v-2z"/><path id="x9ryy" d="M290 1641v-2h2v2z"/><path id="x9ryA" d="M296 1647v-2h2v2z"/><path id="x9ryC" d="M314 1624v-2h-2v2h-2v2h2v2h2v-2h2v-2z"/><path id="x9ryE" d="M271 1647v-2h2v2z"/><linearGradient id="x9ryb" x1="264" x2="296.77" y1="1638" y2="1673.4" gradientUnits="userSpaceOnUse"><stop offset="0" stop-color="#68f2da"/><stop offset="1" stop-color="#50c1f5"/></linearGradient><linearGradient id="x9ryd" x1="268" x2="278.2" y1="1626" y2="1636.1" gradientUnits="userSpaceOnUse"><stop offset="0" stop-color="#68f2da"/><stop offset=".97" stop-color="#50c1f5"/></linearGradient><linearGradient id="x9ryf" x1="264" x2="282.36" y1="1622" y2="1640.18" gradientUnits="userSpaceOnUse"><stop offset="0" stop-color="#68f2da"/><stop offset=".97" stop-color="#50c1f5"/></linearGradient><linearGradient id="x9ryh" x1="298" x2="308.2" y1="1630" y2="1640.1" gradientUnits="userSpaceOnUse"><stop offset="0" stop-color="#68f2da"/><stop offset=".97" stop-color="#50c1f5"/></linearGradient><linearGradient id="x9ryj" x1="294" x2="312.36" y1="1626" y2="1644.18" gradientUnits="userSpaceOnUse"><stop offset="0" stop-color="#68f2da"/><stop offset=".97" stop-color="#50c1f5"/></linearGradient><linearGradient id="x9ryl" x1="302" x2="312.2" y1="1656" y2="1666.1" gradientUnits="userSpaceOnUse"><stop offset="0" stop-color="#68f2da"/><stop offset=".97" stop-color="#50c1f5"/></linearGradient><linearGradient id="x9ryn" x1="298" x2="316.36" y1="1652" y2="1670.18" gradientUnits="userSpaceOnUse"><stop offset="0" stop-color="#68f2da"/><stop offset=".97" stop-color="#50c1f5"/></linearGradient><linearGradient id="x9ryp" x1="264" x2="270.12" y1="1639" y2="1645.06" gradientUnits="userSpaceOnUse"><stop offset="0" stop-color="#68f2da"/><stop offset=".97" stop-color="#50c1f5"/></linearGradient><linearGradient id="x9ryr" x1="310" x2="316.12" y1="1644" y2="1650.06" gradientUnits="userSpaceOnUse"><stop offset="0" stop-color="#68f2da"/><stop offset=".97" stop-color="#50c1f5"/></linearGradient><linearGradient id="x9ryt" x1="300" x2="302.04" y1="1672" y2="1674.02" gradientUnits="userSpaceOnUse"><stop offset="0" stop-color="#68f2da"/><stop offset=".97" stop-color="#50c1f5"/></linearGradient><linearGradient id="x9ryv" x1="283" x2="285.04" y1="1622" y2="1624.02" gradientUnits="userSpaceOnUse"><stop offset="0" stop-color="#68f2da"/><stop offset=".97" stop-color="#50c1f5"/></linearGradient><linearGradient id="x9ryx" x1="291" x2="297.12" y1="1622" y2="1628.06" gradientUnits="userSpaceOnUse"><stop offset="0" stop-color="#68f2da"/><stop offset=".97" stop-color="#50c1f5"/></linearGradient><linearGradient id="x9ryz" x1="290" x2="292.04" y1="1639" y2="1641.02" gradientUnits="userSpaceOnUse"><stop offset="0" stop-color="#68f2da"/><stop offset=".97" stop-color="#50c1f5"/></linearGradient><linearGradient id="x9ryB" x1="296" x2="298.04" y1="1645" y2="1647.02" gradientUnits="userSpaceOnUse"><stop offset="0" stop-color="#68f2da"/><stop offset=".97" stop-color="#50c1f5"/></linearGradient><linearGradient id="x9ryD" x1="310" x2="316.12" y1="1622" y2="1628.06" gradientUnits="userSpaceOnUse"><stop offset="0" stop-color="#68f2da"/><stop offset=".97" stop-color="#50c1f5"/></linearGradient><linearGradient id="x9ryF" x1="271" x2="273.04" y1="1645" y2="1647.02" gradientUnits="userSpaceOnUse"><stop offset="0" stop-color="#68f2da"/><stop offset=".97" stop-color="#50c1f5"/></linearGradient></defs><g><g transform="translate(-264 -1622)"><g><use fill="url(#x9ryb)" xlink:href="#x9rya"/></g><g><use fill="url(#x9ryd)" xlink:href="#x9ryc"/></g><g><use fill="url(#x9ryf)" xlink:href="#x9rye"/></g><g><use fill="url(#x9ryh)" xlink:href="#x9ryg"/></g><g><use fill="url(#x9ryj)" xlink:href="#x9ryi"/></g><g><use fill="url(#x9ryl)" xlink:href="#x9ryk"/></g><g><use fill="url(#x9ryn)" xlink:href="#x9rym"/></g><g><use fill="url(#x9ryp)" xlink:href="#x9ryo"/></g><g><use fill="url(#x9ryr)" xlink:href="#x9ryq"/></g><g><use fill="url(#x9ryt)" xlink:href="#x9rys"/></g><g><use fill="url(#x9ryv)" xlink:href="#x9ryu"/></g><g><use fill="url(#x9ryx)" xlink:href="#x9ryw"/></g><g><use fill="url(#x9ryz)" xlink:href="#x9ryy"/></g><g><use fill="url(#x9ryB)" xlink:href="#x9ryA"/></g><g><use fill="url(#x9ryD)" xlink:href="#x9ryC"/></g><g><use fill="url(#x9ryF)" xlink:href="#x9ryE"/></g></g></g></svg>