<svg xmlns="http://www.w3.org/2000/svg" xmlns:xlink="http://www.w3.org/1999/xlink" width="10" height="16" viewBox="0 0 10 16"><defs><path id="sqlga" d="M132.733 5409.003l-2.309-.003c-2.594 0-4.27 1.546-4.27 3.938v1.815h-2.321c-.2 0-.363.146-.363.327v2.63c0 .18.163.326.363.326h2.321v6.638c0 .18.163.326.363.326h3.029c.2 0 .363-.146.363-.326v-6.638h2.714c.2 0 .363-.146.363-.326l.001-2.63a.31.31 0 0 0-.106-.231.385.385 0 0 0-.257-.096h-2.715v-1.539c0-.74.196-1.115 1.268-1.115h1.555c.2 0 .363-.147.363-.327v-2.442c0-.18-.162-.326-.362-.327z"/></defs><g><g transform="translate(-123 -5409)"><use fill="#fff" xlink:href="#sqlga"/></g></g></svg>