<svg xmlns="http://www.w3.org/2000/svg" xmlns:xlink="http://www.w3.org/1999/xlink" width="48" height="48" viewBox="0 0 48 48"><defs><path id="mepla" d="M269 2796v-13"/><path id="meplb" d="M290 2813.905L271 2786h-4l-8 10.129"/><path id="meplc" d="M283 2768h8v10h-8"/><path id="mepld" d="M259 2776h-8v-6h8v-1h25v8h-25v-4"/><path id="meple" d="M251 2775h-6v-4h5"/><path id="meplf" d="M272 2777v2.25a3 3 0 0 1-6 0V2777"/><path id="meplg" d="M274 2814h18"/><path id="meplh" d="M245 2810h2l2 2v2"/><path id="mepli" d="M245 2804h2l2-2v-2"/><path id="meplj" d="M255 2807a3 3 0 1 1 6 0 3 3 0 0 1-6 0z"/><path id="meplk" d="M271 2810h-2l-2 2v2"/><path id="mepll" d="M271 2804h-2l-2-2v-2"/><path id="meplm" d="M245 2814v-14h26v14z"/><path id="mepln" d="M281 2793a5 5 0 1 1 10 0 5 5 0 0 1-10 0z"/><path id="meplo" d="M286 2791v4"/><path id="meplp" d="M286 2788v-3"/><path id="meplq" d="M286 2783v-2"/></defs><g><g transform="translate(-244 -2767)"><g><use fill="#fff" fill-opacity="0" stroke="#49c7de" stroke-linecap="round" stroke-miterlimit="50" stroke-width="2" xlink:href="#mepla"/></g><g><use fill="#fff" fill-opacity="0" stroke="#49c7de" stroke-linecap="round" stroke-miterlimit="50" stroke-width="2" xlink:href="#meplb"/></g><g><use fill="#fff" fill-opacity="0" stroke="#49c7de" stroke-miterlimit="50" stroke-width="2" xlink:href="#meplc"/></g><g><use fill="#fff" fill-opacity="0" stroke="#49c7de" stroke-miterlimit="50" stroke-width="2" xlink:href="#mepld"/></g><g><use fill="#fff" fill-opacity="0" stroke="#49c7de" stroke-miterlimit="50" stroke-width="2" xlink:href="#meple"/></g><g><use fill="#fff" fill-opacity="0" stroke="#49c7de" stroke-miterlimit="50" stroke-width="2" xlink:href="#meplf"/></g><g><use fill="#fff" fill-opacity="0" stroke="#49c7de" stroke-miterlimit="50" stroke-width="2" xlink:href="#meplg"/></g><g><g><use fill="#fff" fill-opacity="0" stroke="#49c7de" stroke-miterlimit="50" stroke-width="2" xlink:href="#meplh"/></g><g><use fill="#fff" fill-opacity="0" stroke="#49c7de" stroke-miterlimit="50" stroke-width="2" xlink:href="#mepli"/></g><g><use fill="#fff" fill-opacity="0" stroke="#49c7de" stroke-miterlimit="50" stroke-width="2" xlink:href="#meplj"/></g><g><use fill="#fff" fill-opacity="0" stroke="#49c7de" stroke-miterlimit="50" stroke-width="2" xlink:href="#meplj"/></g><g><use fill="#fff" fill-opacity="0" stroke="#49c7de" stroke-miterlimit="50" stroke-width="2" xlink:href="#meplk"/></g><g><use fill="#fff" fill-opacity="0" stroke="#49c7de" stroke-miterlimit="50" stroke-width="2" xlink:href="#mepll"/></g><g><use fill="#fff" fill-opacity="0" stroke="#49c7de" stroke-miterlimit="50" stroke-width="2" xlink:href="#meplj"/></g><g><use fill="#fff" fill-opacity="0" stroke="#49c7de" stroke-miterlimit="50" stroke-width="2" xlink:href="#meplm"/></g></g><g><g><g><use fill="#fff" fill-opacity="0" stroke="#49c7de" stroke-miterlimit="50" stroke-width="2" xlink:href="#mepln"/></g><g><use fill="#fff" fill-opacity="0" stroke="#49c7de" stroke-miterlimit="50" stroke-width="2" xlink:href="#meplo"/></g></g><g><use fill="#fff" fill-opacity="0" stroke="#49c7de" stroke-miterlimit="50" stroke-width="2" xlink:href="#meplp"/></g><g><use fill="#fff" fill-opacity="0" stroke="#49c7de" stroke-miterlimit="50" stroke-width="2" xlink:href="#meplq"/></g></g></g></g></svg>