<svg xmlns="http://www.w3.org/2000/svg" xmlns:xlink="http://www.w3.org/1999/xlink" width="119" height="40" viewBox="0 0 119 40"><defs><path id="xyzfb" d="M1154 4271.594c0 2.985-2.355 5.406-5.26 5.406h-108.48c-2.904 0-5.26-2.42-5.26-5.406v-29.188c0-2.985 2.356-5.406 5.26-5.406h108.48c2.905 0 5.26 2.42 5.26 5.406v29.188z"/><path id="xyzfa" d="M1060.975 4254.547l-5.293-3.124-10.21-6.026c-.567-.334-1.132-.131-1.132.568v24.55c0 .523.404.75.896.459l10.446-6.165 5.293-3.123 5.087-3.002c.597-.353.54-.836.036-1.114-.503-.277-5.123-3.023-5.123-3.023z"/><path id="xyzfd" d="M1044.34 4244.83v26.579l13.113-13.29z"/><path id="xyzfg" d="M1060.975 4254.547l-5.294-3.124-11.341-6.693v.097l13.113 13.29z"/><path id="xyzfj" d="M1044.34 4271.41v.096l11.341-6.693 5.293-3.124-3.521-3.569z"/><path id="xyzfm" d="M1060.972 4254.55l-3.522 3.57 3.522 3.569 6.049-3.57z"/><path id="xyzfo" d="M1082.324 4262.436zm-2.316.545c-.939.148-1.78.28-2.67.28-4.469 0-6.168-3.35-6.168-5.973 0-3.2 2.412-6.168 6.54-6.168.875 0 1.716.132 2.477.346 1.214.347 1.78.775 2.137 1.023l-1.345 1.303-.566.132.405-.66c-.55-.544-1.555-1.55-3.465-1.55-2.558 0-4.484 1.98-4.484 4.866 0 3.1 2.202 6.02 5.73 6.02 1.037 0 1.57-.213 2.056-.412v-2.655l-2.444.132 1.295-.71h3.432l-.42.412c-.115.1-.13.133-.163.263-.016.15-.032.628-.032.793v2.013zm9.965-3.438c0-1.445-.677-4.2-2.677-4.2-.531 0-1.064.213-1.45.558-.629.574-.742 1.296-.742 2.002 0 1.623.79 4.297 2.741 4.297.63 0 1.274-.311 1.644-.835.387-.526.484-1.182.484-1.822zm-2.494 3.15c-2.565 0-3.936-2.034-3.936-3.872 0-2.15 1.726-3.987 4.178-3.987 2.37 0 3.854 1.886 3.854 3.872 0 1.936-1.467 3.987-4.096 3.987zm11.214-3.15c0-1.445-.677-4.2-2.676-4.2-.532 0-1.064.213-1.45.558-.63.574-.743 1.296-.743 2.002 0 1.623.79 4.297 2.741 4.297.629 0 1.274-.311 1.644-.835.387-.526.484-1.182.484-1.822zm-2.5 3.15c-2.56 0-3.93-2.034-3.93-3.872 0-2.15 1.724-3.987 4.173-3.987 2.367 0 3.85 1.886 3.85 3.872 0 1.936-1.466 3.987-4.092 3.987zm9.876-4.06c0-1.182-.695-3.023-2.036-3.023a1.5 1.5 0 0 0-1.131.542c-.274.345-.356.789-.356 1.216 0 1.101.63 2.926 2.02 2.926.405 0 .84-.197 1.1-.46.37-.379.403-.904.403-1.2zm-.873 4.323c-.13-.017-.21-.017-.37-.017-.146 0-1.02.034-1.696.264-.356.13-1.39.525-1.39 1.693 0 1.166 1.115 2.005 2.843 2.005 1.549 0 2.373-.757 2.373-1.775 0-.84-.533-1.282-1.76-2.17zm1.145-7.297zm1.145 2.22c0 1.215-.677 1.791-1.355 2.333-.21.213-.452.444-.452.806 0 .36.242.558.42.706l.581.46c.71.608 1.355 1.167 1.355 2.301 0 1.545-1.469 3.106-4.243 3.106-2.34 0-3.469-1.134-3.469-2.35 0-.592.29-1.43 1.243-2.006 1-.624 2.355-.706 3.081-.756-.227-.296-.484-.608-.484-1.117 0-.279.081-.443.161-.641a5.735 5.735 0 0 1-.517.033c-1.71 0-2.677-1.299-2.677-2.58 0-.756.339-1.595 1.032-2.202.92-.772 2.017-.904 2.889-.904h3.323l-1.033.591h-1c.371.313 1.145.97 1.145 2.22zm35.867-2.95l1.69 4.48c.37 1.024.6 1.762.69 2.216h.056c.06-.244.189-.66.383-1.251.195-.59.832-2.405 1.911-5.445h1.254l-3.316 8.947c-.328.884-.712 1.512-1.151 1.883-.439.37-.978.555-1.615.555-.357 0-.709-.04-1.057-.122v-.953c.258.057.547.086.866.086.803 0 1.375-.459 1.718-1.377l.43-1.118-3.112-7.9zm-5.43 7.019c.725 0 1.296-.203 1.71-.61.415-.406.623-.974.623-1.706v-.71l-1.168.05c-.927.034-1.596.18-2.006.442-.41.26-.615.665-.615 1.215 0 .43.127.757.383.982.255.224.612.337 1.072.337zm2.644.838l-.233-1.118h-.056c-.385.493-.769.826-1.151 1-.383.175-.86.262-1.433.262-.765 0-1.364-.201-1.799-.602-.434-.402-.651-.973-.651-1.714 0-1.586 1.246-2.418 3.738-2.495l1.31-.043v-.487c0-.617-.13-1.072-.39-1.366-.26-.294-.678-.44-1.25-.44-.644 0-1.371.2-2.183.601l-.36-.91c.381-.21.798-.375 1.251-.495a5.32 5.32 0 0 1 1.362-.18c.92 0 1.602.209 2.046.624.443.416.665 1.083.665 2v5.363h-.866zm-6.708.01h-1.176v-11.165h1.176zm-7.785-6.334c-.353.444-.533 1.15-.543 2.119v.265c0 1.102.18 1.89.543 2.365.361.475.942.712 1.74.712.667 0 1.19-.274 1.568-.822.378-.549.567-1.305.567-2.27 0-.977-.19-1.728-.567-2.25-.378-.523-.91-.784-1.596-.784-.79 0-1.36.222-1.712.665zm.508 6.178a2.607 2.607 0 0 1-1.048-.87h-.084c.056.458.084.893.084 1.303v3.23h-1.17v-11.374h.952l.162 1.074h.056c.301-.43.652-.74 1.051-.93.4-.192.858-.287 1.375-.287 1.024 0 1.815.356 2.372 1.067.557.712.836 1.71.836 2.994 0 1.29-.284 2.29-.85 3.005-.566.714-1.352 1.07-2.358 1.07-.503 0-.963-.094-1.378-.282z"/><path id="xyzfp" d="M1120.043 4255.238h-.006l-.313 1.072h-.096l-.316-1.072h-.004v1.072h-.112v-1.172h.192l.285.948h.005l.28-.948h.195v1.172h-.11zm-1.402 1.072h-.125v-1.062h-.339v-.11h.802v.11h-.338zm-2.543.744c0-.644-.704-1.385-1.551-1.385-.628 0-1.802.5-1.802 2.238 0 .274.032.564.048.855l2.851-1.274c.298-.112.454-.21.454-.434zm.506 5.515c-.518.241-1.051.306-1.523.306-.501 0-1.286-.034-2.087-.628-1.113-.805-1.6-2.188-1.6-3.394 0-2.493 1.977-3.715 3.593-3.715.565 0 1.147.144 1.617.45.784.53.988 1.222 1.097 1.592l-3.686 1.529-1.209.096c.392 2.043 1.741 3.232 3.233 3.232.8 0 1.38-.289 1.914-.562l-.832.804c-.172.097-.345.21-.517.29zm-5.921-.43c.269.033.538.048.806.082l-.584.356h-2.795c.364-.486.426-.535.426-.86v-10.012.006-.007h-1.206l1.184-.584h2.258c-.49.292-.647.39-.71.957l-.01.105v9.179c0 .633.11.73.63.778z"/><path id="xyzfq" d="M1111.388 4248.677c0-.07-.228-.443-.685-1.117-.478-.711-.75-1.197-.816-1.458h-.04c.041.376.062.717.062 1.022 0 .424.012.942.035 1.553h-.613a38.017 38.017 0 0 0 0-3.36h.74c0 .092.205.456.615 1.092.437.676.687 1.134.752 1.375h.037c-.04-.383-.06-.727-.06-1.032 0-.466-.011-.944-.034-1.435h.622c-.023.427-.034.961-.034 1.603 0 .646.011 1.232.034 1.757zm-3.722-2.543c-.177-.224-.395-.336-.654-.336-.241 0-.446.113-.614.338-.169.226-.253.511-.253.856 0 .358.089.65.266.874.178.225.395.337.653.337.24 0 .446-.113.614-.34.168-.226.253-.51.253-.853 0-.36-.089-.652-.265-.876zm.494 2.114a1.495 1.495 0 0 1-1.158.521c-.439 0-.806-.16-1.101-.478-.295-.32-.443-.725-.443-1.217 0-.527.156-.965.468-1.313a1.495 1.495 0 0 1 1.158-.521c.438 0 .805.159 1.1.477.296.318.444.724.444 1.218 0 .528-.156.966-.468 1.313zm-5.765-2.463c-.118 0-.243.013-.374.039.019.324.028.69.028 1.1.041.004.09.006.144.006.606 0 .91-.198.91-.594 0-.367-.237-.55-.708-.55zm.9 1.328c-.294.197-.654.295-1.08.295-.078 0-.134-.002-.167-.005 0 .325.01.752.027 1.284h-.697c.022-.499.033-1.086.033-1.763 0-.62-.011-1.156-.033-1.607h.432c.061 0 .178-.002.352-.007.174-.006.324-.008.451-.008.314 0 .58.074.796.222.217.149.325.374.325.675 0 .413-.146.717-.44.914zm-3.884-1.328c-.119 0-.244.013-.377.039.019.324.028.69.028 1.1.042.004.09.006.146.006.611 0 .917-.198.917-.594 0-.367-.238-.55-.714-.55zm.904 1.328c-.294.197-.656.295-1.084.295a1.89 1.89 0 0 1-.167-.005c0 .325.01.752.027 1.284h-.7c.022-.499.033-1.086.033-1.763 0-.62-.01-1.156-.032-1.607h.433c.061 0 .179-.002.353-.007.175-.006.326-.008.454-.008.315 0 .581.074.799.222.217.149.327.374.327.675 0 .413-.148.717-.442.914zm-4.044-1.336h-.04c0 .068-.145.55-.435 1.446h.896c-.28-.891-.421-1.373-.421-1.446zm1.582 2.9h-.797c0-.114-.076-.436-.227-.965h-1.15c-.157.52-.235.842-.235.965h-.75c0-.067.195-.618.582-1.652.388-1.034.582-1.603.582-1.708h.941c0 .098.176.66.527 1.684.35 1.024.527 1.583.527 1.676zm-5.469-1.685c0-.331-.092-.61-.278-.836-.186-.227-.47-.34-.852-.34-.072 0-.17.008-.294.023.016.345.025.705.025 1.08 0 .412.008.82.024 1.225.107.022.215.033.324.034.357 0 .621-.116.793-.346.172-.23.258-.51.258-.84zm.227 1.168c-.302.365-.726.547-1.27.547-.246 0-.585-.01-1.016-.03.021-.52.032-1.106.032-1.758 0-.626-.01-1.16-.032-1.602h.436c.071 0 .177-.003.318-.008.141-.005.234-.007.277-.007.599 0 1.033.155 1.303.464.27.31.405.681.405 1.115 0 .488-.15.915-.453 1.28zm-3.156.517h-.705a43.736 43.736 0 0 0 0-3.36h.705a43.01 43.01 0 0 0 0 3.36zm-2.362-2.543c-.178-.224-.397-.336-.657-.336-.243 0-.449.113-.618.338-.17.226-.254.511-.254.856 0 .358.089.65.267.874.179.225.398.337.657.337.242 0 .448-.113.617-.34.17-.226.254-.51.254-.853 0-.36-.088-.652-.266-.876zm.485 2.114a1.496 1.496 0 0 1-1.158.521c-.438 0-.805-.16-1.1-.478-.296-.32-.444-.725-.444-1.217 0-.527.156-.965.469-1.313a1.495 1.495 0 0 1 1.158-.521c.438 0 .805.159 1.1.477.296.318.444.724.444 1.218 0 .528-.156.966-.469 1.313zm-4.672-2.46a2.1 2.1 0 0 0-.414.036c.019.268.028.618.028 1.05.09.003.168.004.231.004.528 0 .792-.19.792-.573 0-.345-.213-.517-.637-.517zm.84 2.899c-.193-.611-.34-.988-.444-1.131-.103-.143-.27-.215-.5-.215-.097 0-.19 0-.277.003 0 .443.007.89.022 1.343h-.695c.022-.521.033-1.109.033-1.763 0-.627-.011-1.163-.033-1.607h.433c.05 0 .154-.002.313-.007.16-.006.307-.008.442-.008.765 0 1.147.27 1.147.812 0 .43-.218.73-.655.899v.038c.169.049.316.185.443.408.126.223.297.632.512 1.228zm-3.548-2.531c-.187-.227-.473-.34-.858-.34-.072 0-.17.008-.296.023.017.345.025.705.025 1.08 0 .412.009.82.025 1.225.107.022.217.033.326.034.36 0 .626-.116.799-.346.173-.23.26-.51.26-.84 0-.331-.094-.61-.281-.836zm.497 2.004c-.302.365-.725.547-1.27.547-.246 0-.584-.01-1.016-.03.022-.52.032-1.106.032-1.758 0-.626-.01-1.16-.032-1.602h.436c.071 0 .177-.003.319-.008.14-.005.233-.007.276-.007.6 0 1.034.155 1.304.464.27.31.405.681.405 1.115 0 .488-.152.915-.454 1.28zm-3.77.517c0-.07-.23-.443-.686-1.117-.478-.711-.75-1.197-.816-1.458h-.04c.041.376.062.717.062 1.022 0 .424.012.942.035 1.553h-.613a38.046 38.046 0 0 0 0-3.36h.74c0 .092.205.456.615 1.092.436.676.687 1.134.752 1.375h.037c-.04-.383-.06-.727-.06-1.032 0-.466-.011-.944-.034-1.435h.622c-.023.427-.035.961-.035 1.603 0 .646.012 1.232.035 1.757zm-4.173-2.9h-.04c0 .068-.147.55-.441 1.446h.906c-.284-.891-.425-1.373-.425-1.446zm.779 2.9c0-.114-.076-.436-.227-.965h-1.15c-.156.52-.235.842-.235.965h-.749c0-.067.194-.618.581-1.652.388-1.034.582-1.603.582-1.708h.941c0 .098.176.66.527 1.684.351 1.024.527 1.583.527 1.676z"/><linearGradient id="xyzfe" x1="1050.89" x2="1050.89" y1="4244.83" y2="4271.41" gradientUnits="userSpaceOnUse"><stop offset="0" stop-color="#257cb0"/><stop offset=".29" stop-color="#4a93b5"/><stop offset=".77" stop-color="#78bcbb"/><stop offset="1" stop-color="#89cfbd"/></linearGradient><linearGradient id="xyzfh" x1="1044.34" x2="1060.97" y1="4251.42" y2="4251.42" gradientUnits="userSpaceOnUse"><stop offset="0" stop-color="#52c1ad"/><stop offset="1" stop-color="#dee89a"/></linearGradient><linearGradient id="xyzfk" x1="1052.65" x2="1052.65" y1="4258.12" y2="4271.51" gradientUnits="userSpaceOnUse"><stop offset="0" stop-color="#ec413d"/><stop offset=".17" stop-color="#da4452"/><stop offset=".57" stop-color="#b0487a"/><stop offset=".86" stop-color="#954a92"/><stop offset="1" stop-color="#8a4a9d"/></linearGradient><linearGradient id="xyzfn" x1="1062.24" x2="1062.24" y1="4254.55" y2="4261.69" gradientUnits="userSpaceOnUse"><stop offset="0" stop-color="#f58879"/><stop offset=".12" stop-color="#f69079"/><stop offset=".71" stop-color="#fcb877"/><stop offset="1" stop-color="#fec874"/></linearGradient><clipPath id="xyzfc"><use xlink:href="#xyzfa"/></clipPath><clipPath id="xyzff"><use xlink:href="#xyzfa"/></clipPath><clipPath id="xyzfi"><use xlink:href="#xyzfa"/></clipPath><clipPath id="xyzfl"><use xlink:href="#xyzfa"/></clipPath></defs><g><g opacity=".5" transform="translate(-1035 -4237)"><g opacity=".5"><use xlink:href="#xyzfb"/></g><g opacity=".5"><g opacity=".5"/><g clip-path="url(#xyzfc)" opacity=".5"><use fill="url(#xyzfe)" xlink:href="#xyzfd"/></g></g><g opacity=".5"><g opacity=".5"/><g clip-path="url(#xyzff)" opacity=".5"><use fill="url(#xyzfh)" xlink:href="#xyzfg"/></g></g><g opacity=".5"><g opacity=".5"/><g clip-path="url(#xyzfi)" opacity=".5"><use fill="url(#xyzfk)" xlink:href="#xyzfj"/></g></g><g opacity=".5"><g opacity=".5"/><g clip-path="url(#xyzfl)" opacity=".5"><use fill="url(#xyzfn)" xlink:href="#xyzfm"/></g></g><g opacity=".5"><use fill="#f9f9f9" xlink:href="#xyzfo"/></g><g opacity=".5"><use fill="#f9f9f9" xlink:href="#xyzfp"/></g><g opacity=".5"><use fill="#f9f9fa" xlink:href="#xyzfq"/></g></g></g></svg>