<svg xmlns="http://www.w3.org/2000/svg" xmlns:xlink="http://www.w3.org/1999/xlink" width="34" height="33" viewBox="0 0 34 33"><defs><path id="y3t7a" d="M196.9 3497.045v-1.055h.7c1.05 0 1.9.899 1.9 2.007v18.492c0 1.108-.85 2.006-1.9 2.006h-25.2c-1.05 0-1.9-.898-1.9-2.006v-18.492c0-1.108.85-2.007 1.9-2.007h20.3v1.055h-20.3c-.497 0-.9.426-.9.952v18.492c0 .526.403.952.9.952h25.2c.497 0 .9-.426.9-.952v-18.492c0-.526-.403-.952-.9-.952z"/><path id="y3t7b" d="M180.837 3519.02h1v.756l-.667 3.516v.651h-1v-.755l.667-3.517zm.016.598l-.01.1v-.05z"/><path id="y3t7c" d="M186.83 3519.776v-.756h1v.651l.667 3.517v.755h-1v-.651z"/><path id="y3t7d" d="M178.67 3524.825v-1.055h11v1.055z"/><path id="y3t7e" d="M167.667 3492.47h26.666c.645 0 1.167.551 1.167 1.23v20.045c0 .68-.522 1.23-1.167 1.23h-26.666c-.645 0-1.167-.55-1.167-1.23V3493.7c0-.68.522-1.231 1.167-1.231zm0 1.055a.171.171 0 0 0-.167.176v20.044c0 .097.075.176.167.176h26.666a.171.171 0 0 0 .167-.176V3493.7a.171.171 0 0 0-.167-.176z"/><path id="y3t7f" d="M191.33 3499.855v-1.055h1.333v1.055z"/><path id="y3t7g" d="M177.527 3511.496l-1.35.613h-2.127v-1.055h1.921l1.35-.613.964.001.597.543 3.182-1.155h1.566l2.024 1.226h.468l3.83-1.224h.321v1.055h-.174l-3.83 1.224h-.881l-2.024-1.226h-1.133l-3.567 1.294-.751-.682z"/><path id="y3t7h" d="M176.177 3510.273h-2.127v-1.055h1.921l2.7-1.225h1.972l3.374-2.45h.963l2.024 1.227h.317l2.052-2.45h.9v1.055h-.45l-2.052 2.45h-1.033l-2.024-1.226h-.386l-3.375 2.45h-2.076z"/><path id="y3t7i" d="M175.543 3508.433h-1.483v-1.055h1.216l2.025-1.225H179.23l2.025-2.45h.684l2.7-3.063h1.026l2.024 1.226h.356l1.35-1.225h.93l-.001 1.055h-.558l-1.35 1.225h-.994l-2.024-1.226h-.324l-2.7 3.063h-.664l-2.025 2.45h-2.119z"/><path id="y3t7j" d="M174 3499.855v-1.055h5.785v1.055z"/><path id="y3t7k" d="M174 3501.615v-1.055h2.382v1.055z"/></defs><g><g transform="translate(-166 -3492)"><g><use fill="#69dadf" xlink:href="#y3t7a"/></g><g><use fill="#69dadf" xlink:href="#y3t7b"/></g><g><use fill="#69dadf" xlink:href="#y3t7c"/></g><g><use fill="#69dadf" xlink:href="#y3t7d"/></g><g><use fill="#69dadf" xlink:href="#y3t7e"/></g><g><use fill="#69dadf" xlink:href="#y3t7f"/></g><g><g><g><use fill="#69dadf" xlink:href="#y3t7g"/></g><g><use fill="#69dadf" xlink:href="#y3t7h"/></g><g><use fill="#69dadf" xlink:href="#y3t7i"/></g></g><g><use fill="#69dadf" xlink:href="#y3t7j"/></g><g><use fill="#69dadf" xlink:href="#y3t7k"/></g></g></g></g></svg>