<svg xmlns="http://www.w3.org/2000/svg" xmlns:xlink="http://www.w3.org/1999/xlink" width="16" height="14" viewBox="0 0 16 14"><defs><path id="e4xja" d="M159.244 5423h3.43v-9.446h-3.43zm1.738-14c-1.174 0-1.942.705-1.942 1.632 0 .907.746 1.633 1.897 1.633h.023c1.197 0 1.941-.726 1.941-1.633-.022-.927-.744-1.632-1.919-1.632zm10.142 4.332c-1.826 0-2.642.918-3.098 1.56v.031h-.023l.023-.03v-1.34h-3.438c.046.887 0 9.447 0 9.447h3.438v-5.275c0-.283.023-.564.114-.766.249-.565.814-1.149 1.764-1.149 1.244 0 1.74.867 1.74 2.136V5423h3.438v-5.417c0-2.901-1.696-4.251-3.958-4.251z"/></defs><g><g transform="translate(-159 -5409)"><use fill="#fff" xlink:href="#e4xja"/></g></g></svg>