<?xml version="1.0" encoding="UTF-8"?>
<svg width="320px" height="68px" viewBox="0 0 320 68" version="1.1" xmlns="http://www.w3.org/2000/svg" xmlns:xlink="http://www.w3.org/1999/xlink">
    <!-- Generator: Sketch 48.2 (47327) - http://www.bohemiancoding.com/sketch -->
    <title>Logo</title>
    <desc>Created with Sketch.</desc>
    <defs>
        <polygon id="path-1" points="0.0241748466 0.612388889 10.2937047 0.612388889 10.2937047 44.6111111 0.0241748466 44.6111111"></polygon>
        <linearGradient x1="50%" y1="0%" x2="56.7294522%" y2="100%" id="linearGradient-3">
            <stop stop-color="#69F3DA" offset="0%"></stop>
            <stop stop-color="#50C1F5" offset="100%"></stop>
        </linearGradient>
        <path d="M105.296993,16.2222222 C103.916195,16.2222222 102.633404,16.8893611 101.910336,17.9843611 L85.5280665,42.7759722 C84.5305818,44.2886944 84.8224223,46.2475278 86.2271769,47.4479722 C88.0740481,49.0215278 90.9140481,48.7072222 92.2708886,46.8213889 L102.269692,32.9169167 C103.850858,30.7167778 107.326809,30.7289444 108.892729,32.9351667 L118.65414,46.6895833 C120.026226,48.6220556 122.942453,48.9221667 124.732698,47.3161667 C126.076471,46.1116667 126.339999,44.1954167 125.364293,42.7131111 L109.073496,17.9884167 C108.350428,16.8913889 107.065459,16.2222222 105.684662,16.2222222 L105.296993,16.2222222 Z" id="path-4"></path>
        <polygon id="path-6" points="299.132583 26.0204444 334.732331 26.0204444 334.732331 58.1485556 299.132583 58.1485556"></polygon>
    </defs>
    <g id="Page-1" stroke="none" stroke-width="1" fill="none" fill-rule="evenodd">
        <g id="Group-88" transform="translate(-1337.000000, -66.000000)">
            <g id="Logo" transform="translate(1320.000000, 52.000000)">
                <g id="logo-black">
                    <path d="M35.992862,33.3650556 C34.1677699,33.3650556 32.6889663,34.7419167 32.6889663,36.4411944 L32.6889663,46.3833889 C32.6889663,48.4740278 33.1376166,49.8468333 34.0370951,50.6234722 C34.9975552,51.3413056 36.9228313,51.7002222 39.8739049,51.7002222 C41.1523405,51.7002222 42.3523712,51.6393889 43.4652853,51.5217778 C45.2119724,51.3331944 46.8062055,52.4505 47.0958681,54.0666389 C47.402954,55.7780833 46.1942117,57.3901667 44.3930767,57.6456667 C42.0452853,57.9822778 39.6757147,58.1485556 37.3083221,58.1485556 C32.6889663,58.1485556 29.3545798,57.3719167 27.3661442,55.8794722 C25.3755307,54.3261944 24.3497331,51.4001111 24.3497331,47.0991944 L24.3497331,36.4411944 C24.3497331,34.7419167 22.8709294,33.3650556 21.0458374,33.3650556 L20.727862,33.3650556 C18.9027699,33.3650556 17.4239663,31.9881944 17.4239663,30.2889167 L17.4239663,29.9908333 C17.4239663,28.2915556 18.9027699,26.9146944 20.727862,26.9146944 L21.0458374,26.9146944 C22.8709294,26.9146944 24.3497331,25.5378333 24.3497331,23.8385556 C24.3497331,22.5042778 25.2753466,21.3220833 26.6387209,20.9104444 L28.3701626,20.3913333 C30.820316,19.9796944 32.6889663,21.2308333 32.6889663,23.3174167 L32.6889663,23.8385556 C32.6889663,25.5378333 34.1677699,26.9146944 35.992862,26.9146944 L43.1756227,26.9146944 C45.0007147,26.9146944 46.4795184,28.2915556 46.4795184,29.9908333 L46.4795184,30.2889167 C46.4795184,31.9881944 45.0007147,33.3650556 43.1756227,33.3650556 L35.992862,33.3650556 Z" id="Fill-1" fill="#000000" fill-rule="evenodd"></path>
                    <path d="M77.6857607,27.0361583 L77.6857607,32.1806306 C77.6857607,32.7362417 77.1826626,33.1701861 76.588092,33.1194917 C75.6102086,33.0363528 74.5016503,33.0059361 73.2602393,33.0059361 C68.2488589,33.0059361 63.9082761,33.9184361 62.9913742,35.5183528 C62.947816,35.5954083 62.921681,35.6704361 62.8977239,35.7556028 C62.7256687,36.3984083 62.6124172,37.2521028 62.6124172,38.2619361 L62.6124172,56.3659361 C62.6124172,56.8891028 62.1572331,57.3129083 61.5953313,57.3129083 L55.2902699,57.3129083 C54.7283681,57.3129083 54.273184,56.8891028 54.273184,56.3659361 L54.273184,27.8614639 C54.273184,27.3382972 54.7283681,26.9144917 55.2902699,26.9144917 L61.5953313,26.9144917 C62.1572331,26.9144917 62.6124172,27.3382972 62.6124172,27.8614639 C62.6124172,28.6583806 63.5881227,29.0781306 64.2676319,28.5934917 C66.6568037,26.8861028 70.0173252,26.0202417 74.3491963,26.0202417 C75.0983988,26.0202417 75.878092,26.0506583 76.716589,26.0912139 C77.2588896,26.1155472 77.6857607,26.5312417 77.6857607,27.0361583" id="Fill-3" fill="#000000" fill-rule="evenodd"></path>
                    <path d="M159.924451,51.6517583 C162.021782,51.408425 163.585525,49.7334806 163.585525,47.7645083 L163.585525,35.3362583 C163.585525,33.6045361 159.73715,32.4081472 154.605985,32.4081472 C150.435279,32.4081472 147.67804,33.0651472 146.329911,34.3791472 C144.98396,35.6931472 144.278316,38.2623417 144.278316,42.0847028 C144.278316,46.2031194 144.918623,48.8331472 146.266752,50.0863139 C147.61488,51.3415083 150.435279,51.937675 154.734482,51.937675 C156.546506,51.937675 158.27577,51.8423694 159.924451,51.6517583 M163.585525,22.7599806 L163.585525,18.1062306 C163.585525,15.9466472 165.465064,14.1946472 167.786721,14.1946472 C170.106199,14.1946472 171.987917,15.9466472 171.987917,18.1062306 L171.987917,53.1077028 C171.987917,54.9367583 170.633255,56.5326194 168.714512,56.9260083 C164.696261,57.7492861 160.024635,58.1487583 154.734482,58.1487583 C147.998193,58.1487583 143.124021,57.0132028 140.109788,54.6853139 C137.158715,52.3553972 135.684267,48.1153139 135.684267,42.0847028 C135.684267,36.1717028 137.095555,32.0512583 139.915954,29.6625361 C142.738531,27.2129806 147.037733,26.0186194 152.809206,26.0186194 C154.784574,26.0186194 156.677181,26.2011194 158.489206,26.5742306 C161.107058,27.1136194 163.585525,25.256175 163.585525,22.7599806" id="Fill-5" fill="#000000" fill-rule="evenodd"></path>
                    <path d="M191.924325,33.2454167 C190.950798,33.8922778 190.277822,34.9791667 189.88362,36.4797222 C189.626626,37.4469722 190.441166,38.3817778 191.512699,38.3817778 L205.856442,38.3817778 C206.888773,38.3817778 207.677178,37.5138889 207.507301,36.5669167 C207.21546,34.9386111 206.627423,33.8111667 205.714877,33.1866111 C204.495245,32.2903333 202.315153,31.8726111 199.043926,31.8726111 C195.644202,31.8726111 193.270276,32.3491389 191.924325,33.2454167 M212.128834,29.2446111 C215.143067,31.6333333 216.234202,35.8146111 216.234202,42.5022222 C216.234202,43.3599722 215.487178,44.0555 214.56592,44.0555 L191.209969,44.0555 C190.201595,44.0555 189.426258,44.8868889 189.552577,45.8176389 C189.853129,48.0096667 190.652423,49.51225 191.987485,50.3253889 C193.718926,51.3413056 196.735337,51.8786667 201.032362,51.8786667 C204.379816,51.8786667 207.631442,51.5298889 210.791595,50.8282778 C211.678006,50.6336111 212.566595,51.1689444 212.769141,51.9983056 L213.546656,55.1271667 C213.753558,55.9707222 213.189479,56.8203611 212.281288,56.9967778 C208.232546,57.7774722 204.046595,58.1485556 199.81273,58.1485556 C193.592607,58.1485556 188.844755,56.9541944 185.573528,54.5046389 C182.302301,52.0571111 180.634018,47.8758333 180.634018,41.9648611 C180.634018,30.3193333 186.856319,26.0204444 198.978589,26.0204444 C205.394724,26.0204444 209.24092,26.7950556 212.128834,29.2446111" id="Fill-7" fill="#000000" fill-rule="evenodd"></path>
                    <g id="Group-11" stroke-width="1" fill-rule="evenodd" transform="translate(224.325153, 13.582056)">
                        <mask id="mask-2" fill="white">
                            <use xlink:href="#path-1"></use>
                        </mask>
                        <g id="Clip-10"></g>
                        <path d="M6.06353067,0.612186111 C7.3332546,0.612186111 8.36340798,1.571325 8.36340798,2.75149167 L8.36340798,35.1898528 C8.36340798,37.0107972 8.8926411,38.6938528 9.95110736,40.2592972 C10.7351564,41.4171583 10.1100951,42.9521861 8.72058589,43.3881583 L5.17929755,44.4973528 C4.30159816,44.769075 3.31064724,44.550075 2.72261043,43.8869917 C0.936720859,41.8774639 0.0241748466,39.0649361 0.0241748466,35.4899639 L0.0241748466,2.75149167 C0.0241748466,1.571325 1.05215031,0.612186111 2.32187423,0.612186111 L6.06353067,0.612186111 Z" id="Fill-9" fill="#000000" mask="url(#mask-2)"></path>
                    </g>
                    <path d="M251.78277,30.088775 L251.78277,54.1382194 C251.78277,55.8922472 250.256052,57.3116917 248.374334,57.3116917 L246.851972,57.3116917 C244.970255,57.3116917 243.443537,55.8922472 243.443537,54.1382194 L243.443537,30.088775 C243.443537,28.336775 244.970255,26.9153028 246.851972,26.9153028 L248.374334,26.9153028 C250.256052,26.9153028 251.78277,28.336775 251.78277,30.088775 M252.616911,17.897775 C252.616911,21.3024139 251.525776,22.0182194 247.677402,22.0182194 C243.76369,22.0182194 242.609396,21.3024139 242.609396,17.897775 C242.609396,14.8520528 243.76369,14.2538583 247.677402,14.2538583 C251.525776,14.2538583 252.616911,14.8520528 252.616911,17.897775" id="Fill-12" fill="#000000" fill-rule="evenodd"></path>
                    <path d="M258.531472,56.0844806 C258.531472,55.7620639 258.666503,55.4558694 258.910429,55.2267306 C262.584571,51.7896472 266.496104,47.9105083 270.588405,43.6967861 C273.822607,40.3692028 276.405613,37.5830361 278.359202,35.366675 C279.064847,34.5657028 278.448497,33.3652583 277.337761,33.3652583 L261.197239,33.3652583 C260.467638,33.3652583 259.877423,32.8157306 259.877423,32.136425 L259.877423,28.1417028 C259.877423,27.464425 260.467638,26.9148972 261.197239,26.9148972 L292.618006,26.9148972 C293.345429,26.9148972 293.937822,27.464425 293.937822,28.1417028 L293.937822,28.157925 C293.937822,28.4357306 293.839816,28.7013694 293.654693,28.9183417 C290.821227,32.2438972 287.384479,36.0175917 283.224663,40.3529806 C280.04273,43.7190917 277.294202,46.5133694 274.955123,48.7844806 C274.149294,49.565175 274.739509,50.8629528 275.904693,50.8629528 L292.043037,50.8629528 C292.77046,50.8629528 293.358497,51.4124806 293.358497,52.0897583 L293.358497,56.0844806 C293.358497,56.7637861 292.77046,57.3112861 292.043037,57.3112861 L259.846933,57.3112861 C259.121687,57.3112861 258.531472,56.7637861 258.531472,56.0844806" id="Fill-14" fill="#000000" fill-rule="evenodd"></path>
                    <mask id="mask-5" fill="white">
                        <use xlink:href="#path-4"></use>
                    </mask>
                    <use id="Clip-21" fill="url(#linearGradient-3)" fill-rule="evenodd" xlink:href="#path-4"></use>
                    <mask id="mask-7" fill="white">
                        <use xlink:href="#path-6"></use>
                    </mask>
                    <g id="Clip-17"></g>
                    <path d="M310.42289,33.2454167 C309.449362,33.8922778 308.776387,34.9791667 308.382184,36.4797222 C308.127368,37.4469722 308.93973,38.3817778 310.011264,38.3817778 L324.357184,38.3817778 C325.387337,38.3817778 326.175742,37.5138889 326.005865,36.5669167 C325.714025,34.9386111 325.125988,33.8111667 324.213442,33.1866111 C322.99381,32.2903333 320.813718,31.8726111 317.544669,31.8726111 C314.142767,31.8726111 311.76884,32.3491389 310.42289,33.2454167 M330.627399,29.2446111 C333.641632,31.6333333 334.732767,35.8146111 334.732767,42.5022222 C334.732767,43.3599722 333.985742,44.0555 333.064485,44.0555 L309.710712,44.0555 C308.70016,44.0555 307.927,44.8868889 308.051141,45.8176389 C308.351693,48.0096667 309.150988,49.51225 310.486049,50.3253889 C312.217491,51.3413056 315.233902,51.8786667 319.533104,51.8786667 C322.87838,51.8786667 326.132184,51.5298889 329.29016,50.8282778 C330.176571,50.6336111 331.06516,51.1689444 331.267706,51.9983056 L332.045221,55.1271667 C332.252123,55.9707222 331.688043,56.8203611 330.779853,56.9967778 C326.73111,57.7774722 322.547337,58.1485556 318.311294,58.1485556 C312.091172,58.1485556 307.345497,56.9541944 304.072092,54.5046389 C300.803043,52.0571111 299.132583,47.8758333 299.132583,41.9648611 C299.132583,30.3193333 305.357061,26.0204444 317.477153,26.0204444 C323.893288,26.0204444 327.741663,26.7950556 330.627399,29.2446111" id="Fill-16" fill="#000000" fill-rule="evenodd" mask="url(#mask-7)"></path>
                </g>
                <path d="M27.9288815,72.0186888 L27.9288815,73.8908736 L25.1809659,73.8908736 L25.1809659,81.7512967 L22.7192915,81.7512967 L22.7192915,73.8908736 L20,73.8908736 L20,72.0186888 L27.9288815,72.0186888 Z M35.4754265,75.5152693 C35.780752,75.0472207 36.1743297,74.6755407 36.6561715,74.400218 C37.1380133,74.1248954 37.6603983,73.9872361 38.2233421,73.9872361 L38.2233421,76.506426 L37.5220512,76.506426 C36.8732345,76.506426 36.3699321,76.6394966 36.0121288,76.9056418 C35.6543255,77.1717871 35.4754265,77.621474 35.4754265,78.2547162 L35.4754265,81.7512967 L33.0280642,81.7512967 L33.0280642,74.0698325 L35.4754265,74.0698325 L35.4754265,75.5152693 Z M46.3566817,73.97347 C46.9673326,73.97347 47.4921029,74.1065406 47.9310083,74.3726859 C48.3699137,74.6388312 48.6943172,75.0013339 48.9042284,75.460205 L48.9042284,74.0698325 L51.3372787,74.0698325 L51.3372787,81.7512967 L48.9042284,81.7512967 L48.9042284,80.3609241 C48.6943172,80.8197952 48.3699137,81.182298 47.9310083,81.4484433 C47.4921029,81.7145885 46.9673326,81.8476591 46.3566817,81.8476591 C45.6983236,81.8476591 45.1091497,81.689351 44.5891422,81.3727299 C44.0691347,81.0561088 43.6588598,80.5995389 43.358305,80.0030064 C43.0577502,79.406474 42.9074751,78.7090003 42.9074751,77.9105646 C42.9074751,77.1029514 43.0577502,76.4031834 43.358305,75.8112397 C43.6588598,75.2192959 44.0691347,74.7650203 44.5891422,74.4483993 C45.1091497,74.1317782 45.6983236,73.97347 46.3566817,73.97347 Z M47.143845,76.0383797 C46.6190668,76.0383797 46.1968653,76.2035709 45.8772276,76.5339581 C45.55759,76.8643453 45.3977736,77.3232095 45.3977736,77.9105646 C45.3977736,78.4979196 45.55759,78.9567839 45.8772276,79.2871711 C46.1968653,79.6175583 46.6190668,79.7827494 47.143845,79.7827494 C47.6590817,79.7827494 48.0812833,79.6129696 48.4104623,79.273405 C48.7396414,78.9338404 48.9042284,78.4795648 48.9042284,77.9105646 C48.9042284,77.332387 48.7396414,76.875817 48.4104623,76.5408411 C48.0812833,76.2058652 47.6590817,76.0383797 47.143845,76.0383797 Z M60.128973,73.97347 C60.739624,73.97347 61.2643943,74.1065406 61.7032997,74.3726859 C62.142205,74.6388312 62.4618379,75.0013339 62.6622077,75.460205 L62.6622077,71.5644087 L65.10957,71.5644087 L65.10957,81.7512967 L62.6622077,81.7512967 L62.6622077,80.3609241 C62.4618379,80.8197952 62.142205,81.182298 61.7032997,81.4484433 C61.2643943,81.7145885 60.739624,81.8476591 60.128973,81.8476591 C59.4706149,81.8476591 58.881441,81.689351 58.3614335,81.3727299 C57.8414261,81.0561088 57.4311511,80.5995389 57.1305963,80.0030064 C56.8300416,79.406474 56.6797664,78.7090003 56.6797664,77.9105646 C56.6797664,77.1029514 56.8300416,76.4031834 57.1305963,75.8112397 C57.4311511,75.2192959 57.8414261,74.7650203 58.3614335,74.4483993 C58.881441,74.1317782 59.4706149,73.97347 60.128973,73.97347 Z M60.9161363,76.0383797 C60.3913582,76.0383797 59.9691566,76.2035709 59.649519,76.5339581 C59.3298814,76.8643453 59.170065,77.3232095 59.170065,77.9105646 C59.170065,78.4979196 59.3298814,78.9567839 59.649519,79.2871711 C59.9691566,79.6175583 60.3913582,79.7827494 60.9161363,79.7827494 C61.4313731,79.7827494 61.8535746,79.6129696 62.1827537,79.273405 C62.5119327,78.9338404 62.6765198,78.4795648 62.6765198,77.9105646 C62.6765198,77.332387 62.5119327,76.875817 62.1827537,76.5408411 C61.8535746,76.2058652 61.4313731,76.0383797 60.9161363,76.0383797 Z M78.4524996,77.7040736 C78.4524996,77.8967995 78.4286464,78.107877 78.3809393,78.3373126 L72.8421719,78.3373126 C72.8707961,78.9154902 73.0234566,79.3307623 73.3001578,79.5831415 C73.576859,79.8355206 73.9298863,79.9617082 74.3592503,79.9617082 C74.7218243,79.9617082 75.0223746,79.874524 75.2609101,79.700153 C75.4994456,79.525782 75.6568767,79.3009385 75.7332081,79.0256158 L78.323691,79.0256158 C78.2187354,79.5670838 77.9897447,80.0511855 77.6367121,80.4779357 C77.2836795,80.9046858 76.8352395,81.2396567 76.2913784,81.4828584 C75.7475174,81.7260601 75.1416463,81.8476591 74.4737468,81.8476591 C73.6913502,81.8476591 72.9972222,81.689351 72.391342,81.3727299 C71.7854617,81.0561088 71.3107831,80.5995389 70.967292,80.0030064 C70.6238008,79.406474 70.4520578,78.7090003 70.4520578,77.9105646 C70.4520578,77.1029514 70.6214155,76.4031834 70.9601359,75.8112397 C71.2988564,75.2192959 71.773535,74.7650203 72.3841859,74.4483993 C72.9948369,74.1317782 73.6913502,73.97347 74.4737468,73.97347 C75.2656847,73.97347 75.962198,74.1294839 76.5633076,74.4415162 C77.1644171,74.7535486 77.6295545,75.1917639 77.9587335,75.7561754 C78.2879125,76.3205869 78.4524996,76.9698798 78.4524996,77.7040736 Z M75.9765131,77.3461559 C75.9860545,76.8413977 75.8453207,76.4628347 75.5543073,76.2104556 C75.263294,75.9580764 74.9031107,75.8318888 74.4737468,75.8318888 C74.0253,75.8318888 73.6531901,75.9603708 73.357406,76.2173386 C73.061622,76.4743064 72.8946496,76.8505751 72.8564839,77.3461559 L75.9765131,77.3461559 Z M94.6476183,73.0236115 C94.2468786,73.0236115 93.9558696,73.1062071 93.7745826,73.2714007 C93.5932956,73.4365943 93.4931122,73.7027356 93.4740294,74.0698325 L94.9195475,74.0698325 L94.9195475,76.0521458 L93.4740294,76.0521458 L93.4740294,81.7512967 L91.026667,81.7512967 L91.026667,76.0521458 L90.067759,76.0521458 L90.067759,74.0698325 L91.026667,74.0698325 L91.026667,73.9872361 C91.026667,73.0327841 91.3152907,72.296307 91.8925467,71.7777827 C92.4698027,71.2592583 93.3070498,71 94.4043133,71 C94.6333074,71 94.8050504,71.0045886 94.9195475,71.0137661 L94.9195475,73.0373776 L94.6476183,73.0236115 Z M103.095823,73.97347 C103.706474,73.97347 104.231244,74.1065406 104.67015,74.3726859 C105.109055,74.6388312 105.433459,75.0013339 105.64337,75.460205 L105.64337,74.0698325 L108.07642,74.0698325 L108.07642,81.7512967 L105.64337,81.7512967 L105.64337,80.3609241 C105.433459,80.8197952 105.109055,81.182298 104.67015,81.4484433 C104.231244,81.7145885 103.706474,81.8476591 103.095823,81.8476591 C102.437465,81.8476591 101.848291,81.689351 101.328284,81.3727299 C100.808276,81.0561088 100.398001,80.5995389 100.097446,80.0030064 C99.7968917,79.406474 99.6466166,78.7090003 99.6466166,77.9105646 C99.6466166,77.1029514 99.7968917,76.4031834 100.097446,75.8112397 C100.398001,75.2192959 100.808276,74.7650203 101.328284,74.4483993 C101.848291,74.1317782 102.437465,73.97347 103.095823,73.97347 Z M103.882986,76.0383797 C103.358208,76.0383797 102.936007,76.2035709 102.616369,76.5339581 C102.296732,76.8643453 102.136915,77.3232095 102.136915,77.9105646 C102.136915,78.4979196 102.296732,78.9567839 102.616369,79.2871711 C102.936007,79.6175583 103.358208,79.7827494 103.882986,79.7827494 C104.398223,79.7827494 104.820425,79.6129696 105.149604,79.273405 C105.478783,78.9338404 105.64337,78.4795648 105.64337,77.9105646 C105.64337,77.332387 105.478783,76.875817 105.149604,76.5408411 C104.820425,76.2058652 104.398223,76.0383797 103.882986,76.0383797 Z M116.739306,73.97347 C117.750697,73.97347 118.55932,74.2166681 119.1652,74.7030715 C119.77108,75.1894748 120.150346,75.8318848 120.303009,76.6303205 L118.013079,76.6303205 C117.946289,76.3182882 117.796014,76.0727958 117.562249,75.8938361 C117.328485,75.7148763 117.03509,75.6253978 116.682058,75.6253978 C116.405356,75.6253978 116.195448,75.6827558 116.052327,75.7974736 C115.909206,75.9121914 115.837646,76.0750882 115.837646,76.2861689 C115.837646,76.5247819 115.968839,76.703739 116.231228,76.8230454 C116.493617,76.9423519 116.906277,77.0616566 117.469221,77.1809631 C118.079872,77.3186245 118.580789,77.4585781 118.971987,77.6008281 C119.363186,77.7430782 119.701901,77.9748046 119.988144,78.2960144 C120.274386,78.6172242 120.417505,79.0485566 120.417505,79.5900245 C120.417505,80.0305408 120.293469,80.4205754 120.045392,80.76014 C119.797315,81.0997046 119.439517,81.3658459 118.971987,81.5585718 C118.504458,81.7512976 117.951064,81.8476591 117.311788,81.8476591 C116.233608,81.8476591 115.370122,81.618227 114.721305,81.1593559 C114.072489,80.7004848 113.676526,80.0443089 113.533404,79.1908086 L115.894894,79.1908086 C115.93306,79.5211958 116.078565,79.7735712 116.331412,79.9479422 C116.58426,80.1223132 116.911049,80.2094974 117.311788,80.2094974 C117.58849,80.2094974 117.798398,80.1475507 117.941519,80.0236555 C118.08464,79.8997603 118.1562,79.7368635 118.1562,79.5349602 C118.1562,79.268815 118.025007,79.0783863 117.762618,78.9636685 C117.500229,78.8489508 117.073257,78.7273517 116.481689,78.5988678 C115.890121,78.4795613 115.403516,78.3510793 115.021859,78.213418 C114.640202,78.0757567 114.311028,77.8532075 114.034327,77.5457639 C113.757625,77.2383202 113.619277,76.8184594 113.619277,76.2861689 C113.619277,75.5978622 113.891203,75.0403422 114.435064,74.613592 C114.978925,74.1868419 115.746998,73.97347 116.739306,73.97347 Z M130.368477,79.7276851 L130.368477,81.7512967 L129.266448,81.7512967 C128.331389,81.7512967 127.603866,81.5287475 127.083859,81.0836425 C126.563851,80.6385375 126.303852,79.9020604 126.303852,78.8741891 L126.303852,76.0521458 L125.230447,76.0521458 L125.230447,74.0698325 L126.303852,74.0698325 L126.303852,72.1838816 L128.751214,72.1838816 L128.751214,74.0698325 L130.354165,74.0698325 L130.354165,76.0521458 L128.751214,76.0521458 L128.751214,78.9154873 C128.751214,79.2183423 128.815617,79.4294198 128.944427,79.5487263 C129.073236,79.6680328 129.2903,79.7276851 129.595625,79.7276851 L130.368477,79.7276851 Z M143.396541,77.7040736 C143.396541,77.8967995 143.372688,78.107877 143.324981,78.3373126 L137.786213,78.3373126 C137.814837,78.9154902 137.967498,79.3307623 138.244199,79.5831415 C138.5209,79.8355206 138.873928,79.9617082 139.303292,79.9617082 C139.665866,79.9617082 139.966416,79.874524 140.204951,79.700153 C140.443487,79.525782 140.600918,79.3009385 140.677249,79.0256158 L143.267732,79.0256158 C143.162777,79.5670838 142.933786,80.0511855 142.580753,80.4779357 C142.227721,80.9046858 141.779281,81.2396567 141.23542,81.4828584 C140.691559,81.7260601 140.085688,81.8476591 139.417788,81.8476591 C138.635392,81.8476591 137.941264,81.689351 137.335383,81.3727299 C136.729503,81.0561088 136.254824,80.5995389 135.911333,80.0030064 C135.567842,79.406474 135.396099,78.7090003 135.396099,77.9105646 C135.396099,77.1029514 135.565457,76.4031834 135.904177,75.8112397 C136.242898,75.2192959 136.717576,74.7650203 137.328227,74.4483993 C137.938878,74.1317782 138.635392,73.97347 139.417788,73.97347 C140.209726,73.97347 140.906239,74.1294839 141.507349,74.4415162 C142.108458,74.7535486 142.573596,75.1917639 142.902775,75.7561754 C143.231954,76.3205869 143.396541,76.9698798 143.396541,77.7040736 Z M140.920554,77.3461559 C140.930096,76.8413977 140.789362,76.4628347 140.498349,76.2104556 C140.207335,75.9580764 139.847152,75.8318888 139.417788,75.8318888 C138.969341,75.8318888 138.597231,75.9603708 138.301447,76.2173386 C138.005663,76.4743064 137.838691,76.8505751 137.800525,77.3461559 L140.920554,77.3461559 Z M151.186391,75.5152693 C151.491716,75.0472207 151.885294,74.6755407 152.367136,74.400218 C152.848978,74.1248954 153.371363,73.9872361 153.934307,73.9872361 L153.934307,76.506426 L153.233016,76.506426 C152.584199,76.506426 152.080897,76.6394966 151.723093,76.9056418 C151.36529,77.1717871 151.186391,77.621474 151.186391,78.2547162 L151.186391,81.7512967 L148.739029,81.7512967 L148.739029,74.0698325 L151.186391,74.0698325 L151.186391,75.5152693 Z M161.137362,79.3972996 L161.137362,81.7512967 L158.604127,81.7512967 L158.604127,79.3972996 L161.137362,79.3972996 Z M175.858339,72.0186888 L175.858339,81.7512967 L173.410976,81.7512967 L173.410976,72.0186888 L175.858339,72.0186888 Z M186.682346,73.9872361 C187.598322,73.9872361 188.325844,74.2809092 188.864935,74.8682642 C189.404025,75.4556193 189.673566,76.2632203 189.673566,77.2910917 L189.673566,81.7512967 L187.226204,81.7512967 L187.226204,77.566413 C187.226204,77.0524773 187.08547,76.6509711 186.803998,76.3618823 C186.522526,76.0727935 186.148031,75.9282512 185.680501,75.9282512 C185.184347,75.9282512 184.79077,76.0796764 184.499756,76.3825314 C184.208743,76.6853863 184.063238,77.1167187 184.063238,77.6765415 L184.063238,81.7512967 L181.615876,81.7512967 L181.615876,74.0698325 L184.063238,74.0698325 L184.063238,75.4739711 C184.292233,75.0151 184.633333,74.6525972 185.086551,74.386452 C185.539768,74.1203067 186.071695,73.9872361 186.682346,73.9872361 Z M199.052055,79.4523638 L200.783814,74.0698325 L203.388609,74.0698325 L200.554821,81.7512967 L197.520665,81.7512967 L194.686877,74.0698325 L197.291672,74.0698325 L199.052055,79.4523638 Z M216.058872,77.7040736 C216.058872,77.8967995 216.035019,78.107877 215.987312,78.3373126 L210.448544,78.3373126 C210.477169,78.9154902 210.629829,79.3307623 210.90653,79.5831415 C211.183231,79.8355206 211.536259,79.9617082 211.965623,79.9617082 C212.328197,79.9617082 212.628747,79.874524 212.867282,79.700153 C213.105818,79.525782 213.263249,79.3009385 213.33958,79.0256158 L215.930063,79.0256158 C215.825108,79.5670838 215.596117,80.0511855 215.243085,80.4779357 C214.890052,80.9046858 214.441612,81.2396567 213.897751,81.4828584 C213.35389,81.7260601 212.748019,81.8476591 212.080119,81.8476591 C211.297723,81.8476591 210.603595,81.689351 209.997714,81.3727299 C209.391834,81.0561088 208.917156,80.5995389 208.573664,80.0030064 C208.230173,79.406474 208.05843,78.7090003 208.05843,77.9105646 C208.05843,77.1029514 208.227788,76.4031834 208.566508,75.8112397 C208.905229,75.2192959 209.379907,74.7650203 209.990558,74.4483993 C210.601209,74.1317782 211.297723,73.97347 212.080119,73.97347 C212.872057,73.97347 213.56857,74.1294839 214.16968,74.4415162 C214.77079,74.7535486 215.235927,75.1917639 215.565106,75.7561754 C215.894285,76.3205869 216.058872,76.9698798 216.058872,77.7040736 Z M213.582886,77.3461559 C213.592427,76.8413977 213.451693,76.4628347 213.16068,76.2104556 C212.869666,75.9580764 212.509483,75.8318888 212.080119,75.8318888 C211.631672,75.8318888 211.259563,75.9603708 210.963778,76.2173386 C210.667994,76.4743064 210.501022,76.8505751 210.462856,77.3461559 L213.582886,77.3461559 Z M224.306708,73.97347 C225.318099,73.97347 226.126722,74.2166681 226.732602,74.7030715 C227.338482,75.1894748 227.717748,75.8318848 227.870411,76.6303205 L225.580481,76.6303205 C225.513691,76.3182882 225.363416,76.0727958 225.129651,75.8938361 C224.895887,75.7148763 224.602492,75.6253978 224.24946,75.6253978 C223.972759,75.6253978 223.76285,75.6827558 223.619729,75.7974736 C223.476608,75.9121914 223.405048,76.0750882 223.405048,76.2861689 C223.405048,76.5247819 223.536241,76.703739 223.79863,76.8230454 C224.061019,76.9423519 224.473679,77.0616566 225.036623,77.1809631 C225.647274,77.3186245 226.148191,77.4585781 226.539389,77.6008281 C226.930588,77.7430782 227.269303,77.9748046 227.555546,78.2960144 C227.841788,78.6172242 227.984908,79.0485566 227.984908,79.5900245 C227.984908,80.0305408 227.860871,80.4205754 227.612794,80.76014 C227.364717,81.0997046 227.006919,81.3658459 226.539389,81.5585718 C226.07186,81.7512976 225.518466,81.8476591 224.87919,81.8476591 C223.80101,81.8476591 222.937524,81.618227 222.288707,81.1593559 C221.639891,80.7004848 221.243928,80.0443089 221.100806,79.1908086 L223.462296,79.1908086 C223.500462,79.5211958 223.645967,79.7735712 223.898814,79.9479422 C224.151662,80.1223132 224.478451,80.2094974 224.87919,80.2094974 C225.155892,80.2094974 225.3658,80.1475507 225.508921,80.0236555 C225.652042,79.8997603 225.723602,79.7368635 225.723602,79.5349602 C225.723602,79.268815 225.592409,79.0783863 225.33002,78.9636685 C225.067631,78.8489508 224.640659,78.7273517 224.049091,78.5988678 C223.457523,78.4795613 222.970918,78.3510793 222.589261,78.213418 C222.207604,78.0757567 221.87843,77.8532075 221.601729,77.5457639 C221.325027,77.2383202 221.186679,76.8184594 221.186679,76.2861689 C221.186679,75.5978622 221.458605,75.0403422 222.002466,74.613592 C222.546327,74.1868419 223.3144,73.97347 224.306708,73.97347 Z M237.935879,79.7276851 L237.935879,81.7512967 L236.83385,81.7512967 C235.898791,81.7512967 235.171268,81.5287475 234.651261,81.0836425 C234.131253,80.6385375 233.871254,79.9020604 233.871254,78.8741891 L233.871254,76.0521458 L232.797849,76.0521458 L232.797849,74.0698325 L233.871254,74.0698325 L233.871254,72.1838816 L236.318616,72.1838816 L236.318616,74.0698325 L237.921567,74.0698325 L237.921567,76.0521458 L236.318616,76.0521458 L236.318616,78.9154873 C236.318616,79.2183423 236.38302,79.4294198 236.511829,79.5487263 C236.640638,79.6680328 236.857702,79.7276851 237.163027,79.7276851 L237.935879,79.7276851 Z M250.178073,81.6639144 L250.178073,79.9565997 C251.29155,80.4047161 252.24428,80.6287709 253.036293,80.6287709 C253.590701,80.6287709 254.027466,80.5100218 254.346601,80.2725202 C254.665735,80.0350185 254.8253,79.7123796 254.8253,79.3045937 C254.8253,78.98195 254.725135,78.7097234 254.524803,78.4879058 C254.32447,78.2660882 253.944776,78.0028238 253.385708,77.6981047 L252.693865,77.3284106 C251.766745,76.8265203 251.11218,76.3459227 250.73015,75.8866035 C250.34812,75.4272843 250.157109,74.890673 250.157109,74.2767536 C250.157109,73.4567007 250.470415,72.7979796 251.097036,72.3005705 C251.723658,71.8031614 252.551765,71.5544605 253.581381,71.5544605 C254.406006,71.5544605 255.335442,71.6687285 256.369717,71.8972678 L256.369717,73.4903134 C255.312147,73.1094145 254.475888,72.9189679 253.860913,72.9189679 C253.385706,72.9189679 253.004847,73.0209129 252.718324,73.2248058 C252.431802,73.4286987 252.288543,73.6964442 252.288543,74.0280503 C252.288543,74.3014013 252.388708,74.5411399 252.589041,74.7472734 C252.789373,74.9534069 253.166738,75.2065889 253.721147,75.5068268 L254.461908,75.9034078 C255.458912,76.4411474 256.146089,76.9363085 256.52346,77.388906 C256.90083,77.8415035 257.089513,78.3926783 257.089513,79.042447 C257.089513,79.9655666 256.733113,80.6892637 256.020301,81.2135598 C255.30749,81.7378559 254.324477,82 253.071234,82 C252.24195,82 251.277573,81.8879726 250.178073,81.6639144 Z M272.902335,73.9872361 C273.885101,73.9872361 274.657945,74.2786149 275.220889,74.8613812 C275.783833,75.4441475 276.0653,76.2540429 276.0653,77.2910917 L276.0653,81.7512967 L273.63225,81.7512967 L273.63225,77.566413 C273.63225,77.0800096 273.496287,76.7014466 273.224356,76.4307126 C272.952426,76.1599786 272.582701,76.0246137 272.115172,76.0246137 C271.628559,76.0246137 271.244523,76.1691559 270.963051,76.4582447 C270.681579,76.7473335 270.540845,77.1534284 270.540845,77.6765415 L270.540845,81.7512967 L268.093483,81.7512967 L268.093483,77.566413 C268.093483,77.0800096 267.959905,76.7014466 267.692745,76.4307126 C267.425585,76.1599786 267.058246,76.0246137 266.590716,76.0246137 C266.104104,76.0246137 265.717682,76.1668616 265.431439,76.4513617 C265.145197,76.7358618 265.002078,77.144251 265.002078,77.6765415 L265.002078,81.7512967 L262.554715,81.7512967 L262.554715,74.0698325 L265.002078,74.0698325 L265.002078,75.3776086 C265.211989,74.9462698 265.534007,74.6067102 265.968142,74.3589198 C266.402276,74.1111294 266.910349,73.9872361 267.492376,73.9872361 C268.103027,73.9872361 268.642109,74.122601 269.109639,74.393335 C269.577169,74.664069 269.930196,75.0518092 270.168731,75.5565675 C270.445433,75.0793415 270.824698,74.6984842 271.30654,74.4139841 C271.788382,74.129484 272.320308,73.9872361 272.902335,73.9872361 Z M284.799746,73.97347 C285.410397,73.97347 285.935168,74.1065406 286.374073,74.3726859 C286.812978,74.6388312 287.137382,75.0013339 287.347293,75.460205 L287.347293,74.0698325 L289.780343,74.0698325 L289.780343,81.7512967 L287.347293,81.7512967 L287.347293,80.3609241 C287.137382,80.8197952 286.812978,81.182298 286.374073,81.4484433 C285.935168,81.7145885 285.410397,81.8476591 284.799746,81.8476591 C284.141388,81.8476591 283.552214,81.689351 283.032207,81.3727299 C282.512199,81.0561088 282.101925,80.5995389 281.80137,80.0030064 C281.500815,79.406474 281.35054,78.7090003 281.35054,77.9105646 C281.35054,77.1029514 281.500815,76.4031834 281.80137,75.8112397 C282.101925,75.2192959 282.512199,74.7650203 283.032207,74.4483993 C283.552214,74.1317782 284.141388,73.97347 284.799746,73.97347 Z M285.58691,76.0383797 C285.062132,76.0383797 284.63993,76.2035709 284.320292,76.5339581 C284.000655,76.8643453 283.840838,77.3232095 283.840838,77.9105646 C283.840838,78.4979196 284.000655,78.9567839 284.320292,79.2871711 C284.63993,79.6175583 285.062132,79.7827494 285.58691,79.7827494 C286.102146,79.7827494 286.524348,79.6129696 286.853527,79.273405 C287.182706,78.9338404 287.347293,78.4795648 287.347293,77.9105646 C287.347293,77.332387 287.182706,76.875817 286.853527,76.5408411 C286.524348,76.2058652 286.102146,76.0383797 285.58691,76.0383797 Z M297.985243,75.5152693 C298.290569,75.0472207 298.684146,74.6755407 299.165988,74.400218 C299.64783,74.1248954 300.170215,73.9872361 300.733159,73.9872361 L300.733159,76.506426 L300.031868,76.506426 C299.383051,76.506426 298.879749,76.6394966 298.521946,76.9056418 C298.164142,77.1717871 297.985243,77.621474 297.985243,78.2547162 L297.985243,81.7512967 L295.537881,81.7512967 L295.537881,74.0698325 L297.985243,74.0698325 L297.985243,75.5152693 Z M310.354953,79.7276851 L310.354953,81.7512967 L309.252924,81.7512967 C308.317865,81.7512967 307.590342,81.5287475 307.070335,81.0836425 C306.550327,80.6385375 306.290328,79.9020604 306.290328,78.8741891 L306.290328,76.0521458 L305.216923,76.0521458 L305.216923,74.0698325 L306.290328,74.0698325 L306.290328,72.1838816 L308.73769,72.1838816 L308.73769,74.0698325 L310.340641,74.0698325 L310.340641,76.0521458 L308.73769,76.0521458 L308.73769,78.9154873 C308.73769,79.2183423 308.802093,79.4294198 308.930903,79.5487263 C309.059712,79.6680328 309.276776,79.7276851 309.582101,79.7276851 L310.354953,79.7276851 Z M323.383017,77.7040736 C323.383017,77.8967995 323.359164,78.107877 323.311457,78.3373126 L317.772689,78.3373126 C317.801313,78.9154902 317.953974,79.3307623 318.230675,79.5831415 C318.507376,79.8355206 318.860404,79.9617082 319.289768,79.9617082 C319.652342,79.9617082 319.952892,79.874524 320.191427,79.700153 C320.429963,79.525782 320.587394,79.3009385 320.663725,79.0256158 L323.254208,79.0256158 C323.149253,79.5670838 322.920262,80.0511855 322.567229,80.4779357 C322.214197,80.9046858 321.765757,81.2396567 321.221896,81.4828584 C320.678035,81.7260601 320.072164,81.8476591 319.404264,81.8476591 C318.621868,81.8476591 317.92774,81.689351 317.321859,81.3727299 C316.715979,81.0561088 316.2413,80.5995389 315.897809,80.0030064 C315.554318,79.406474 315.382575,78.7090003 315.382575,77.9105646 C315.382575,77.1029514 315.551933,76.4031834 315.890653,75.8112397 C316.229374,75.2192959 316.704052,74.7650203 317.314703,74.4483993 C317.925354,74.1317782 318.621868,73.97347 319.404264,73.97347 C320.196202,73.97347 320.892715,74.1294839 321.493825,74.4415162 C322.094934,74.7535486 322.560072,75.1917639 322.889251,75.7561754 C323.21843,76.3205869 323.383017,76.9698798 323.383017,77.7040736 Z M320.90703,77.3461559 C320.916572,76.8413977 320.775838,76.4628347 320.484825,76.2104556 C320.193811,75.9580764 319.833628,75.8318888 319.404264,75.8318888 C318.955817,75.8318888 318.583707,75.9603708 318.287923,76.2173386 C317.992139,76.4743064 317.825167,76.8505751 317.787001,77.3461559 L320.90703,77.3461559 Z M331.172867,75.5152693 C331.478192,75.0472207 331.87177,74.6755407 332.353612,74.400218 C332.835454,74.1248954 333.357839,73.9872361 333.920783,73.9872361 L333.920783,76.506426 L333.219492,76.506426 C332.570675,76.506426 332.067373,76.6394966 331.709569,76.9056418 C331.351766,77.1717871 331.172867,77.621474 331.172867,78.2547162 L331.172867,81.7512967 L328.725505,81.7512967 L328.725505,74.0698325 L331.172867,74.0698325 L331.172867,75.5152693 Z M334.756752,81.7512967 L334.756752,79.5936273 L337,79.5936273 L337,81.7512967 L334.756752,81.7512967 Z" id="Trade-faster.-Invest" fill="#000000"></path>
            </g>
        </g>
    </g>
</svg>