<?xml version="1.0" encoding="UTF-8"?>
<svg width="153px" height="30px" viewBox="0 0 153 30" version="1.1" xmlns="http://www.w3.org/2000/svg" xmlns:xlink="http://www.w3.org/1999/xlink">
    <!-- Generator: sketchtool 52.5 (67469) - http://www.bohemiancoding.com/sketch -->
    <title>F8C5777E-6B10-4A0C-A396-A4ABDC6327B3</title>
    <desc>Created with sketchtool.</desc>
    <defs>
        <linearGradient x1="50%" y1="0%" x2="56.7294522%" y2="100%" id="linearGradient-1">
            <stop stop-color="#69F3DA" offset="0%"></stop>
            <stop stop-color="#50C1F5" offset="100%"></stop>
        </linearGradient>
        <path d="M9.86267028,0.0750153584 C9.2010028,0.0750153584 8.58629914,0.388564195 8.2398108,0.903203631 L0.389554353,12.5550217 C-0.0884325038,13.2659865 0.0514151871,14.1866193 0.724562634,14.7508167 C1.60956893,15.4903725 2.97047486,15.342652 3.62066228,14.4563285 L8.41201136,7.92136069 C9.1696936,6.88731661 10.8353423,6.89303483 11.5857191,7.92993802 L16.2633114,14.3943812 C16.9208043,15.3026245 18.3182376,15.4436738 19.1761093,14.6888693 C19.8200349,14.1227659 19.9463152,13.2221469 19.4787648,12.5254776 L11.6723412,0.905109706 C11.3258528,0.389517236 10.7101055,0.0750153584 10.0484381,0.0750153584 L9.86267028,0.0750153584 Z" id="path-2"></path>
        <filter x="-66.1%" y="-72.6%" width="232.3%" height="271.6%" filterUnits="objectBoundingBox" id="filter-3">
            <feOffset dx="0" dy="2" in="SourceAlpha" result="shadowOffsetOuter1"></feOffset>
            <feGaussianBlur stdDeviation="4" in="shadowOffsetOuter1" result="shadowBlurOuter1"></feGaussianBlur>
            <feColorMatrix values="0 0 0 0 0   0 0 0 0 0.552941176   0 0 0 0 1  0 0 0 0.466853487 0" type="matrix" in="shadowBlurOuter1"></feColorMatrix>
        </filter>
        <polygon id="path-4" points="0.00724095998 0.281457585 17.0663633 0.281457585 17.0663633 15.3813599 0.00724095998 15.3813599"></polygon>
    </defs>
    <g id="Page-2" stroke="none" stroke-width="1" fill="none" fill-rule="evenodd">
        <g id="faq" transform="translate(-123.000000, -24.000000)">
            <g id="Logo" transform="translate(123.000000, 28.000000)">
                <g id="logo-black">
                    <path d="M8.91595756,9.52317554 C8.04138766,9.52317554 7.33275646,10.170287 7.33275646,10.9689311 L7.33275646,15.6416666 C7.33275646,16.6242467 7.5477462,17.2694521 7.97876934,17.6344649 C8.43901436,17.9718396 9.36159164,18.140527 10.7757232,18.140527 C11.3883396,18.140527 11.963385,18.1119359 12.4966848,18.0566598 C13.3336836,17.9680274 14.0976278,18.4931503 14.2364319,19.25272 C14.383585,20.0570824 13.8043651,20.814746 12.9412752,20.9348285 C11.8162318,21.0930325 10.680752,21.1711815 9.54631583,21.1711815 C7.33275646,21.1711815 5.73494433,20.8061686 4.78210141,20.1047342 C3.82821493,19.3747086 3.33666069,17.9994776 3.33666069,15.9780883 L3.33666069,10.9689311 C3.33666069,10.170287 2.62802949,9.52317554 1.7534596,9.52317554 L1.60108819,9.52317554 C0.72651829,9.52317554 0.0178870555,8.87606404 0.0178870555,8.07741991 L0.0178870555,7.93732362 C0.0178870555,7.13867949 0.72651829,6.49156799 1.60108819,6.49156799 L1.7534596,6.49156799 C2.62802949,6.49156799 3.33666069,5.84445658 3.33666069,5.04581244 C3.33666069,4.4187147 3.78020755,3.86309475 4.43352585,3.66962841 L5.26321925,3.42565122 C6.43731376,3.23218489 7.33275646,3.82020813 7.33275646,4.80088216 L7.33275646,5.04581244 C7.33275646,5.84445658 8.04138766,6.49156799 8.91595756,6.49156799 L12.3578807,6.49156799 C13.2324506,6.49156799 13.9410819,7.13867949 13.9410819,7.93732362 L13.9410819,8.07741991 C13.9410819,8.87606404 13.2324506,9.52317554 12.3578807,9.52317554 L8.91595756,9.52317554 Z" id="Fill-1" fill="#000000"></path>
                    <path d="M28.8948707,6.54865487 L28.8948707,8.96650722 C28.8948707,9.22763905 28.6537899,9.43158873 28.3688763,9.40776286 C27.9002822,9.36868835 27.3690697,9.35439281 26.7741952,9.35439281 C24.3727807,9.35439281 22.2928071,9.78325901 21.8534348,10.5352044 C21.8325621,10.5714198 21.8200384,10.6066821 21.8085583,10.6467096 C21.7261108,10.9488221 21.6718416,11.3500502 21.6718416,11.8246621 L21.6718416,20.3333675 C21.6718416,20.5792507 21.4537209,20.7784353 21.1844619,20.7784353 L18.1631255,20.7784353 C17.8938665,20.7784353 17.6757458,20.5792507 17.6757458,20.3333675 L17.6757458,6.93654055 C17.6757458,6.69065727 17.8938665,6.49147271 18.1631255,6.49147271 L21.1844619,6.49147271 C21.4537209,6.49147271 21.6718416,6.69065727 21.6718416,6.93654055 C21.6718416,7.3110837 22.1393921,7.50836215 22.4650076,7.28058652 C23.6098801,6.47813018 25.220216,6.07118384 27.296015,6.07118384 C27.6550269,6.07118384 28.0286499,6.08547938 28.4304511,6.10454013 C28.6903173,6.11597656 28.8948707,6.31134891 28.8948707,6.54865487" id="Fill-3" fill="#000000"></path>
                    <path d="M68.3030119,18.1177494 C69.3080367,18.0033851 70.0573699,17.2161774 70.0573699,16.2907794 L70.0573699,10.4496218 C70.0573699,9.63572904 68.2132589,9.07343786 65.7544442,9.07343786 C63.7558745,9.07343786 62.4346269,9.38222152 61.788614,9.99978884 C61.1436448,10.6173562 60.8055057,11.8248527 60.8055057,13.6213256 C60.8055057,15.5569417 61.1123356,16.7930294 61.7583485,17.3820057 C62.4043614,17.9719349 63.7558745,18.2521275 65.8160189,18.2521275 C66.6843271,18.2521275 67.5129768,18.2073348 68.3030119,18.1177494 M70.0573699,4.5388926 L70.0573699,2.35167497 C70.0573699,1.33669163 70.9580308,0.513268534 72.0705506,0.513268534 C73.1820267,0.513268534 74.0837312,1.33669163 74.0837312,2.35167497 L74.0837312,18.8020292 C74.0837312,19.6616677 73.4345874,20.411707 72.515141,20.596596 C70.5896261,20.9835286 68.3510193,21.1712767 65.8160189,21.1712767 C62.5880419,21.1712767 60.2523767,20.6375765 58.8079796,19.5434913 C57.393848,18.4484529 56.6873041,16.4556547 56.6873041,13.6213256 C56.6873041,10.8422726 57.3635825,8.90570349 58.7150956,7.78302706 C60.0676525,6.63175964 62.1277969,6.07042138 64.8934417,6.07042138 C65.8400226,6.07042138 66.7469454,6.15619462 67.6152535,6.3315533 C68.8697082,6.58506082 70.0573699,5.71207988 70.0573699,4.5388926" id="Fill-5" fill="#000000"></path>
                    <path d="M83.6371027,9.46694639 C83.1705961,9.77096484 82.8481113,10.2817922 82.6592126,10.9870388 C82.536063,11.441637 82.9263848,11.8809865 83.4398551,11.8809865 L90.3132646,11.8809865 C90.8079503,11.8809865 91.1857478,11.4730872 91.1043437,11.0280193 C90.9644964,10.2627314 90.6827131,9.73284343 90.2454286,9.43930832 C89.6609899,9.01806644 88.6163075,8.82174099 87.0487603,8.82174099 C85.4196392,8.82174099 84.2820724,9.04570451 83.6371027,9.46694639 M93.3189465,7.58660634 C94.7633441,8.70928278 95.2862072,10.674443 95.2862072,13.8175557 C95.2862072,14.22069 94.9282391,14.5475813 94.4867792,14.5475813 L83.2947895,14.5475813 C82.8115842,14.5475813 82.4400488,14.9383261 82.5005797,15.3757696 C82.6446015,16.4060015 83.0276173,17.1122011 83.6673687,17.4943686 C84.4970617,17.9718396 85.9425023,18.2243941 88.0016038,18.2243941 C89.6056772,18.2243941 91.1638308,18.060472 92.6781521,17.7307215 C93.1029133,17.63923 93.5287184,17.8908315 93.6257764,18.2806233 L93.9983565,19.7511578 C94.0975022,20.1476208 93.8271994,20.5469428 93.3920016,20.629857 C91.4518753,20.9967759 89.4460006,21.1711815 87.417165,21.1711815 C84.4365308,21.1711815 82.1613971,20.6098432 80.5938502,19.4585758 C79.0263036,18.3082613 78.2268757,16.3431011 78.2268757,13.5650011 C78.2268757,8.09171545 81.2085536,6.07127911 87.0174515,6.07127911 C90.0920132,6.07127911 91.9350806,6.43533892 93.3189465,7.58660634" id="Fill-7" fill="#000000"></path>
                    <g id="Group-11" transform="translate(99.163328, 0.225357)" fill="#000000" fill-rule="nonzero">
                        <g id="Fill-9-Clipped">
                            <path d="M2.90559678,0.287721566 C3.51403862,0.287721566 4.00768011,0.738507592 4.00768011,1.29317454 L4.00768011,16.5388913 C4.00768011,17.3947177 4.26128451,18.1857375 4.76849331,18.9214813 C5.14420354,19.4656649 4.844679,20.1871131 4.17883699,20.3920159 L2.48187914,20.9133265 C2.06129241,21.0410334 1.58643643,20.9381055 1.30465376,20.6264627 C0.448869357,19.6820041 0.0115843987,18.3601431 0.0115843987,16.6799407 L0.0115843987,1.29317454 C0.0115843987,0.738507592 0.50418225,0.287721566 1.11262409,0.287721566 L2.90559678,0.287721566 Z" id="Fill-9"></path>
                        </g>
                    </g>
                    <path d="M112.320805,7.98335526 L112.320805,19.2863621 C112.320805,20.1107383 111.589214,20.7778635 110.687508,20.7778635 L109.958005,20.7778635 C109.056301,20.7778635 108.324709,20.1107383 108.324709,19.2863621 L108.324709,7.98335526 C108.324709,7.15993216 109.056301,6.4918539 109.958005,6.4918539 L110.687508,6.4918539 C111.589214,6.4918539 112.320805,7.15993216 112.320805,7.98335526 M112.720518,2.25370286 C112.720518,3.85385033 112.197655,4.19027197 110.353544,4.19027197 C108.478124,4.19027197 107.924995,3.85385033 107.924995,2.25370286 C107.924995,0.822242797 108.478124,0.541097182 110.353544,0.541097182 C112.197655,0.541097182 112.720518,0.822242797 112.720518,2.25370286" id="Fill-12" fill="#000000"></path>
                    <path d="M115.554731,20.2010861 C115.554731,20.0495534 115.619436,19.9056449 115.736323,19.7979519 C117.496944,18.1825559 119.37132,16.359398 121.332319,14.3789892 C122.882123,12.8150571 124.11988,11.5055857 125.056024,10.4639173 C125.394163,10.0874681 125.098814,9.52327082 124.566558,9.52327082 L116.832145,9.52327082 C116.482526,9.52327082 116.199699,9.26499809 116.199699,8.94573101 L116.199699,7.06825007 C116.199699,6.74993608 116.482526,6.49166335 116.832145,6.49166335 L131.888732,6.49166335 C132.237308,6.49166335 132.521178,6.74993608 132.521178,7.06825007 L132.521178,7.07587439 C132.521178,7.20644035 132.474214,7.331288 132.385505,7.43326288 C131.02773,8.99624194 129.380867,10.7698419 127.387515,12.8074329 C125.862758,14.3894726 124.545685,15.7027562 123.424816,16.7701565 C123.038669,17.1370754 123.321496,17.7470184 123.879843,17.7470184 L131.613211,17.7470184 C131.961788,17.7470184 132.24357,18.0052912 132.24357,18.3236052 L132.24357,20.2010861 C132.24357,20.5203531 131.961788,20.7776728 131.613211,20.7776728 L116.185088,20.7776728 C115.837557,20.7776728 115.554731,20.5203531 115.554731,20.2010861" id="Fill-14" fill="#000000"></path>
                    <g id="Clip-21" transform="translate(32.263288, 1.391194)">
                        <g id="path-4">
                            <use fill="black" fill-opacity="1" filter="url(#filter-3)" xlink:href="#path-2"></use>
                            <use fill="url(#linearGradient-1)" fill-rule="evenodd" xlink:href="#path-2"></use>
                        </g>
                    </g>
                    <g id="Fill-16-Clipped" transform="translate(135.003226, 5.789822)">
                        <mask id="mask-5" fill="white">
                            <use xlink:href="#path-4"></use>
                        </mask>
                        <g id="path-6"></g>
                        <path d="M5.41746815,3.67712486 C4.95096154,3.98114331 4.62847671,4.49197063 4.43957798,5.1972173 C4.3174723,5.65181547 4.70674928,6.091165 5.22022052,6.091165 L12.0946738,6.091165 C12.5883148,6.091165 12.9661123,5.68326566 12.8847091,5.23819782 C12.7448609,4.47290989 12.4630785,3.9430219 12.0257931,3.64948679 C11.4413553,3.22824491 10.396672,3.03191946 8.83016956,3.03191946 C7.20000465,3.03191946 6.06243692,3.25588298 5.41746815,3.67712486 M15.0993119,1.79678481 C16.5437087,2.91946125 17.0665726,4.88462144 17.0665726,8.0277342 C17.0665726,8.43086843 16.7086036,8.75775974 16.2671446,8.75775974 L5.07619784,8.75775974 C4.59194956,8.75775974 4.22145718,9.14850453 4.28094426,9.58594805 C4.42496694,10.6161799 4.80798269,11.3223796 5.44773317,11.7045471 C6.27742711,12.1820181 7.72286774,12.4345726 9.78301212,12.4345726 C11.3860426,12.4345726 12.94524,12.2706504 14.4585176,11.9408999 C14.8832787,11.8494085 15.3090838,12.10101 15.4061418,12.4908018 L15.778721,13.9613363 C15.8778667,14.3577993 15.6075639,14.7571213 15.172367,14.8400354 C13.2322407,15.2069543 11.2274089,15.3813599 9.19753044,15.3813599 C6.21689618,15.3813599 3.94280545,14.8200217 2.3742153,13.6687542 C0.807711934,12.5184397 0.00724095998,10.5532796 0.00724095998,7.7751796 C0.00724095998,2.30189392 2.98996289,0.281457585 8.79781687,0.281457585 C11.8723786,0.281457585 13.7164898,0.645517393 15.0993119,1.79678481" id="Fill-16" fill="#000000" mask="url(#mask-5)"></path>
                    </g>
                </g>
            </g>
        </g>
    </g>
</svg>