<svg xmlns="http://www.w3.org/2000/svg" xmlns:xlink="http://www.w3.org/1999/xlink" width="55" height="55" viewBox="0 0 55 55"><defs><path id="csc4a" d="M1152.921 984.838c.49 0 .887.399.887.887h1.775c0-1.154-.745-2.13-1.775-2.498v-1.937h-1.774v1.937a2.658 2.658 0 0 0-1.774 2.498 2.665 2.665 0 0 0 2.661 2.662.888.888 0 1 1-.887.887h-1.774c0 1.155.744 2.13 1.774 2.498v1.937h1.774v-1.937a2.658 2.658 0 0 0 1.775-2.498 2.665 2.665 0 0 0-2.662-2.661.888.888 0 0 1 0-1.775z"/><path id="csc4c" d="M1163.65 990.38l.646.886c.619.852.68 1.988.157 2.895a2.666 2.666 0 0 1-2.586 1.312l-1.089-.114.115 1.089a2.667 2.667 0 0 1-1.313 2.586 2.663 2.663 0 0 1-2.895-.158l-.886-.645-.446 1.002a2.664 2.664 0 0 1-2.429 1.583c-1.047 0-2-.62-2.428-1.583l-.446-1.002-.886.645a2.665 2.665 0 0 1-2.895.158 2.668 2.668 0 0 1-1.313-2.586l.115-1.09-1.09.115a2.674 2.674 0 0 1-2.585-1.312 2.663 2.663 0 0 1 .157-2.895l.645-.887-1.002-.445a2.664 2.664 0 0 1-1.583-2.429c0-1.047.621-2 1.583-2.429l1.002-.445-.645-.887a2.665 2.665 0 0 1-.157-2.895 2.674 2.674 0 0 1 2.585-1.311l1.09.114-.115-1.09a2.666 2.666 0 0 1 1.313-2.586 2.666 2.666 0 0 1 2.895.157l.886.645.446-1.001a2.664 2.664 0 0 1 2.428-1.583c1.048 0 2 .62 2.43 1.583l.445 1 .886-.644a2.666 2.666 0 0 1 2.895-.157 2.667 2.667 0 0 1 1.313 2.586l-.115 1.09 1.09-.114c1.04-.111 2.06.403 2.585 1.311a2.663 2.663 0 0 1-.157 2.895l-.645.887 1.001.445a2.664 2.664 0 0 1 1.584 2.429c0 1.047-.622 2-1.584 2.429zm-13.382 20.185a2.665 2.665 0 0 1-2.662 2.66h-30.17a2.665 2.665 0 0 1-2.662-2.66v-40.807a2.665 2.665 0 0 1 2.662-2.661h7.099v1.774h-7.986v34.964l7.619 7.617h24.325v-10.396c.3-.062.593-.15.876-.273.256.344.562.642.9.896zm-23.962-45.238h3.549v-.889a2.666 2.666 0 0 1 2.661-2.664 2.666 2.666 0 0 1 2.661 2.664v.889h3.549v5.328h-12.42zm-2.66 43.096l-4.069-4.068h4.068zm16.213-13.383a4.436 4.436 0 0 0 3.302 2.178v1.814h-21.29v-8.87h16.87c.254.336.55.643.895.898a4.435 4.435 0 0 0 .223 3.98zm-.223-11.1c-.35.26-.653.573-.91.918v-.02h-.887v-6.209h-1.774v6.21h-1.775v-8.871h-1.774v8.87h-1.774v-10.644h-1.774v10.645h-1.774v-5.323h-1.775v5.323h-1.774v-3.549h-1.774v3.549h-1.774v1.774h17.838c-.059.29-.096.585-.096.887 0 .302.037.598.096.887h-17.838v12.42h24.838v-.54c.142.106.289.204.444.294a4.4 4.4 0 0 0 1.33.497v8.62h-21.29v-7.097h-7.096v-31.936h6.21v1.774h15.967v-1.774h6.21v3.297c-.46.093-.91.255-1.331.497a4.44 4.44 0 0 0-2.184 3.337 4.438 4.438 0 0 0-3.337 2.184 4.435 4.435 0 0 0-.222 3.98zm7.96-16.843a2.665 2.665 0 0 1 2.662 2.661v3.563a4.47 4.47 0 0 0-.899.895 4.467 4.467 0 0 0-.875-.27v-5.075h-7.984v-1.774zm18.607 16.843a4.432 4.432 0 0 0-.223-3.98 4.438 4.438 0 0 0-3.336-2.184 4.44 4.44 0 0 0-2.184-3.337 4.44 4.44 0 0 0-3.98-.222 4.437 4.437 0 0 0-3.56-1.798c-.303 0-.598.038-.888.097v-2.758a4.44 4.44 0 0 0-4.435-4.435h-7.097v-1.775h-3.638a4.442 4.442 0 0 0-4.346-3.548 4.442 4.442 0 0 0-4.346 3.548h-3.638v1.775h-7.097a4.44 4.44 0 0 0-4.435 4.435v40.807a4.44 4.44 0 0 0 4.435 4.435h30.162a4.44 4.44 0 0 0 4.435-4.435v-8.08c.29.058.585.096.887.096 1.42 0 2.734-.683 3.56-1.798a4.43 4.43 0 0 0 3.98-.222 4.439 4.439 0 0 0 2.185-3.337 4.439 4.439 0 0 0 3.336-2.184c.71-1.228.776-2.709.223-3.98a4.437 4.437 0 0 0 1.797-3.56 4.439 4.439 0 0 0-1.797-3.56z"/><path id="csc4e" d="M1128.08 967.1h1.774v1.774h-1.774z"/><path id="csc4g" d="M1135.18 967.1h1.774v1.774h-1.774z"/><path id="csc4i" d="M1143.16 1006.13h1.774v1.774h-1.774z"/><linearGradient id="csc4b" x1="1150.26" x2="1155.69" y1="981.29" y2="993.83" gradientUnits="userSpaceOnUse"><stop offset="0" stop-color="#51e9cf"/><stop offset="1" stop-color="#46bce3"/></linearGradient><linearGradient id="csc4d" x1="1113" x2="1169.1" y1="960" y2="1015.55" gradientUnits="userSpaceOnUse"><stop offset="0" stop-color="#51e9cf"/><stop offset="1" stop-color="#46bce3"/></linearGradient><linearGradient id="csc4f" x1="1128.08" x2="1129.89" y1="967.1" y2="968.89" gradientUnits="userSpaceOnUse"><stop offset="0" stop-color="#51e9cf"/><stop offset="1" stop-color="#46bce3"/></linearGradient><linearGradient id="csc4h" x1="1135.18" x2="1136.99" y1="967.1" y2="968.89" gradientUnits="userSpaceOnUse"><stop offset="0" stop-color="#51e9cf"/><stop offset="1" stop-color="#46bce3"/></linearGradient><linearGradient id="csc4j" x1="1143.16" x2="1144.98" y1="1006.13" y2="1007.92" gradientUnits="userSpaceOnUse"><stop offset="0" stop-color="#51e9cf"/><stop offset="1" stop-color="#46bce3"/></linearGradient></defs><g><g transform="translate(-1113 -960)"><g><use fill="url(#csc4b)" xlink:href="#csc4a"/></g><g><use fill="url(#csc4d)" xlink:href="#csc4c"/></g><g><use fill="url(#csc4f)" xlink:href="#csc4e"/></g><g><use fill="url(#csc4h)" xlink:href="#csc4g"/></g><g><use fill="url(#csc4j)" xlink:href="#csc4i"/></g></g></g></svg>