<svg xmlns="http://www.w3.org/2000/svg" xmlns:xlink="http://www.w3.org/1999/xlink" width="34" height="33" viewBox="0 0 34 33"><defs><path id="41kma" d="M770.856 2932.731v-1.021h.374c.703 0 1.26.59 1.26 1.302v9.895c0 .713-.557 1.303-1.26 1.303h-13.48c-.703 0-1.26-.59-1.26-1.303v-9.895c0-.713.557-1.302 1.26-1.302h10.86v1.021h-10.86c-.126 0-.239.12-.239.281v9.895c0 .162.113.281.239.281h13.48c.126 0 .239-.12.239-.28v-9.896c0-.161-.113-.28-.239-.28z"/><path id="41kmb" d="M759.823 2942.176H758.7v-1.022h.742l1.398-1.211h1.294l1.399-2.423h.475l1.865-3.03h.942l1.398 1.213h.024l.932-1.212h.766l-.001 1.022h-.262l-.932 1.21h-.908l-1.392-1.206-1.861 3.024h-.457l-1.399 2.424h-1.502z"/><path id="41kmc" d="M777.613 2925.942h-1.553v-1.022h1.25l.935-.605h.87l.36.467 2.068-1.072h1.249l1.402 1.213h.165l2.652-1.211h.283v.887l.04.088-.04.018v.028h-.06l-2.652 1.21h-.769l-1.402-1.212h-.62l-2.604 1.35-.575-.745h-.065z"/><path id="41kmd" d="M769.08 2945.09h1.022v.745l-.68 3.478v.647H768.4v-.746l.68-3.478z"/><path id="41kme" d="M775.21 2945.835v-.745h1.021v.646l.681 3.478v.746h-1.021v-.647zm.68 3.429l.01.098-.01-.049z"/><path id="41kmf" d="M766.87 2950.811v-1.021h11.234v1.021z"/><path id="41kmg" d="M787.876 2932.731v-1.021h.374c.703 0 1.26.59 1.26 1.302v9.895c0 .713-.557 1.303-1.26 1.303h-13.48c-.703 0-1.26-.59-1.26-1.303v-9.895c0-.713.557-1.302 1.26-1.302h10.86v1.021h-10.86c-.126 0-.239.12-.239.281v9.895c0 .162.113.281.239.281h13.48c.126 0 .239-.12.239-.28v-9.896c0-.161-.113-.28-.239-.28z"/><path id="41kmh" d="M775.85 2937.251v-1.021h11.234v1.021z"/><path id="41kmi" d="M775.85 2938.991v-1.021h4.626v1.021z"/><path id="41kmj" d="M770.856 2919.511v-1.021h.374c.703 0 1.26.59 1.26 1.302v9.895c0 .713-.557 1.303-1.26 1.303h-13.48c-.703 0-1.26-.59-1.26-1.303v-9.895c0-.713.557-1.302 1.26-1.302h10.86v1.021h-10.86c-.126 0-.239.12-.239.281v9.895c0 .162.113.281.239.281h13.48c.126 0 .239-.12.239-.28v-9.896c0-.161-.113-.28-.239-.28z"/><path id="41kmk" d="M760.254 2927.86H758.7v-1.02h1.25l1.87-1.218h1.336l2.336-2.435h.876l1.39 1.209 1.416-2.426h.76v1.021h-.174l-1.421 2.436h-.952l-1.401-1.22h-.059l-2.336 2.436h-1.468z"/><path id="41kml" d="M787.876 2919.511v-1.021h.374c.703 0 1.26.59 1.26 1.302v9.895c0 .713-.557 1.303-1.26 1.303h-13.48c-.703 0-1.26-.59-1.26-1.303v-9.895c0-.713.557-1.302 1.26-1.302h10.86v1.021h-10.86c-.126 0-.239.12-.239.281v9.895c0 .162.113.281.239.281h13.48c.126 0 .239-.12.239-.28v-9.896c0-.161-.113-.28-.239-.28z"/></defs><g><g transform="translate(-756 -2918)"><g><use fill="#52d6db" xlink:href="#41kma"/></g><g><use fill="#52d6db" xlink:href="#41kmb"/></g><g><use fill="#52d6db" xlink:href="#41kmc"/></g><g><use fill="#52d6db" xlink:href="#41kmd"/></g><g><use fill="#52d6db" xlink:href="#41kme"/></g><g><use fill="#52d6db" xlink:href="#41kmf"/></g><g><use fill="#52d6db" xlink:href="#41kmg"/></g><g><use fill="#52d6db" xlink:href="#41kmh"/></g><g><use fill="#52d6db" xlink:href="#41kmi"/></g><g><use fill="#52d6db" xlink:href="#41kmj"/></g><g><use fill="#52d6db" xlink:href="#41kmk"/></g><g><use fill="#52d6db" xlink:href="#41kml"/></g></g></g></svg>