<svg xmlns="http://www.w3.org/2000/svg" xmlns:xlink="http://www.w3.org/1999/xlink" width="317" height="317" viewBox="0 0 317 317"><defs><path id="ucq9b" d="M600 382c0-62.96 51.04-114 114-114s114 51.04 114 114-51.04 114-114 114-114-51.04-114-114z"/><path id="ucq9d" d="M572 381.5c0-78.148 63.352-141.5 141.5-141.5S855 303.352 855 381.5 791.648 523 713.5 523 572 459.648 572 381.5z"/><path id="ucq9f" d="M624 381.5c0-49.43 40.07-89.5 89.5-89.5s89.5 40.07 89.5 89.5-40.07 89.5-89.5 89.5-89.5-40.07-89.5-89.5z"/><path id="ucq9h" d="M687 378.576L710 411l23-27.02-3.22-7.98a83.749 83.749 0 0 1-14.473 3.423h-7.077a82.575 82.575 0 0 1-14.153-3.317z"/><path id="ucq9i" d="M741 379.43l-3.005 37.332c-1.82.493-3.693.915-5.53 1.25a121.827 121.827 0 0 1-20.29 1.988S669 420 669 402.082c0-5.931 1.202-12.497 5.479-17.02 4.613-4.894 13.13-7.728 19.705-8.062 0 0 0 8.185 11.965 19.802 1.732 1.69 3.74 3.45 6.026 5.28 2.28-1.83 4.289-3.59 6.026-5.28a71.861 71.861 0 0 0 2.599-2.658 39.821 39.821 0 0 0 8.164-12.356 14.618 14.618 0 0 0 1.203-4.788c2.385.144 4.75.539 7.05 1.18 1.286.339 2.55.756 3.783 1.25z"/><path id="ucq9j" d="M741 379.255l-3.041 37.49A68.83 68.83 0 0 1 732.36 418a20.415 20.415 0 0 1-5.385-3.553c-4.452-4.017-6.986-9.703-6.976-15.66a19.745 19.745 0 0 1 .555-4.755 39.965 39.965 0 0 0 8.263-12.409 21.725 21.725 0 0 1 8.354-3.623c1.3.34 2.58.76 3.828 1.255z"/><path id="ucq9k" d="M731.558 340.383a4.58 4.58 0 0 1 4.125-1.303c2.107.706 1.054 7.132 1.054 7.132-.99 3.212-3.452 5.741-6.608 6.788h-36.252c-3.158-1.05-5.623-3.576-6.625-6.788 0 0-1.035-6.426 1.09-7.132a4.545 4.545 0 0 1 4.107 1.303z"/><path id="ucq9l" d="M722.821 368c.294 4.063 3.14 7.54 7.179 8.77a87.87 87.87 0 0 1-14.464 3.23h-7.073A87.86 87.86 0 0 1 694 376.77c4.038-1.23 6.885-4.707 7.179-8.77z"/><path id="ucq9m" d="M718 396.898c-1.724 1.632-3.724 3.333-6 5.102-2.27-1.769-4.27-3.47-6-5.102l4.24-9.898h3.52z"/><path id="ucq9n" d="M730.476 350.932c0 4.738 1.383 8.817-4.148 13.573S720.797 374 715.266 374h-5.532a1.378 1.378 0 0 1-.265-.017c-5.265-.143-5.354-4.81-10.797-9.477-5.53-4.756-4.148-8.835-4.148-13.573 0-4.738-2.074-6.11-1.383-19.682.567-10.99 11.985-13.52 16.328-14.09 1.028-.143 1.648-.16 1.648-.16h2.766s17.284.677 17.976 14.25c.691 13.573-1.383 14.926-1.383 19.682z"/><path id="ucq9o" d="M724.472 351.284c0 4.67 1.387 8.69-4.158 13.377-5.456 4.582-5.544 9.198-10.805 9.339-5.278-.14-5.367-4.74-10.823-9.34-5.545-4.687-4.158-8.706-4.158-13.376s-2.08-6.021-1.387-19.398c.57-10.832 12.014-13.324 16.368-13.886 4.354.562 15.78 3.072 16.35 13.886.693 13.377-1.387 14.71-1.387 19.398z"/><path id="ucq9p" d="M709.875 380h5.25c.483 0 .875.403.875.9v4.5c0 1.988-1.567 3.6-3.5 3.6s-3.5-1.612-3.5-3.6v-4.5c0-.497.392-.9.875-.9z"/><path id="ucq9q" d="M771 399c0 11.598-9.402 21-21 21s-21-9.402-21-21 9.402-21 21-21 21 9.402 21 21z"/><path id="ucq9r" d="M764 399c0-11.598-7.835-21-17.5-21s-17.5 9.402-17.5 21 7.835 21 17.5 21 17.5-9.402 17.5-21z"/><path id="ucq9s" d="M741.644 409.977l-4.602-4.522a3.451 3.451 0 0 1 0-4.942 3.605 3.605 0 0 1 5.033 0l1.456 1.431a.9.9 0 0 0 1.26 0l12.134-11.92a3.606 3.606 0 0 1 5.033 0 3.452 3.452 0 0 1 0 4.943l-15.28 15.01a3.606 3.606 0 0 1-5.034 0z"/><path id="ucq9t" d="M747.971 378.077a15.041 15.041 0 0 0-1.605-.097 14.904 14.904 0 0 0-3.656.46c.932.25 1.861.556 2.78.894a15.06 15.06 0 0 1 5.37-1.305c-.32-.016-.636-.049-.961-.049-.65 0-1.292.04-1.928.097z"/><path id="ucq9u" d="M709.913 379.917l-.733-.147z"/><path id="ucq9v" d="M712.82 380.415z"/><path id="ucq9w" d="M711.61 380.22z"/><path id="ucq9x" d="M710.39 380.006l.747.134z"/><path id="ucq9y" d="M679.886 385.286c3.758-3.992 10.1-6.583 15.882-7.598a31.886 31.886 0 0 1 3.811-.467 10.285 10.285 0 0 0 7.171-9.083 22.768 22.768 0 0 0-2.967-3.067c-5.009-4.273-4.329-7.996-4.162-12.15a10.184 10.184 0 0 1-6.536-6.598s-1.024-6.25 1.077-6.937a4.545 4.545 0 0 1 4.063 1.268 79.75 79.75 0 0 1 .048-8.457c.565-10.865 11.94-13.366 16.266-13.929.14-.02.253-.031.377-.046-.795-.093-1.277-.112-1.277-.112h-2.756s-.617.017-1.642.158c-4.327.563-15.702 3.064-16.267 13.929a79.875 79.875 0 0 0-.05 8.452 4.54 4.54 0 0 0-4.062-1.268c-2.102.687-1.077 6.938-1.077 6.938a10.185 10.185 0 0 0 6.535 6.597c-.167 4.16-.847 7.882 4.163 12.15a22.774 22.774 0 0 1 2.967 3.068 10.287 10.287 0 0 1-7.171 9.082l.318.104-.307.104c0-.123-.011-.208-.011-.208-6.57.335-15.083 3.17-19.694 8.065-4.274 4.525-5.475 11.093-5.475 17.027.002 17.93 43.151 17.93 43.151 17.93s.984 0 2.65-.06c-9.367-.346-40.5-2.635-40.5-17.865 0-5.934 1.2-12.501 5.475-17.027z"/><path id="ucq9z" d="M699.898 377.324l-.318-.104s0 .085.01.208z"/><path id="ucq9A" d="M707.99 379.515l.707.156z"/><path id="ucq9B" d="M704.31 378.61z"/><path id="ucq9C" d="M704.067 378.55l-.707-.194z"/><path id="ucq9D" d="M702.5 378.109l.53.149z"/><path id="ucq9E" d="M706.79 379.235l.744.176-.744-.176z"/><path id="ucq9F" d="M705.53 378.93c.288.074.58.146.883.22-.302-.074-.595-.146-.883-.22z"/><path id="ucq9G" d="M700.095 377.386l.177.055z"/><path id="ucq9H" d="M701.72 377.89l.437.126z"/><path id="ucq9I" d="M750.866 420.193a15.53 15.53 0 0 1-8.293-2.993c-1.303.336-2.62.634-3.933.89a14.664 14.664 0 0 0 9.336 2.055c.636.057 1.278.097 1.928.097.325 0 .64-.033.962-.05z"/><path id="ucq9J" d="M700.5 377.518l.29.09z"/><path id="ucq9K" d="M701.05 377.69l.353.106z"/><path id="ucq9L" d="M671.532 402.32a10.106 10.106 0 0 0 4.782 8.1 33.74 33.74 0 0 0 9.86 4.476 105.305 105.305 0 0 0 26.738 3.587v3.522a108.655 108.655 0 0 1-27.748-3.732 37.106 37.106 0 0 1-10.924-5 16.631 16.631 0 0 1-4.415-4.605A12.169 12.169 0 0 1 668 402.32z"/><path id="ucq9M" d="M739.8 415.546a1.852 1.852 0 0 0-.22-.134 19.4 19.4 0 0 1-8.966-17.962 19.408 19.408 0 0 1 11.75-16.283c.085-.027.169-.06.249-.101a19.47 19.47 0 0 1 21.19 4.247 19.42 19.42 0 0 1 4.187 21.18 19.455 19.455 0 0 1-17.984 11.974 19.322 19.322 0 0 1-10.206-2.92zm-32.133-33.572v2.926a5.27 5.27 0 0 0 1.49 3.67l-2.688 5.372c-6.052-6.366-8.341-11.452-9.201-14.314a83.772 83.772 0 0 0 10.399 2.346zm-4.782-10.079a8.381 8.381 0 0 0 7.329 4.172h5.517a8.38 8.38 0 0 0 7.327-4.173 11.533 11.533 0 0 0 3.297 4.711h-.025c-.665.177-1.39.373-2.152.562l-.134.034c-.744.176-1.525.366-2.325.53l-.197.044a57.34 57.34 0 0 1-2.452.477l-.164.03c-.51.089-1.012.15-1.518.221a2.627 2.627 0 0 0-1.768-.684h-5.306c-.654 0-1.284.244-1.768.684a75.551 75.551 0 0 1-8.969-1.912 11.52 11.52 0 0 0 3.308-4.696zm-6.125-19.08a2.033 2.033 0 0 0 0-.263c.012-.38.037-.749.037-1.133a21.754 21.754 0 0 0-.576-4.67 40.321 40.321 0 0 1-.86-6.455v-.028a78.604 78.604 0 0 1 .057-8.276c.606-11.672 15.607-12.43 16.173-12.457h2.69c.636.029 15.641.786 16.237 12.459.164 2.76.183 5.527.057 8.289a40.218 40.218 0 0 1-.862 6.462 21.863 21.863 0 0 0-.576 4.67c0 .385.025.754.039 1.134-.005.088-.002.176.009.263.014.343.016.697.034 1.035.187 3.679.32 6.338-3.6 9.684a24.358 24.358 0 0 0-3.203 3.351l-.042.055a53.077 53.077 0 0 0-1.558 2.053c-1.838 2.519-2.676 3.545-5.087 3.545h-5.515c-2.411 0-3.25-1.026-5.08-3.554a52.947 52.947 0 0 0-1.604-2.112 24.317 24.317 0 0 0-3.204-3.331c-3.923-3.348-3.787-6.007-3.601-9.685.017-.34.02-.693.035-1.036zm-6.554-7.032c-.341-1.664-.325-3.38.05-5.037a2.504 2.504 0 0 1 1.637.546c.143 2.07.433 4.127.869 6.157.158.789.293 1.49.387 2.206a7.849 7.849 0 0 1-2.943-3.872zm45.533-.091a7.746 7.746 0 0 1-2.945 3.968c.092-.715.226-1.413.386-2.204.436-2.027.727-4.083.87-6.15a2.627 2.627 0 0 1 1.643-.56c.358 1.628.373 3.312.046 4.946zM714.74 384.9a1.768 1.768 0 0 1-3.537 0v-3.533h3.537zm-1.76 15.054a79.498 79.498 0 0 1-3.868-3.395l3.223-6.424c.424.087.861.087 1.285 0l3.22 6.436a88.015 88.015 0 0 1-3.86 3.383zm6.496-6.007l-2.692-5.378a5.27 5.27 0 0 0 1.493-3.669v-2.926a83.6 83.6 0 0 0 10.399-2.347c-.862 2.869-3.15 7.965-9.2 14.32zm22.282-16.328a36.892 36.892 0 0 0-10.385-2.28 8.26 8.26 0 0 1-5.682-6.89c.682-.801 1.425-1.548 2.223-2.233 5.18-4.417 5.032-8.657 4.84-12.408a11.634 11.634 0 0 0 6.455-7.455c.388-2.335.948-7.877-2.223-8.925a4.795 4.795 0 0 0-2.798-.053c0-1.606-.03-3.438-.137-5.57-.612-11.918-13.11-15.549-19.702-15.805h-2.83c-6.522.255-19.018 3.887-19.63 15.808a95.667 95.667 0 0 0-.139 5.567 4.713 4.713 0 0 0-2.765.053c-3.2 1.045-2.653 6.588-2.257 9.01a11.695 11.695 0 0 0 6.455 7.376c-.19 3.748-.337 7.985 4.84 12.409a20.113 20.113 0 0 1 2.224 2.233 8.267 8.267 0 0 1-5.684 6.89c-6.656.401-15.514 3.18-20.613 8.609-3.947 4.2-5.951 10.356-5.951 18.295a12.307 12.307 0 0 0 2.695 7.617 1.688 1.688 0 0 0 2.572.231 1.91 1.91 0 0 0 .221-2.408 8.715 8.715 0 0 1-1.945-5.444c0-7.011 1.68-12.357 4.994-15.883 4.067-4.334 11.286-6.775 16.91-7.396.653 3.22 3.11 10.261 12.147 19.114.01.013.025.021.038.035a82.914 82.914 0 0 0 6.235 5.51l.424.234c.215.095.445.147.68.152h.019c.225-.008.447-.057.652-.147.07-.031.136-.068.2-.11a1.83 1.83 0 0 0 .24-.132c2.344-1.889 4.423-3.71 6.156-5.411 9.145-8.908 11.603-16.002 12.264-19.24 1.627.185 3.238.494 4.82.923a22.894 22.894 0 0 0-10.25 17.484 22.89 22.89 0 0 0 7.652 18.763 120.056 120.056 0 0 1-21.752 2.325 105.242 105.242 0 0 1-26.772-3.597c-.552-.154-1.086-.354-1.63-.518a1.807 1.807 0 0 0-2.227 1.084 1.741 1.741 0 0 0 1.105 2.267c.58.177 1.157.39 1.74.553A108.574 108.574 0 0 0 712.97 422a116.848 116.848 0 0 0 25.524-3.117 23 23 0 0 0 26.28-2.261 22.94 22.94 0 0 0 6.84-25.446 22.979 22.979 0 0 0-21.608-15.11 22.887 22.887 0 0 0-8.247 1.553z"/><path id="ucq9O" d="M679.01 411.24a2.009 2.009 0 0 0-1.45-.177l-.35.124a1.62 1.62 0 0 0-.34.201 1.328 1.328 0 0 0-.293.236 3.066 3.066 0 0 0-.254.312 2.047 2.047 0 0 0-.277 1.533c.074.263.203.507.377.717a2.09 2.09 0 0 0 2.21.739c.5-.175.917-.533 1.163-1.004a2.22 2.22 0 0 0 .122-1.528 2.242 2.242 0 0 0-.909-1.154z"/><path id="ucq9P" d="M761.838 393.63l-15.47 15.288a1.816 1.816 0 0 1-2.546 0l-4.66-4.606a1.767 1.767 0 0 1-.377-1.93 1.802 1.802 0 0 1 2.925-.577l1.473 1.456a2.72 2.72 0 0 0 1.912.783 2.72 2.72 0 0 0 1.912-.783l12.283-12.138a1.816 1.816 0 0 1 1.762-.507 1.791 1.791 0 0 1 1.297 1.282 1.767 1.767 0 0 1-.511 1.741zm-5.095-5.035l-11.648 11.511-.838-.83a5.448 5.448 0 0 0-5.237-1.416 5.374 5.374 0 0 0-3.84 3.795 5.3 5.3 0 0 0 1.435 5.176l4.66 4.605a5.449 5.449 0 0 0 7.641 0l15.47-15.286a5.3 5.3 0 0 0 1.434-5.177 5.374 5.374 0 0 0-3.84-3.795 5.448 5.448 0 0 0-5.237 1.417z"/><filter id="ucq9a" width="140%" height="140%" x="-10%" y="-10%" filterUnits="objectBoundingBox"><feGaussianBlur in="SourceGraphic" result="FeGaussianBlur3381Out" stdDeviation="1.116071428571429 1.116071428571429"/></filter><filter id="ucq9c" width="152%" height="152%" x="-16%" y="-16%" filterUnits="objectBoundingBox"><feGaussianBlur in="SourceGraphic" result="FeGaussianBlur3388Out" stdDeviation="8.097098214285714 8.097098214285714"/></filter><filter id="ucq9e" width="148%" height="148%" x="-14%" y="-14%" filterUnits="objectBoundingBox"><feGaussianBlur in="SourceGraphic" result="FeGaussianBlur3395Out" stdDeviation="3.599330357142857 3.599330357142857"/></filter><filter id="ucq9g" width="140%" height="140%" x="-10%" y="-10%" filterUnits="objectBoundingBox"><feGaussianBlur in="SourceGraphic" result="FeGaussianBlur3402Out" stdDeviation="0.7393973214285714 0.7393973214285714"/></filter><linearGradient id="ucq9N" x1="668" x2="775.1" y1="316" y2="423.06" gradientUnits="userSpaceOnUse"><stop offset="0" stop-color="#51e8ce"/><stop offset="1" stop-color="#46bbe3"/></linearGradient></defs><g><g opacity=".33" transform="translate(-555 -223)"><g filter="url(#ucq9a)" opacity=".14"><use fill="#fff" fill-opacity="0" stroke="#000" stroke-miterlimit="50" xlink:href="#ucq9b"/></g><g filter="url(#ucq9c)" opacity=".33"><use fill="#fff" fill-opacity="0" stroke="#000" stroke-miterlimit="50" xlink:href="#ucq9d"/></g><g filter="url(#ucq9e)" opacity=".33"><use fill="#fff" fill-opacity="0" stroke="#000" stroke-miterlimit="50" stroke-width="5" xlink:href="#ucq9f"/></g><g filter="url(#ucq9g)" opacity=".33"><use fill="#fff" fill-opacity="0" stroke="#fff" stroke-miterlimit="50" stroke-width="2" xlink:href="#ucq9f"/></g></g><g transform="translate(-555 -223)"><g><use fill="#c6effd" xlink:href="#ucq9h"/></g><g><use fill="#f2fcff" xlink:href="#ucq9i"/></g><g><use fill="#c6effd" xlink:href="#ucq9j"/></g><g><use fill="#c6effd" xlink:href="#ucq9k"/></g><g><use fill="#c6effd" xlink:href="#ucq9l"/></g><g><use fill="#fff" xlink:href="#ucq9m"/></g><g><use fill="#c6effd" xlink:href="#ucq9n"/></g><g><use fill="#f2fcff" xlink:href="#ucq9o"/></g><g><use fill="#fff" xlink:href="#ucq9p"/></g><g><use fill="#c6effd" xlink:href="#ucq9q"/></g><g><use fill="#f2fcff" xlink:href="#ucq9r"/></g><g><use fill="#e3e7f2" xlink:href="#ucq9s"/></g><g><g><use fill="#fff" xlink:href="#ucq9t"/></g><g><use fill="#fff" xlink:href="#ucq9u"/></g><g><use fill="#fff" xlink:href="#ucq9v"/></g><g><use fill="#fff" xlink:href="#ucq9w"/></g><g><use fill="#fff" xlink:href="#ucq9x"/></g><g><use fill="#fff" xlink:href="#ucq9y"/></g><g><use fill="#fff" xlink:href="#ucq9z"/></g><g><use fill="#fff" xlink:href="#ucq9A"/></g><g><use fill="#fff" xlink:href="#ucq9B"/></g><g><use fill="#fff" xlink:href="#ucq9C"/></g><g><use fill="#fff" xlink:href="#ucq9D"/></g><g><use fill="#fff" xlink:href="#ucq9E"/></g><g><use fill="#fff" xlink:href="#ucq9F"/></g><g><use fill="#fff" xlink:href="#ucq9G"/></g><g><use fill="#fff" xlink:href="#ucq9H"/></g><g><use fill="#fff" xlink:href="#ucq9I"/></g><g><use fill="#fff" xlink:href="#ucq9J"/></g><g><use fill="#fff" xlink:href="#ucq9K"/></g><g><use fill="#fff" xlink:href="#ucq9L"/></g></g><g><use fill="url(#ucq9N)" xlink:href="#ucq9M"/></g><g><use fill="#51e7ce" xlink:href="#ucq9O"/></g><g><use fill="#47bfe1" xlink:href="#ucq9P"/></g></g></g></svg>